<svg xmlns="http://www.w3.org/2000/svg" viewBox="0 0 1296 1296">
  <path d="M563.05,818.79S550.54,804.6,561.8,797s21.39,4.14,21.54,4.92,10.83,12.75,4.89,20.14a11,11,0,0,1-3.65,2.85c-4.52,2.66-10.06,3.38-14,1.4a12.05,12.05,0,0,1-2.24-1.51A43.91,43.91,0,0,1,563.05,818.79Z"/>
  <path d="M578.82,760.53s-14,7.5-1.5,26.87,22.66,9.79,22.28,9.71,11.26-3,1.49-24.57S578.07,760.37,578.82,760.53Z"/>
  <path d="M606.85,768.05s-7.25-16,5.63-21.46,19.16,6.58,20.42,10.48c.77,2.45,4.42,11,4,18.11a12.94,12.94,0,0,1-.8,4,9.16,9.16,0,0,1-5.93,5.49,11.25,11.25,0,0,1-4.65.51C614.86,784.22,606.31,769.14,606.85,768.05Z"/>
  <path d="M650.28,755.43s-10.51,3.63-8.49,17a39.56,39.56,0,0,0,.86,4c1.26,8.13,7,18,17.72,15.06,4.82-1.15,7.69-5.68,8.7-9.9a15,15,0,0,0,.41-3.8,21.9,21.9,0,0,0-2.43-9.43C660.18,754.05,654.54,753.56,650.28,755.43Z"/>
  <path d="M616,800s-11.44,5-15.7,24.87a51.11,51.11,0,0,1-2.36,8.06,26.42,26.42,0,0,1-1.33,2.8c-1.58,2.1-10.89,19.11-4.91,25.07.61.59,1.29,1.21,2,1.82,12.05,9.91,26.51-4.38,25.36-3.47s18-16.32,20.13-16,28.42-10.83,28-11.72c-.08-.15-.6.57-.37.39,1.59-1.3,10.44-5.18,12-20.62.56-5.29-2.22-8.08-6.25-9.46a21.14,21.14,0,0,0-4.37-1c-5.81-.7-17.71.26-17.71.26-4.51-4.39-11.45-5.16-18.59-5.6-.84,0-1.68,0-2.54.07C624.28,795.8,619.37,797.09,616,800Z"/>
  <path d="M564.05,820.79S551.54,806.6,562.8,799s21.39,4.14,21.54,4.92,10.83,12.75,4.89,20.14a11,11,0,0,1-3.65,2.85c-4.52,2.66-10.06,3.38-14,1.4a12.05,12.05,0,0,1-2.24-1.51A43.91,43.91,0,0,1,564.05,820.79Z"/>
  <path d="M579.82,762.53s-14,7.5-1.5,26.87,22.66,9.79,22.28,9.71,11.26-3,1.49-24.57S579.07,762.37,579.82,762.53Z"/>
  <path d="M607.85,770.05s-7.25-16,5.63-21.46,19.16,6.58,20.42,10.48c.77,2.45,4.42,11,4,18.11a12.94,12.94,0,0,1-.8,4,9.16,9.16,0,0,1-5.93,5.49,11.25,11.25,0,0,1-4.65.51C615.86,786.22,607.31,771.14,607.85,770.05Z"/>
  <path d="M651.28,757.43s-10.51,3.63-8.49,17a39.56,39.56,0,0,0,.86,4c1.26,8.13,7,18,17.72,15.06,4.82-1.15,7.69-5.68,8.7-9.9a15,15,0,0,0,.41-3.8,21.9,21.9,0,0,0-2.43-9.43C661.18,756.05,655.54,755.56,651.28,757.43Z"/>
  <path d="M617,802s-11.44,5-15.7,24.87a51.11,51.11,0,0,1-2.36,8.06,26.42,26.42,0,0,1-1.33,2.8c-1.58,2.1-10.89,19.11-4.91,25.07.61.59,1.29,1.21,2,1.82,12.05,9.91,26.51-4.38,25.36-3.47s18-16.32,20.13-16,28.42-10.83,28-11.72c-.08-.15-.6.57-.37.39,1.59-1.3,10.44-5.18,12-20.62.56-5.29-2.22-8.08-6.25-9.46a21.14,21.14,0,0,0-4.37-1c-5.81-.7-17.71.26-17.71.26-4.51-4.39-11.45-5.16-18.59-5.6-.84,0-1.68,0-2.54.07C625.28,797.8,620.37,799.09,617,802Z"/>
  <path d="M779.65,457.1s6.09-17.91,18.33-11.93,7,20.62,6.42,21.14-5.69,15.73-15,14.25a10.82,10.82,0,0,1-4.28-1.76c-4.56-2.6-7.94-7.06-8.15-11.41a12.11,12.11,0,0,1,.2-2.69A42.9,42.9,0,0,1,779.65,457.1Z"/>
  <path d="M838.05,441.86s-13.48-8.45-24.08,12,2.76,24.53,2.64,24.16,8.22,8.27,22.07-10.9S837.81,441.13,838.05,441.86Z"/>
  <path d="M845.43,469.93s10.34-14.27,21.42-5.77,3.81,19.9,1,22.93c-1.73,1.88-7.36,9.3-13.74,12.45a13.51,13.51,0,0,1-3.89,1.3,9.22,9.22,0,0,1-7.71-2.42,11.17,11.17,0,0,1-2.74-3.79C835.37,484.91,844.22,470,845.43,469.93Z"/>
  <path d="M878,501.36s-8.37-7.32-19,1.07c-1,.79-2,1.68-3,2.71-6.43,5.13-12.16,15-4.28,22.86,3.39,3.61,8.75,3.85,12.91,2.63a15,15,0,0,0,3.5-1.52,21.81,21.81,0,0,0,7-6.8C884.06,509.27,881.69,504.13,878,501.36Z"/>
  <path d="M822.22,493.69s-10.06-7.42-29.38-1.28a50,50,0,0,1-8.18,1.95,25.61,25.61,0,0,1-3.09.24c-2.6-.33-22,0-24.2,8.18q-.32,1.25-.57,2.67c-2.62,15.38,17,20.84,15.61,20.29s23.07,7.47,23.89,9.52,23.52,19.3,24.06,18.44c.09-.15-.79-.23-.52-.13,1.91.74,9.68,6.49,23.87.21,4.86-2.14,5.91-5.94,5.1-10.13a21.33,21.33,0,0,0-1.34-4.26c-2.27-5.39-9-15.24-9-15.24,1.57-6.09-1.2-12.51-4.37-18.92-.4-.73-.84-1.45-1.32-2.17C830,498.84,826.44,495.21,822.22,493.69Z"/>
  <path d="M1157.5,595.05S1151.41,613,1139.17,607s-7-20.62-6.42-21.14,5.68-15.74,15-14.25a10.88,10.88,0,0,1,4.28,1.76c4.56,2.6,7.94,7.06,8.15,11.41a12.11,12.11,0,0,1-.2,2.69A42.9,42.9,0,0,1,1157.5,595.05Z"/>
  <path d="M1099.1,610.29s13.48,8.45,24.08-12-2.76-24.53-2.64-24.16-8.22-8.27-22.07,10.9S1099.34,611,1099.1,610.29Z"/>
  <path d="M1091.72,582.22s-10.34,14.27-21.42,5.77-3.81-19.9-1-22.93c1.73-1.88,7.36-9.3,13.74-12.45a13.51,13.51,0,0,1,3.89-1.3,9.22,9.22,0,0,1,7.71,2.42,11.31,11.31,0,0,1,2.74,3.79C1101.78,567.24,1092.93,582.15,1091.72,582.22Z"/>
  <path d="M1059.2,550.79s8.37,7.32,19-1.07c1-.79,2-1.68,3-2.71,6.43-5.13,12.16-15,4.28-22.86-3.39-3.61-8.75-3.85-12.91-2.63A15.23,15.23,0,0,0,1069,523a21.89,21.89,0,0,0-7,6.8C1053.09,542.88,1055.46,548,1059.2,550.79Z"/>
  <path d="M1114.93,558.46s10.06,7.42,29.38,1.28a50,50,0,0,1,8.18-2,23.7,23.7,0,0,1,3.08-.24c2.61.33,22,0,24.21-8.18q.32-1.25.57-2.67c2.62-15.38-17-20.84-15.61-20.29s-23.07-7.47-23.9-9.52-23.51-19.3-24-18.44c-.09.15.79.23.52.13-1.91-.74-9.68-6.49-23.87-.21-4.86,2.14-5.91,5.94-5.1,10.12a21.22,21.22,0,0,0,1.34,4.27c2.27,5.39,9,15.24,9,15.24-1.57,6.09,1.2,12.51,4.36,18.92.41.73.85,1.45,1.33,2.17C1107.15,553.31,1110.71,556.93,1114.93,558.46Z"/>
  <path d="M853.28,974s3.26,18.64-10.35,19.27-16.07-14.71-15.79-15.45-2.56-16.54,6.37-19.73a11,11,0,0,1,4.6-.52c5.24.1,10.34,2.38,12.62,6.1a12.4,12.4,0,0,1,1.12,2.46A43.76,43.76,0,0,1,853.28,974Z"/>
  <path d="M809.38,1015.46s15.88.94,15.33-22.13-14.2-20.19-13.92-19.92-11.18-3.31-14.12,20.17S809.94,1016,809.38,1015.46Z"/>
  <path d="M789.42,994.39s-2.21,17.48-16,15.35-12.89-15.63-11.92-19.61c.62-2.49,2-11.7,6.07-17.52a12.76,12.76,0,0,1,2.79-3,9.18,9.18,0,0,1,7.92-1.58,11.2,11.2,0,0,1,4.23,2C791.05,976.42,790.45,993.75,789.42,994.39Z"/>
  <path d="M745.8,982.44s10.86,2.4,16.13-10.05c.47-1.16.91-2.42,1.33-3.82,3.18-7.59,3.48-19-7.23-22.1-4.7-1.55-9.53.82-12.59,3.89a15.65,15.65,0,0,0-2.34,3,21.92,21.92,0,0,0-2.86,9.32C736.64,978.44,741.2,981.81,745.8,982.44Z"/>
  <path d="M798.37,962.4s12.39,1.68,26.38-13a50.22,50.22,0,0,1,6.24-5.64,24.56,24.56,0,0,1,2.59-1.69c2.45-1,19.28-10.6,17.3-18.8-.22-.83-.47-1.7-.78-2.62-5.09-14.74-24.89-10.12-23.44-10.3s-23.83,4.53-25.53,3.13-29.89-5.63-30-4.62c0,.17.8-.18.52-.14-2,.28-11.61-1-21,11.29-3.24,4.21-2.33,8,.38,11.33a21.66,21.66,0,0,0,3.23,3.09c4.58,3.63,15.23,9,15.23,9,1.55,6.1,7.06,10.39,12.92,14.49.71.45,1.44.87,2.2,1.27C789.07,961.62,793.93,963.09,798.37,962.4Z"/>
  <path d="M967.74,946.89s-18.86,1.47-18.2-12.13,16.17-14.6,16.88-14.25,16.7-1,19,8.2a10.62,10.62,0,0,1,.08,4.63c-.58,5.21-3.35,10.08-7.26,12a12.22,12.22,0,0,1-2.55.88A44.42,44.42,0,0,1,967.74,946.89Z"/>
  <path d="M930.67,899.26s-2.44,15.72,20.57,17.36,21.45-12.22,21.15-12,4.36-10.81-18.73-16S930.09,899.77,930.67,899.26Z"/>
  <path d="M953.54,881.39s-17.19-3.86-13.77-17.4,16.78-11.36,20.66-10c2.41.86,11.45,3.09,16.86,7.71a13.14,13.14,0,0,1,2.73,3.06,9.22,9.22,0,0,1,.83,8,11.36,11.36,0,0,1-2.4,4C971.27,884.71,954.08,882.48,953.54,881.39Z"/>
  <path d="M969.57,839.09s-3.42,10.59,8.47,17c1.11.58,2.32,1.14,3.68,1.69,7.25,3.88,18.54,5.26,22.68-5.1,2-4.54.09-9.56-2.67-12.9a15.26,15.26,0,0,0-2.79-2.62,21.89,21.89,0,0,0-9-3.73C974.42,830.36,970.63,834.57,969.57,839.09Z"/>
  <path d="M984.54,893.33S981.69,905.5,995,920.82a51.48,51.48,0,0,1,5,6.74,26.4,26.4,0,0,1,1.44,2.75c.72,2.52,8.72,20.19,17.07,19,.85-.14,1.74-.31,2.68-.53,15.16-3.67,12.44-23.82,12.48-22.35s-2.25-24.16-.7-25.72,8.44-29.22,7.44-29.38c-.17,0,.1.82.09.53-.08-2.05,2.14-11.46-9.24-22-3.89-3.63-7.79-3.08-11.32-.69a21.65,21.65,0,0,0-3.39,2.91c-4,4.22-10.43,14.31-10.43,14.31-6.22,1-11,6-15.66,11.49q-.76,1-1.47,2.07C986.19,884.15,984.27,888.85,984.54,893.33Z"/>
  <path d="M283.42,779.57s13,13.77,2,21.78-21.52-3.43-21.69-4.2-11.24-12.39-5.55-20a10.67,10.67,0,0,1,3.56-3c4.42-2.81,10-3.71,13.89-1.86a12.56,12.56,0,0,1,2.29,1.43A44.27,44.27,0,0,1,283.42,779.57Z"/>
  <path d="M269.57,838.32s13.77-8,.62-26.91-23-9-22.59-9-11.15,3.39-.68,24.6S270.33,838.45,269.57,838.32Z"/>
  <path d="M241.31,831.71s7.77,15.81-4.93,21.64-19.36-6-20.75-9.81c-.85-2.42-4.77-10.86-4.57-18a13.17,13.17,0,0,1,.67-4.05,9.22,9.22,0,0,1,5.74-5.68,11.16,11.16,0,0,1,4.64-.65C232.78,815.82,241.82,830.61,241.31,831.71Z"/>
  <path d="M198.31,845.75s10.39-4,7.94-17.27c-.25-1.22-.57-2.52-1-3.92-1.52-8.08-7.53-17.74-18.2-14.47-4.77,1.3-7.5,5.93-8.37,10.18a15.16,15.16,0,0,0-.29,3.8,22,22,0,0,0,2.74,9.36C188.47,847.45,194.12,847.76,198.31,845.75Z"/>
  <path d="M231.17,800.08s11.26-5.41,14.87-25.37a52.26,52.26,0,0,1,2.1-8.14,26.74,26.74,0,0,1,1.24-2.84c1.51-2.15,10.26-19.45,4.09-25.21-.64-.58-1.33-1.17-2.09-1.76C239,727.25,225,742,226.14,741.06s-17.4,16.9-19.59,16.67S178.5,769.48,179,770.36c.09.15.57-.59.36-.4-1.55,1.35-10.27,5.52-11.35,21-.39,5.3,2.48,8,6.56,9.25A21.49,21.49,0,0,0,179,801c5.83.51,17.69-.84,17.69-.84,4.65,4.24,11.62,4.79,18.77,5,.83,0,1.67-.07,2.53-.16C223,804.55,227.85,803.1,231.17,800.08Z"/>
  <path d="M555.49,346.21s7.56,17.35-5.51,21.17-19.09-10.51-19-11.3-6.4-15.46,1.53-20.67a10.92,10.92,0,0,1,4.35-1.59c5.11-1.14,10.61-.12,13.71,2.95a12.62,12.62,0,0,1,1.66,2.12A43.41,43.41,0,0,1,555.49,346.21Z"/>
  <path d="M522.59,396.82s15.66-2.84,9.69-25.12-18.56-16.28-18.23-16.08-11.64-.58-9,22.93S523.27,397.19,522.59,396.82Z"/>
  <path d="M498.23,381s2,17.51-12,18.7-16.21-12.15-16.21-16.24c0-2.57-.83-11.84,1.77-18.46a13,13,0,0,1,2-3.58,9.19,9.19,0,0,1,7.32-3.41,11.24,11.24,0,0,1,4.59.95C495.57,363.2,499.08,380.18,498.23,381Z"/>
  <path d="M453,379.72s11.12-.23,13.3-13.57a38.29,38.29,0,0,0,.39-4c1.3-8.12-1.08-19.24-12.23-19.77-4.94-.39-9.06,3-11.32,6.75a15.22,15.22,0,0,0-1.56,3.49,22,22,0,0,0-.59,9.73C443.18,378,448.4,380.19,453,379.72Z"/>
  <path d="M499.38,347.85S511.81,346.56,522,329a51.74,51.74,0,0,1,4.73-6.95,27.88,27.88,0,0,1,2.12-2.25C531,318.29,545,305,541.18,297.45c-.4-.76-.86-1.55-1.38-2.36-8.42-13.13-26.57-4-25.2-4.48s-22.09,10-24.07,9.06-30.38,1.58-30.2,2.57c0,.17.74-.36.47-.25-1.91.74-11.52,1.72-17.78,15.93-2.15,4.85-.37,8.36,3.05,10.92a21.57,21.57,0,0,0,3.86,2.24c5.31,2.45,16.93,5.19,16.93,5.19,2.95,5.56,9.32,8.43,16,11,.8.27,1.61.5,2.45.71C490.16,349.28,495.23,349.56,499.38,347.85Z"/>
  <path d="M499.86,628.5s-18.79,2.19-18.64-11.42,15.6-15.21,16.33-14.89,16.65-1.62,19.33,7.48a10.79,10.79,0,0,1,.25,4.62c-.39,5.23-3,10.2-6.8,12.26a13.56,13.56,0,0,1-2.52,1A43.7,43.7,0,0,1,499.86,628.5Z"/>
  <path d="M461,582.31s-1.84,15.8,21.21,16.57,21-13,20.69-12.76,3.94-11-19.33-15.24S460.46,582.84,461,582.31Z"/>
  <path d="M483.2,563.59s-17.33-3.21-14.42-16.87,16.34-12,20.26-10.79c2.45.76,11.57,2.66,17.15,7.07a13.2,13.2,0,0,1,2.84,3,9.2,9.2,0,0,1,1.13,8,11.13,11.13,0,0,1-2.25,4.11C501,566.24,483.77,564.65,483.2,563.59Z"/>
  <path d="M497.61,520.72s-3,10.71,9.12,16.68c1.12.53,2.36,1,3.74,1.54,7.39,3.61,18.72,4.56,22.47-6,1.81-4.61-.27-9.56-3.16-12.8a15.69,15.69,0,0,0-2.88-2.5,21.8,21.8,0,0,0-9.14-3.39C502.13,511.81,498.51,516.16,497.61,520.72Z"/>
  <path d="M514.62,574.35s-2.38,12.27,11.46,27.08a50.91,50.91,0,0,1,5.28,6.54,28.06,28.06,0,0,1,1.54,2.69c.82,2.5,9.47,19.85,17.78,18.34.84-.16,1.73-.37,2.66-.63,15-4.24,11.53-24.27,11.62-22.81s-3.16-24-1.67-25.66,7.33-29.52,6.32-29.65c-.17,0,.14.82.11.53-.16-2,1.71-11.53-10.06-21.65-4-3.47-7.9-2.78-11.34-.26a21.53,21.53,0,0,0-3.27,3c-3.89,4.37-9.89,14.69-9.89,14.69-6.18,1.2-10.78,6.46-15.21,12.07-.49.68-1,1.39-1.39,2.13C515.93,565.11,514.19,569.88,514.62,574.35Z"/>
  <path d="M149.71,1127.13s1.53-18.86,14.85-16.06,11.86,18.28,11.4,18.93-1.66,16.65-11.11,17.49a10.84,10.84,0,0,1-4.58-.65c-5.05-1.41-9.42-4.9-10.69-9.07a12.68,12.68,0,0,1-.47-2.66A42.79,42.79,0,0,1,149.71,1127.13Z"/>
  <path d="M202.6,1098.06s-15.14-4.89-20.4,17.57,8.68,23.11,8.47,22.78,10,6,18.73-16S202.19,1097.41,202.6,1098.06Z"/>
  <path d="M216.63,1123.47s6.53-16.36,19.36-10.84,8.55,18.37,6.62,22c-1.23,2.25-4.86,10.82-10.28,15.43a13,13,0,0,1-3.45,2.21,9.17,9.17,0,0,1-8.07-.46,11.18,11.18,0,0,1-3.59-3C210.54,1140.45,215.47,1123.83,216.63,1123.47Z"/>
  <path d="M255.85,1146s-9.91-5-18.13,5.67c-.75,1-1.49,2.12-2.25,3.37-5,6.54-8.13,17.48,1.45,23.21,4.16,2.67,9.43,1.59,13.16-.61a15.38,15.38,0,0,0,3-2.33,21.86,21.86,0,0,0,5.11-8.3C263.71,1152.16,260.15,1147.75,255.85,1146Z"/>
  <path d="M199.93,1152.19s-11.56-4.74-28.79,6a51.87,51.87,0,0,1-7.45,3.89,26.6,26.6,0,0,1-2.94,1c-2.61.32-21.32,5.42-21.46,13.86,0,.85,0,1.76.1,2.73,1.22,15.55,21.54,16.05,20.09,15.85s24.21,1.6,25.5,3.38,27.52,13,27.84,12c.05-.17-.83,0-.54,0,2,.24,11,3.92,23.19-5.64,4.2-3.27,4.28-7.2,2.48-11.07a22,22,0,0,0-2.34-3.8c-3.53-4.67-12.48-12.57-12.48-12.57,0-6.29-4.23-11.83-8.86-17.28-.58-.61-1.18-1.2-1.82-1.77C208.74,1155.28,204.4,1152.63,199.93,1152.19Z"/>
  <path d="M121.38,326.22s13.47-13.28,21.73-2.45-3,21.58-3.73,21.77-12.14,11.52-19.84,6a10.61,10.61,0,0,1-3-3.49c-2.91-4.36-3.93-9.86-2.17-13.85a12.35,12.35,0,0,1,1.38-2.32A43.84,43.84,0,0,1,121.38,326.22Z"/>
  <path d="M180.41,338.77s-8.26-13.6-26.92,0S145,361.9,145,361.52s3.64,11.08,24.61.14S180.53,338,180.41,338.77Z"/>
  <path d="M174.43,367.17s15.64-8.12,21.74,4.44-5.52,19.49-9.34,21c-2.4.91-10.75,5-17.87,5a13,13,0,0,1-4.06-.58,9.18,9.18,0,0,1-5.8-5.61,11.05,11.05,0,0,1-.76-4.63C158.73,376.05,173.32,366.68,174.43,367.17Z"/>
  <path d="M189.42,409.84s-4.21-10.3-17.44-7.55c-1.22.27-2.51.63-3.9,1.08-8,1.7-17.57,7.92-14.06,18.52,1.41,4.74,6.09,7.36,10.36,8.14a15.79,15.79,0,0,0,3.81.21,22,22,0,0,0,9.29-2.95C191.34,419.65,191.52,414,189.42,409.84Z"/>
  <path d="M143,378s-5.66-11.14-25.69-14.31a49.5,49.5,0,0,1-8.18-1.92,25.81,25.81,0,0,1-2.87-1.17c-2.18-1.47-19.68-9.83-25.3-3.53-.56.65-1.13,1.35-1.71,2.13-9.23,12.57,5.83,26.23,4.86,25.13s17.28,17,17.1,19.22,12.37,27.79,13.24,27.27c.14-.09-.61-.56-.41-.35,1.38,1.51,5.75,10.14,21.25,10.88,5.31.27,7.94-2.66,9.1-6.76a21.85,21.85,0,0,0,.71-4.41c.38-5.84-1.23-17.67-1.23-17.67,4.13-4.74,4.52-11.72,4.57-18.87,0-.84-.11-1.68-.21-2.53C147.68,386.09,146.12,381.26,143,378Z"/>
  <path d="M607.65,1038.94c-21.35-4.77-43-8.15-63.73-14.62a33.89,33.89,0,0,1-16.55-54.12,32.56,32.56,0,0,1,36.92-9.46l5.29,2.73a120.8,120.8,0,0,1,12.47-20.58,32.36,32.36,0,0,1,40.36-4.18,35.41,35.41,0,0,1,13.72,39.51,394.37,394.37,0,0,1-17.83,37.5C614.9,1022.91,611.46,1030.79,607.65,1038.94Z" style="fill:#f94331"/>
  <path d="M726.22,1088.77c17.15,13.59,35.19,26.07,51,40.9a33.9,33.9,0,0,1-8.64,55.93,32.58,32.58,0,0,1-37.36-7.55l-3.58-4.75a120.36,120.36,0,0,1-20.17,13.1,32.38,32.38,0,0,1-38.17-13.78,35.42,35.42,0,0,1,4.83-41.55,392.23,392.23,0,0,1,32.37-26C712.72,1100.06,719.24,1094.46,726.22,1088.77Z" style="fill:#f94331"/>
  <path d="M438.44,685.43c9.57,19.68,20.42,38.75,28.26,59a33.88,33.88,0,0,1-32,46.65,32.57,32.57,0,0,1-30.4-23l-1.17-5.84a119.85,119.85,0,0,1-23.86,3.07,32.37,32.37,0,0,1-28.41-29A35.4,35.4,0,0,1,373.2,701a395,395,0,0,1,40.44-9.4C421.39,689.75,429.69,687.53,438.44,685.43Z" style="fill:#f94331"/>
  <path d="M368.72,417.71c-7.42,20.58-13.51,41.66-22.53,61.39a33.88,33.88,0,0,1-55.77,9.61,32.58,32.58,0,0,1-4.74-37.82l3.37-4.91a120.17,120.17,0,0,1-18.84-15,32.37,32.37,0,0,1,.92-40.57,35.41,35.41,0,0,1,40.93-8.64A393.32,393.32,0,0,1,347,404.23C353.73,408.5,361.11,412.9,368.72,417.71Z" style="fill:#f94331"/>
  <path d="M246.61,966.16c-5.51,21.17-9.66,42.71-16.85,63.18A33.89,33.89,0,0,1,175.1,1044a32.57,32.57,0,0,1-8.16-37.23l2.91-5.19a121.09,121.09,0,0,1-20.13-13.18A32.39,32.39,0,0,1,147,947.9a35.43,35.43,0,0,1,40-12.33,389.52,389.52,0,0,1,36.84,19.14C230.85,958.35,238.6,962.06,246.61,966.16Z" style="fill:#f94331"/>
  <path d="M730.83,690.2c-21.69-2.84-43.58-4.26-64.79-8.84a33.89,33.89,0,0,1-21.34-52.42,32.57,32.57,0,0,1,35.93-12.73l5.51,2.24a120.2,120.2,0,0,1,10.57-21.62A32.37,32.37,0,0,1,736.53,589a35.4,35.4,0,0,1,17.21,38.12,393.42,393.42,0,0,1-14.39,39C736.61,673.58,733.9,681.74,730.83,690.2Z" style="fill:#f94331"/>
  <path d="M996,332.78c17.39,13.27,35.66,25.41,51.77,40a33.9,33.9,0,0,1-7.62,56.08,32.57,32.57,0,0,1-37.49-6.86L999,417.26a120.41,120.41,0,0,1-19.93,13.47,32.37,32.37,0,0,1-38.41-13.09A35.42,35.42,0,0,1,944.75,376a393,393,0,0,1,31.89-26.59C982.74,344.3,989.16,338.59,996,332.78Z" style="fill:#f94331"/>
  <path d="M1074,781.86c6.21-21,11.06-42.37,18.92-62.6a33.9,33.9,0,0,1,55.12-12.84,32.58,32.58,0,0,1,6.92,37.49l-3.07,5.09a120.78,120.78,0,0,1,19.68,13.83,32.39,32.39,0,0,1,1.44,40.56,35.43,35.43,0,0,1-40.36,11,393,393,0,0,1-36.2-20.35C1089.52,790.18,1081.9,786.21,1074,781.86Z" style="fill:#f94331"/>
  <path d="M1098.06,1216.22c-17.32-13.36-35.52-25.61-51.54-40.24a33.9,33.9,0,0,1,7.92-56,32.57,32.57,0,0,1,37.46,7.07l3.64,4.71a119.76,119.76,0,0,1,20-13.36,32.38,32.38,0,0,1,38.34,13.29,35.43,35.43,0,0,1-4.3,41.61,393.08,393.08,0,0,1-32,26.42C1111.42,1204.77,1105,1210.45,1098.06,1216.22Z" style="fill:#f94331"/>
  <path d="M641.88,305.82c-6.64-20.85-14.63-41.28-19.48-62.43a33.9,33.9,0,0,1,38.41-41.56A32.58,32.58,0,0,1,687.58,229l.31,5.94a120.15,120.15,0,0,1,24.06.4,32.38,32.38,0,0,1,23.95,32.75,35.42,35.42,0,0,1-27.22,31.77,392.43,392.43,0,0,1-41.38,3.48C659.38,304,650.84,305,641.88,305.82Z" style="fill:#f94331"/>
  <path d="M387,152.78c17.39,13.27,35.66,25.41,51.77,39.95a33.9,33.9,0,0,1-7.62,56.08A32.57,32.57,0,0,1,393.69,242L390,237.26a120.41,120.41,0,0,1-19.93,13.47,32.37,32.37,0,0,1-38.41-13.09A35.42,35.42,0,0,1,335.75,196a393,393,0,0,1,31.89-26.59C373.74,164.3,380.16,158.59,387,152.78Z" style="fill:#f94331"/>
  <path d="M951.66,168.44c14.63-16.27,28.2-33.5,44-48.38a33.91,33.91,0,0,1,55.29,12.11,32.58,32.58,0,0,1-9.87,36.82l-5,3.27a120.28,120.28,0,0,1,11.82,21,32.37,32.37,0,0,1-16.14,37.23A35.4,35.4,0,0,1,990.62,223a392.42,392.42,0,0,1-23.93-33.92C962.08,182.62,956.9,175.76,951.66,168.44Z" style="fill:#f94331"/>
  <path d="M640.31,491.66c-6,4.35-8.86,9.52-8,16.28.85,6.61,5,10.65,11,13.06,7,2.82,13.61,1.7,20.16-1.68a7.45,7.45,0,0,1,5.29-.55c6.39,2.23,12.5,1.46,18.47-1.11,6.84-2.94,11.2-11.32,9.88-18.42s-7.71-12.53-16.2-14.16c-1.7-.33-4-1.79-4.5-3.26a116.33,116.33,0,0,1-4-15.42,153.08,153.08,0,0,1-.85-53.58c.57-3.59,1.63-5.59,5-7.5,5.37-3,8.76-8,8.6-14.74a15.12,15.12,0,0,0-8.83-14c-7.18-3.65-14.28-3.76-21.41.42a7.19,7.19,0,0,1-5.24.76,22.31,22.31,0,0,0-17,.63c-7.16,3.15-11.65,9.56-11.4,17.09a15.86,15.86,0,0,0,12,14.35c4.41,1.11,5.77,3.83,6.88,7.46,6.23,20.42,8.9,41.21,6.62,62.53C646.24,484.94,646.43,490.53,640.31,491.66Z" style="fill:#fff"/>
  <path d="M640.31,491.66c6.12-1.13,5.93-6.72,6.48-11.82,2.28-21.32-.39-42.11-6.62-62.53-1.11-3.63-2.47-6.35-6.88-7.46a15.86,15.86,0,0,1-12-14.35c-.25-7.53,4.24-13.94,11.4-17.09a22.31,22.31,0,0,1,17-.63A7.19,7.19,0,0,0,655,377c7.13-4.18,14.23-4.07,21.41-.42a15.12,15.12,0,0,1,8.83,14c.16,6.7-3.23,11.72-8.6,14.74-3.41,1.91-4.47,3.91-5,7.5a153.08,153.08,0,0,0,.85,53.58,116.33,116.33,0,0,0,4,15.42c.5,1.47,2.8,2.93,4.5,3.26,8.49,1.63,14.87,7,16.2,14.16s-3,15.48-9.88,18.42c-6,2.57-12.08,3.34-18.47,1.11a7.45,7.45,0,0,0-5.29.55c-6.55,3.38-13.16,4.5-20.16,1.68-6-2.41-10.11-6.45-11-13.06C631.45,501.18,634.32,496,640.31,491.66Z"/>
  <path d="M782.11,795.05c-7.21,1.69-11.85,5.35-13.67,11.92s.48,11.76,5,16.29c5.36,5.31,11.89,6.85,19.23,6.26a7.52,7.52,0,0,1,5.1,1.54c5,4.53,10.95,6.2,17.45,6.15,7.44-.07,14.71-6.1,16.25-13.16s-2.26-14.54-9.45-19.33c-1.44-1-3-3.21-2.89-4.75a115.15,115.15,0,0,1,2.31-15.76,153.16,153.16,0,0,1,20-49.73c1.92-3.08,3.67-4.51,7.55-5,6.13-.7,11.19-4,13.64-10.25A15.11,15.11,0,0,0,859.92,703c-5.19-6.15-11.7-9-19.9-7.91a7.15,7.15,0,0,1-5.12-1.33,22.32,22.32,0,0,0-15.89-6c-7.83.12-14.45,4.3-17.13,11.34a15.85,15.85,0,0,0,5.46,17.86c3.64,2.73,3.84,5.76,3.45,9.54-2.17,21.24-7.77,41.45-18.13,60.21C790.18,791.16,788.19,796.39,782.11,795.05Z" style="fill:#fff"/>
  <path d="M782.11,795.05c6.08,1.34,8.07-3.89,10.55-8.38,10.36-18.76,16-39,18.13-60.21.39-3.78.19-6.81-3.45-9.54a15.85,15.85,0,0,1-5.46-17.86c2.68-7,9.3-11.22,17.13-11.34a22.32,22.32,0,0,1,15.89,6,7.15,7.15,0,0,0,5.12,1.33c8.2-1.1,14.71,1.76,19.9,7.91a15.11,15.11,0,0,1,2.73,16.31c-2.45,6.23-7.51,9.55-13.64,10.25-3.88.45-5.63,1.88-7.55,5a153.16,153.16,0,0,0-20,49.73A115.15,115.15,0,0,0,819.18,800c-.11,1.54,1.45,3.79,2.89,4.75,7.19,4.79,11,12.22,9.45,19.33s-8.81,13.09-16.25,13.16c-6.5,0-12.43-1.62-17.45-6.15a7.52,7.52,0,0,0-5.1-1.54c-7.34.59-13.87-.95-19.23-6.26-4.57-4.53-6.82-9.86-5-16.29S774.9,796.74,782.11,795.05Z"/>
  <path d="M948.59,683.87c-6.16,4.1-9.23,9.16-8.63,16,.58,6.63,4.56,10.84,10.43,13.49,6.88,3.09,13.53,2.25,20.2-.87a7.49,7.49,0,0,1,5.32-.34c6.29,2.49,12.43,2,18.5-.35,6.94-2.67,11.65-10.87,10.61-18s-7.2-12.83-15.61-14.81c-1.69-.4-3.93-1.95-4.37-3.43a114.62,114.62,0,0,1-3.36-15.58,153.27,153.27,0,0,1,1.3-53.56c.72-3.57,1.86-5.52,5.34-7.3,5.5-2.8,9.08-7.68,9.19-14.38a15.12,15.12,0,0,0-8.26-14.32c-7-3.94-14.12-4.34-21.41-.44a7.16,7.16,0,0,1-5.27.54,22.32,22.32,0,0,0-17-.05c-7.28,2.85-12,9.08-12.07,16.61a15.85,15.85,0,0,0,11.36,14.82c4.37,1.29,5.62,4.06,6.58,7.73,5.4,20.66,7.23,41.55,4.09,62.75C954.79,677.4,954.76,683,948.59,683.87Z" style="fill:#fff"/>
  <path d="M948.59,683.87c6.17-.88,6.2-6.47,6.95-11.55,3.14-21.2,1.31-42.09-4.09-62.75-1-3.67-2.21-6.44-6.58-7.73A15.85,15.85,0,0,1,933.51,587c0-7.53,4.79-13.76,12.07-16.61a22.32,22.32,0,0,1,17,.05,7.16,7.16,0,0,0,5.27-.54c7.29-3.9,14.38-3.5,21.41.44a15.12,15.12,0,0,1,8.26,14.32c-.11,6.7-3.69,11.58-9.19,14.38-3.48,1.78-4.62,3.73-5.34,7.3a153.27,153.27,0,0,0-1.3,53.56A114.62,114.62,0,0,0,985,675.5c.44,1.48,2.68,3,4.37,3.43,8.41,2,14.57,7.6,15.61,14.81s-3.67,15.34-10.61,18c-6.07,2.32-12.21,2.84-18.5.35a7.49,7.49,0,0,0-5.32.34c-6.67,3.12-13.32,4-20.2.87-5.87-2.65-9.85-6.86-10.43-13.49C939.36,693,942.43,688,948.59,683.87Z"/>
  <path d="M1105.83,1014.55c-7,2.46-11.2,6.6-12.29,13.33-1.07,6.58,1.75,11.64,6.79,15.64,5.91,4.7,12.56,5.51,19.79,4.14a7.47,7.47,0,0,1,5.24,1c5.48,3.95,11.57,5,18,4.2,7.39-.87,14-7.66,14.72-14.84s-3.82-14.21-11.49-18.19c-1.54-.8-3.33-2.86-3.39-4.4a114.56,114.56,0,0,1,.58-15.93,153.33,153.33,0,0,1,14.44-51.6c1.57-3.27,3.16-4.89,7-5.75,6-1.36,10.69-5.21,12.45-11.68a15.11,15.11,0,0,0-4.49-15.91c-5.83-5.55-12.61-7.68-20.64-5.7a7.15,7.15,0,0,1-5.23-.77,22.4,22.4,0,0,0-16.46-4.24c-7.76,1-13.89,5.85-15.79,13.14a15.84,15.84,0,0,0,7.36,17.16c3.92,2.32,4.45,5.31,4.47,9.11.16,21.35-3.21,42-11.47,61.83C1113.44,1009.8,1112,1015.21,1105.83,1014.55Z" style="fill:#fff"/>
  <path d="M1105.83,1014.55c6.19.66,7.61-4.75,9.58-9.48,8.26-19.78,11.63-40.48,11.47-61.83,0-3.8-.55-6.79-4.47-9.11a15.84,15.84,0,0,1-7.36-17.16c1.9-7.29,8-12.16,15.79-13.14a22.4,22.4,0,0,1,16.46,4.24,7.15,7.15,0,0,0,5.23.77c8-2,14.81.15,20.64,5.7a15.11,15.11,0,0,1,4.49,15.91c-1.76,6.47-6.43,10.32-12.45,11.68-3.81.86-5.4,2.48-7,5.75a153.33,153.33,0,0,0-14.44,51.6,114.56,114.56,0,0,0-.58,15.93c.06,1.54,1.85,3.6,3.39,4.4,7.67,4,12.25,11,11.49,18.19s-7.33,14-14.72,14.84c-6.45.77-12.54-.25-18-4.2a7.47,7.47,0,0,0-5.24-1c-7.23,1.37-13.88.56-19.79-4.14-5-4-7.86-9.06-6.79-15.64C1094.63,1021.15,1098.85,1017,1105.83,1014.55Z"/>
  <path d="M884.06,1125.76c-7.31,1.21-12.19,4.56-14.43,11s-.29,11.76,4,16.59c5,5.65,11.41,7.61,18.77,7.51a7.5,7.5,0,0,1,5,1.87c4.71,4.85,10.53,6.91,17,7.28,7.43.42,15.08-5.12,17.08-12.06s-1.3-14.66-8.16-19.92c-1.37-1-2.78-3.39-2.57-4.92a117.1,117.1,0,0,1,3.34-15.58,153.22,153.22,0,0,1,23.19-48.3c2.12-3,4-4.27,7.87-4.46,6.16-.29,11.43-3.27,14.28-9.33a15.1,15.1,0,0,0-1.65-16.45c-4.78-6.48-11.09-9.76-19.33-9.21a7.16,7.16,0,0,1-5-1.66,22.32,22.32,0,0,0-15.46-7c-7.82-.39-14.7,3.34-17.84,10.18a15.86,15.86,0,0,0,4.27,18.19c3.46,3,3.45,6,2.82,9.74-3.56,21.06-10.47,40.85-22,58.9C892.37,1122.41,890,1127.49,884.06,1125.76Z" style="fill:#fff"/>
  <path d="M884.06,1125.76c6,1.73,8.31-3.35,11.08-7.67,11.57-18,18.48-37.84,22-58.9.63-3.74.64-6.77-2.82-9.74a15.86,15.86,0,0,1-4.27-18.19c3.14-6.84,10-10.57,17.84-10.18a22.32,22.32,0,0,1,15.46,7,7.16,7.16,0,0,0,5,1.66c8.24-.55,14.55,2.73,19.33,9.21a15.1,15.1,0,0,1,1.65,16.45c-2.85,6.06-8.12,9-14.28,9.33-3.9.19-5.75,1.5-7.87,4.46a153.22,153.22,0,0,0-23.19,48.3,117.1,117.1,0,0,0-3.34,15.58c-.21,1.53,1.2,3.87,2.57,4.92,6.86,5.26,10.17,12.92,8.16,19.92s-9.65,12.48-17.08,12.06c-6.48-.37-12.3-2.43-17-7.28a7.5,7.5,0,0,0-5-1.87c-7.36.1-13.77-1.86-18.77-7.51-4.26-4.83-6.16-10.3-4-16.59S876.75,1127,884.06,1125.76Z"/>
  <path d="M357.06,945.76c-7.31,1.21-12.19,4.56-14.43,11s-.29,11.76,4,16.59c5,5.65,11.41,7.61,18.77,7.51a7.5,7.5,0,0,1,5,1.87c4.71,4.85,10.53,6.91,17,7.28,7.43.42,15.08-5.12,17.08-12.06s-1.3-14.66-8.16-19.92c-1.37-1-2.78-3.39-2.57-4.92a117.1,117.1,0,0,1,3.34-15.58,153.22,153.22,0,0,1,23.19-48.3c2.12-3,4-4.27,7.87-4.46,6.16-.29,11.43-3.27,14.28-9.33A15.1,15.1,0,0,0,440.75,859c-4.78-6.48-11.09-9.76-19.33-9.21a7.16,7.16,0,0,1-5-1.66,22.32,22.32,0,0,0-15.46-7c-7.82-.39-14.7,3.34-17.84,10.18a15.86,15.86,0,0,0,4.27,18.19c3.46,3,3.45,6,2.82,9.74-3.56,21.06-10.47,40.85-22,58.9C365.37,942.41,363,947.49,357.06,945.76Z" style="fill:#fff"/>
  <path d="M357.06,945.76c6,1.73,8.31-3.35,11.08-7.67,11.57-18.05,18.48-37.84,22-58.9.63-3.74.64-6.77-2.82-9.74a15.86,15.86,0,0,1-4.27-18.19c3.14-6.84,10-10.57,17.84-10.18a22.32,22.32,0,0,1,15.46,7,7.16,7.16,0,0,0,5,1.66c8.24-.55,14.55,2.73,19.33,9.21a15.1,15.1,0,0,1,1.65,16.45c-2.85,6.06-8.12,9-14.28,9.33-3.9.19-5.75,1.5-7.87,4.46a153.22,153.22,0,0,0-23.19,48.3,117.1,117.1,0,0,0-3.34,15.58c-.21,1.53,1.2,3.87,2.57,4.92,6.86,5.26,10.17,12.92,8.16,19.92S394.8,990.42,387.37,990c-6.48-.37-12.3-2.43-17-7.28a7.5,7.5,0,0,0-5-1.87c-7.36.1-13.77-1.86-18.77-7.51-4.26-4.83-6.16-10.3-4-16.59S349.75,947,357.06,945.76Z"/>
  <path d="M279.25,566.43c-4.27-6-9.41-9-16.18-8.19s-10.72,4.86-13.2,10.8c-2.91,7-1.88,13.58,1.42,20.17a7.52,7.52,0,0,1,.49,5.3c-2.31,6.36-1.63,12.48.86,18.49,2.86,6.86,11.18,11.34,18.3,10.11s12.63-7.55,14.37-16c.35-1.69,1.84-4,3.31-4.46a115.36,115.36,0,0,1,15.48-3.79,153.31,153.31,0,0,1,53.58-.17c3.58.62,5.57,1.71,7.43,5.14,3,5.41,7.94,8.86,14.64,8.79,6.44-.07,11.12-3,14.08-8.66,3.75-7.13,3.95-14.23-.14-21.41a7.1,7.1,0,0,1-.69-5.25,22.35,22.35,0,0,0-.41-17c-3.06-7.21-9.42-11.78-16.95-11.62a15.86,15.86,0,0,0-14.5,11.77c-1.17,4.4-3.9,5.73-7.54,6.79-20.51,6-41.33,8.37-62.62,5.82C285.89,572.45,280.3,572.57,279.25,566.43Z" style="fill:#fff"/>
  <path d="M279.25,566.43c1.05,6.14,6.64,6,11.73,6.63,21.29,2.55,42.11.14,62.62-5.82,3.64-1.06,6.37-2.39,7.54-6.79a15.86,15.86,0,0,1,14.5-11.77c7.53-.16,13.89,4.41,16.95,11.62a22.35,22.35,0,0,1,.41,17,7.1,7.1,0,0,0,.69,5.25c4.09,7.18,3.89,14.28.14,21.41-3,5.63-7.64,8.59-14.08,8.66-6.7.07-11.68-3.38-14.64-8.79-1.86-3.43-3.85-4.52-7.43-5.14a153.31,153.31,0,0,0-53.58.17,115.36,115.36,0,0,0-15.48,3.79c-1.47.48-3,2.77-3.31,4.46-1.74,8.47-7.2,14.78-14.37,16s-15.44-3.25-18.3-10.11c-2.49-6-3.17-12.13-.86-18.49a7.52,7.52,0,0,0-.49-5.3C248,582.62,247,576,249.87,569c2.48-5.94,6.58-10,13.2-10.8S275,560.38,279.25,566.43Z"/>
  <path d="M152.25,188.43c-4.27-6.05-9.41-9-16.18-8.19-6.62.77-10.72,4.86-13.2,10.8-2.91,7-1.88,13.58,1.42,20.17a7.52,7.52,0,0,1,.49,5.3c-2.31,6.36-1.63,12.48.86,18.49,2.86,6.86,11.18,11.34,18.3,10.11s12.63-7.55,14.37-16c.35-1.69,1.84-4,3.31-4.46a115.36,115.36,0,0,1,15.48-3.79,153.31,153.31,0,0,1,53.58-.17c3.58.62,5.57,1.71,7.43,5.14,3,5.41,7.94,8.86,14.64,8.79,6.44-.07,11.12-3,14.08-8.66,3.75-7.13,3.95-14.23-.14-21.41a7.1,7.1,0,0,1-.69-5.25,22.35,22.35,0,0,0-.41-17c-3.06-7.21-9.42-11.78-16.95-11.62a15.86,15.86,0,0,0-14.5,11.77c-1.17,4.4-3.9,5.73-7.54,6.79-20.51,6-41.33,8.37-62.62,5.82C158.89,194.45,153.3,194.57,152.25,188.43Z" style="fill:#fff"/>
  <path d="M152.25,188.43c1.05,6.14,6.64,6,11.73,6.63,21.29,2.55,42.11.14,62.62-5.82,3.64-1.06,6.37-2.39,7.54-6.79a15.86,15.86,0,0,1,14.5-11.77c7.53-.16,13.89,4.41,16.95,11.62a22.35,22.35,0,0,1,.41,17,7.1,7.1,0,0,0,.69,5.25c4.09,7.18,3.89,14.28.14,21.41-3,5.63-7.64,8.59-14.08,8.66-6.7.07-11.68-3.38-14.64-8.79-1.86-3.43-3.85-4.52-7.43-5.14a153.31,153.31,0,0,0-53.58.17,115.36,115.36,0,0,0-15.48,3.79c-1.47.48-3,2.77-3.31,4.46-1.74,8.47-7.2,14.78-14.37,16s-15.44-3.25-18.3-10.11c-2.49-6-3.17-12.13-.86-18.49a7.52,7.52,0,0,0-.49-5.3C121,204.62,120,198,122.87,191c2.48-5.94,6.58-10,13.2-10.8C142.84,179.45,148,182.38,152.25,188.43Z"/>
  <path d="M731.78,133.11c-4.77-5.67-10.14-8.15-16.82-6.8s-10.26,5.75-12.24,11.88c-2.3,7.18-.72,13.7,3.12,20a7.49,7.49,0,0,1,.94,5.24c-1.77,6.53-.57,12.58,2.42,18.35,3.42,6.6,12.1,10.36,19.08,8.53s12-8.59,13-17.18c.21-1.71,1.5-4.12,2.92-4.72a116,116,0,0,1,15.1-5.08,153.19,153.19,0,0,1,53.38-4.7c3.62.31,5.69,1.23,7.84,4.49,3.4,5.15,8.66,8.16,15.32,7.52a15.12,15.12,0,0,0,13.31-9.81c3.13-7.42,2.73-14.52-2-21.33a7.14,7.14,0,0,1-1.14-5.17,22.35,22.35,0,0,0-1.84-16.89c-3.65-6.92-10.37-10.93-17.86-10.14a15.85,15.85,0,0,0-13.46,13c-.79,4.49-3.4,6-6.94,7.4-19.93,7.68-40.48,11.84-61.9,11.09C738.9,138.55,733.34,139.14,731.78,133.11Z" style="fill:#fff"/>
  <path d="M731.78,133.11c1.56,6,7.12,5.44,12.25,5.61,21.42.75,42-3.41,61.9-11.09,3.54-1.36,6.15-2.91,6.94-7.4a15.85,15.85,0,0,1,13.46-13c7.49-.79,14.21,3.22,17.86,10.14A22.35,22.35,0,0,1,846,134.31a7.14,7.14,0,0,0,1.14,5.17c4.68,6.81,5.08,13.91,2,21.33a15.12,15.12,0,0,1-13.31,9.81c-6.66.64-11.92-2.37-15.32-7.52-2.15-3.26-4.22-4.18-7.84-4.49a153.19,153.19,0,0,0-53.38,4.7,116,116,0,0,0-15.1,5.08c-1.42.6-2.71,3-2.92,4.72-1,8.59-5.92,15.34-13,17.18s-15.66-1.93-19.08-8.53c-3-5.77-4.19-11.82-2.42-18.35a7.49,7.49,0,0,0-.94-5.24c-3.84-6.28-5.42-12.8-3.12-20,2-6.13,5.71-10.55,12.24-11.88S727,127.44,731.78,133.11Z"/>
  <path d="M434.31,1093.27c-2.42-7-6.53-11.24-13.25-12.38s-11.65,1.68-15.69,6.69c-4.73,5.88-5.59,12.53-4.26,19.77a7.52,7.52,0,0,1-1,5.23c-4,5.46-5.05,11.53-4.33,18,.83,7.39,7.58,14,14.75,14.81s14.24-3.73,18.27-11.37c.81-1.53,2.88-3.31,4.42-3.36a114.48,114.48,0,0,1,15.92.68,152.88,152.88,0,0,1,51.51,14.78c3.27,1.59,4.87,3.19,5.71,7,1.32,6,5.14,10.72,11.59,12.52a15.13,15.13,0,0,0,15.95-4.38c5.58-5.8,7.76-12.57,5.83-20.61a7.16,7.16,0,0,1,.8-5.23,22.33,22.33,0,0,0,4.34-16.42c-.93-7.77-5.76-13.94-13-15.88a15.85,15.85,0,0,0-17.21,7.26c-2.35,3.9-5.34,4.41-9.14,4.41-21.35,0-42-3.48-61.75-11.87C439,1100.9,433.61,1099.46,434.31,1093.27Z" style="fill:#fff"/>
  <path d="M434.31,1093.27c-.7,6.19,4.7,7.63,9.42,9.64,19.73,8.39,40.4,11.88,61.75,11.87,3.8,0,6.79-.51,9.14-4.41a15.85,15.85,0,0,1,17.21-7.26c7.27,1.94,12.1,8.11,13,15.88a22.33,22.33,0,0,1-4.34,16.42,7.16,7.16,0,0,0-.8,5.23c1.93,8-.25,14.81-5.83,20.61a15.13,15.13,0,0,1-15.95,4.38c-6.45-1.8-10.27-6.5-11.59-12.52-.84-3.81-2.44-5.41-5.71-7a152.88,152.88,0,0,0-51.51-14.78,114.48,114.48,0,0,0-15.92-.68c-1.54,0-3.61,1.83-4.42,3.36-4,7.64-11,12.18-18.27,11.37s-13.92-7.42-14.75-14.81c-.72-6.46.33-12.53,4.33-18a7.52,7.52,0,0,0,1-5.23c-1.33-7.24-.47-13.89,4.26-19.77,4-5,9.11-7.79,15.69-6.69S431.89,1086.27,434.31,1093.27Z"/>
  <path d="M150.13,668.14c4.67-4.12,1.63-8.81-.53-13.47-9-19.44-22-35.88-37.9-50.18-2.82-2.54-5.38-4.17-9.74-2.84a15.87,15.87,0,0,1-17.64-6.14c-4.1-6.32-3.55-14.13,1-20.52a22.34,22.34,0,0,1,14.23-9.29,7.18,7.18,0,0,0,4.1-3.35c4-7.26,10.1-10.82,18.13-11.39,6.35-.44,11.32,2,14.78,7.43,3.58,5.66,3.27,11.71.22,17.06-1.93,3.39-1.82,5.66-.46,9A153.13,153.13,0,0,0,164.62,630,115.26,115.26,0,0,0,176,641.12c1.18,1,3.91,1.06,5.53.47,8.12-3,16.36-1.65,21.19,3.79s5.36,14.84,1,20.88c-3.79,5.28-8.64,9.08-15.26,10.46a7.5,7.5,0,0,0-4.25,3.21c-3.87,6.27-9,10.63-16.41,11.82-6.36,1-12-.32-16.13-5.54S147.24,675,150.13,668.14Z"/>
  <path d="M-11.59,788.12c5.6,2.74,8.77-1.87,12.24-5.64,14.5-15.79,24.72-34.1,31.85-54.23,1.26-3.57,1.79-6.56-1.1-10.09a15.85,15.85,0,0,1-1.08-18.64c4.26-6.2,11.69-8.69,19.32-7a22.37,22.37,0,0,1,14,9.59,7.17,7.17,0,0,0,4.66,2.51c8.22.87,13.87,5.18,17.46,12.39a15.12,15.12,0,0,1-1.2,16.49C80.74,739,75,741,68.91,740.27c-3.87-.49-5.92.49-8.51,3a153.07,153.07,0,0,0-31.16,43.59,116.5,116.5,0,0,0-6,14.78c-.47,1.47.52,4,1.69,5.29,5.85,6.36,7.79,14.47,4.6,21s-11.65,10.64-18.89,8.94c-6.33-1.48-11.7-4.5-15.51-10.09a7.44,7.44,0,0,0-4.59-2.7c-7.27-1.18-13.25-4.21-17.2-10.64-3.37-5.48-4.3-11.2-1.06-17S-19,788.06-11.59,788.12Z"/>
  <path d="M13.88,622.17C-7.23,627.88-28,635-49.33,638.89a33.89,33.89,0,0,1-39.91-26.55,34,34,0,0,1,.06-13.64A32.59,32.59,0,0,1-60.9,573.14l5.95,0a119.87,119.87,0,0,1,1.46-24,32.36,32.36,0,0,1,33.77-22.5,35.43,35.43,0,0,1,30.54,28.59,393.52,393.52,0,0,1,1.67,41.48C12.83,604.61,13.46,613.18,13.88,622.17Z" style="fill:#f94331"/>
  <path d="M23.93,1170.91c-21.78-2-43.71-2.61-65.08-6.39a33.89,33.89,0,0,1-28.12-38.81A33.82,33.82,0,0,1-64.46,1113,32.59,32.59,0,0,1-29,1098.87l5.59,2a120.35,120.35,0,0,1,9.74-22,32.38,32.38,0,0,1,39.5-9.3,35.44,35.44,0,0,1,18.65,37.45,393.61,393.61,0,0,1-12.92,39.46C29.08,1154.08,26.68,1162.34,23.93,1170.91Z" style="fill:#f94331"/>
  <path d="M4.89-1.15S-6.87,3.08-12.5,22.56a50.89,50.89,0,0,1-2.92,7.89,25.06,25.06,0,0,1-1.52,2.69c-1.73,2-12.2,18.31-6.65,24.67.58.64,1.21,1.3,1.91,2,11.33,10.72,26.75-2.53,25.54-1.7s19-15,21.19-14.58,29.11-8.82,28.7-9.75c-.07-.15-.63.53-.4.37C55,32.92,64.13,29.66,66.79,14.37c.92-5.23-1.65-8.21-5.58-9.87a22.11,22.11,0,0,0-4.29-1.25c-5.74-1.1-17.68-1-17.68-1C35-2.41,28.17-3.67,21.08-4.6c-.84-.07-1.68-.1-2.54-.1C13.49-4.76,8.5-3.81,4.89-1.15Z"/>
  <path d="M56.42,941.57s13,13.77,2,21.78-21.52-3.43-21.69-4.2-11.24-12.39-5.55-20a10.67,10.67,0,0,1,3.56-3c4.42-2.81,9.95-3.71,13.89-1.86a12.56,12.56,0,0,1,2.29,1.43A44.27,44.27,0,0,1,56.42,941.57Z"/>
  <path d="M42.57,1000.32s13.77-8,.62-26.91-23-9-22.59-9-11.15,3.39-.68,24.6S43.33,1000.45,42.57,1000.32Z"/>
  <path d="M14.31,993.71s7.77,15.81-4.93,21.64-19.36-6-20.75-9.81c-.85-2.42-4.77-10.86-4.57-18a13.17,13.17,0,0,1,.67-4.05,9.22,9.22,0,0,1,5.74-5.68,11.16,11.16,0,0,1,4.64-.65C5.78,977.82,14.82,992.61,14.31,993.71Z"/>
  <path d="M4.17,962.08S15.43,956.67,19,936.71a52.26,52.26,0,0,1,2.1-8.14,26.74,26.74,0,0,1,1.24-2.84c1.51-2.15,10.26-19.45,4.09-25.21-.64-.58-1.33-1.17-2.09-1.76C12,889.25-2,904-.86,903.06s-17.4,16.9-19.59,16.67-28,11.75-27.55,12.63c.09.15.57-.59.36-.4-1.55,1.35-10.27,5.52-11.35,21-.39,5.3,2.48,8,6.56,9.25A21.49,21.49,0,0,0-48,963c5.83.51,17.69-.84,17.69-.84,4.65,4.24,11.62,4.79,18.77,5,.83,0,1.67-.07,2.53-.16C-4,966.55.85,965.1,4.17,962.08Z"/>
  <path d="M-26.9,430.57c6.2-.51,6.57-6.09,7.63-11.11,4.4-21,3.83-41.94-.33-62.88-.73-3.73-1.81-6.57-6.1-8.11A15.86,15.86,0,0,1-36.15,333c.5-7.51,5.61-13.45,13-15.86a22.33,22.33,0,0,1,17,1.08A7.2,7.2,0,0,0-.85,318c7.51-3.45,14.57-2.63,21.34,1.73a15.11,15.11,0,0,1,7.39,14.78,15.88,15.88,0,0,1-10,13.81c-3.57,1.56-4.83,3.44-5.76,7a153.11,153.11,0,0,0-4.52,53.39A115.86,115.86,0,0,0,10,424.4c.35,1.5,2.5,3.19,4.15,3.69,8.28,2.47,14.09,8.46,14.7,15.72s-4.58,15.09-11.67,17.33c-6.2,2-12.36,2.11-18.49-.75a7.48,7.48,0,0,0-5.33,0c-6.85,2.71-13.54,3.16-20.22-.35-5.7-3-9.41-7.43-9.6-14.09C-36.67,439.16-33.3,434.29-26.9,430.57Z"/>
  <path d="M-39.12,233.31c-10.82-19-22.89-37.33-32-57A33.89,33.89,0,0,1-55.45,131a33.73,33.73,0,0,1,13.21-3.36,32.58,32.58,0,0,1,31.84,21l1.54,5.74a120.69,120.69,0,0,1,23.61-4.61A32.38,32.38,0,0,1,45,176.81a35.42,35.42,0,0,1-20,36.74,393.51,393.51,0,0,1-39.75,12C-22.38,227.89-30.52,230.65-39.12,233.31Z" style="fill:#f94331"/>
  <path d="M1286.41,788.12c5.6,2.74,8.77-1.87,12.24-5.64,14.5-15.79,24.72-34.1,31.85-54.23,1.26-3.57,1.79-6.56-1.1-10.09a15.85,15.85,0,0,1-1.08-18.64c4.26-6.2,11.69-8.69,19.32-7a22.37,22.37,0,0,1,14,9.59,7.17,7.17,0,0,0,4.66,2.51c8.22.87,13.87,5.18,17.46,12.39a15.12,15.12,0,0,1-1.2,16.49c-3.85,5.48-9.56,7.51-15.68,6.74-3.87-.49-5.92.49-8.51,3a153.07,153.07,0,0,0-31.16,43.59,116.5,116.5,0,0,0-6,14.78c-.47,1.47.52,4,1.69,5.29,5.85,6.36,7.79,14.47,4.6,21s-11.65,10.64-18.89,8.94c-6.33-1.48-11.7-4.5-15.51-10.09a7.44,7.44,0,0,0-4.59-2.7c-7.27-1.18-13.25-4.21-17.2-10.64-3.37-5.48-4.3-11.2-1.06-17S1279,788.06,1286.41,788.12Z"/>
  <path d="M1311.88,622.17c-21.11,5.71-41.87,12.81-63.21,16.72a33.89,33.89,0,0,1-39.85-40.19,32.59,32.59,0,0,1,28.28-25.56l6,0a119.87,119.87,0,0,1,1.46-24,32.36,32.36,0,0,1,33.77-22.5,35.43,35.43,0,0,1,30.54,28.59,393.52,393.52,0,0,1,1.67,41.48C1310.83,604.61,1311.46,613.18,1311.88,622.17Z" style="fill:#f94331"/>
  <path d="M1321.93,1170.91c-21.78-2-43.71-2.61-65.08-6.39a33.9,33.9,0,0,1-23.31-51.57,32.59,32.59,0,0,1,35.43-14.08l5.59,2a120.35,120.35,0,0,1,9.74-22,32.38,32.38,0,0,1,39.5-9.3,35.44,35.44,0,0,1,18.65,37.45,393.61,393.61,0,0,1-12.92,39.46C1327.08,1154.08,1324.68,1162.34,1321.93,1170.91Z" style="fill:#f94331"/>
  <path d="M1248.82,13.91s-11.51-15,.26-21.87,21.06,5.61,21.15,6.4,9.92,13.48,3.48,20.44a10.85,10.85,0,0,1-3.84,2.58c-4.69,2.34-10.28,2.68-14,.44a12.67,12.67,0,0,1-2.12-1.67A42.94,42.94,0,0,1,1248.82,13.91Z"/>
  <path d="M1302.89-1.15s-11.76,4.23-17.39,23.71a50.89,50.89,0,0,1-2.92,7.89,25.06,25.06,0,0,1-1.52,2.69c-1.73,2-12.2,18.31-6.65,24.67.58.64,1.21,1.3,1.91,2,11.33,10.72,26.75-2.53,25.54-1.7s19-15,21.19-14.58,29.11-8.82,28.7-9.75c-.07-.15-.63.53-.4.37,1.68-1.19,10.78-4.45,13.44-19.74.92-5.23-1.65-8.21-5.58-9.87a22.11,22.11,0,0,0-4.29-1.25c-5.74-1.1-17.68-1-17.68-1-4.2-4.69-11.07-5.95-18.16-6.88-.84-.07-1.68-.1-2.54-.1C1311.49-4.76,1306.5-3.81,1302.89-1.15Z"/>
  <path d="M1312.31,993.71s7.77,15.81-4.93,21.64-19.36-6-20.75-9.81c-.85-2.42-4.77-10.86-4.57-18a13.17,13.17,0,0,1,.67-4.05,9.22,9.22,0,0,1,5.74-5.68,11.16,11.16,0,0,1,4.64-.65C1303.78,977.82,1312.82,992.61,1312.31,993.71Z"/>
  <path d="M1269.31,1007.75s10.39-4,7.94-17.27c-.25-1.22-.57-2.52-1-3.92-1.52-8.08-7.53-17.74-18.2-14.47-4.77,1.3-7.5,5.93-8.37,10.18a15.16,15.16,0,0,0-.29,3.8,22,22,0,0,0,2.74,9.36C1259.47,1009.45,1265.12,1009.76,1269.31,1007.75Z"/>
  <path d="M1302.17,962.08s11.26-5.41,14.87-25.37a52.26,52.26,0,0,1,2.1-8.14,26.74,26.74,0,0,1,1.24-2.84c1.51-2.15,10.26-19.45,4.09-25.21-.64-.58-1.33-1.17-2.09-1.76-12.37-9.51-26.35,5.25-25.24,4.3s-17.4,16.9-19.59,16.67-28,11.75-27.55,12.63c.09.15.57-.59.36-.4-1.55,1.35-10.27,5.52-11.35,21-.39,5.3,2.48,8,6.56,9.25a21.49,21.49,0,0,0,4.39.81c5.83.51,17.69-.84,17.69-.84,4.65,4.24,11.62,4.79,18.77,5,.83,0,1.67-.07,2.53-.16C1294,966.55,1298.85,965.1,1302.17,962.08Z"/>
  <path d="M1271.1,430.57c6.2-.51,6.57-6.09,7.63-11.11,4.4-21,3.83-41.94-.33-62.88-.73-3.73-1.81-6.57-6.1-8.11A15.86,15.86,0,0,1,1261.85,333c.5-7.51,5.61-13.45,13.05-15.86a22.33,22.33,0,0,1,17,1.08,7.2,7.2,0,0,0,5.29-.23c7.51-3.45,14.57-2.63,21.34,1.73a15.11,15.11,0,0,1,7.39,14.78,15.88,15.88,0,0,1-10,13.81c-3.57,1.56-4.83,3.44-5.76,7a153.11,153.11,0,0,0-4.52,53.39A115.86,115.86,0,0,0,1308,424.4c.35,1.5,2.5,3.19,4.15,3.69,8.28,2.47,14.09,8.46,14.7,15.72s-4.58,15.09-11.67,17.33c-6.2,2-12.36,2.11-18.49-.75a7.48,7.48,0,0,0-5.33,0c-6.85,2.71-13.54,3.16-20.22-.35-5.7-3-9.41-7.43-9.6-14.09C1261.33,439.16,1264.7,434.29,1271.1,430.57Z"/>
  <path d="M1258.88,233.31c-10.82-19-22.89-37.33-32-57a33.89,33.89,0,0,1,28.92-48.64,32.58,32.58,0,0,1,31.84,21l1.54,5.74a120.69,120.69,0,0,1,23.61-4.61A32.38,32.38,0,0,1,1343,176.81a35.42,35.42,0,0,1-20,36.74,393.51,393.51,0,0,1-39.75,12C1275.62,227.89,1267.48,230.65,1258.88,233.31Z" style="fill:#f94331"/>
  <path d="M808,328.39c5.55,2.84,8.8-1.71,12.33-5.42,14.79-15.53,25.33-33.65,32.82-53.65,1.33-3.55,1.91-6.53-.92-10.1a15.85,15.85,0,0,1-.74-18.67c4.37-6.12,11.84-8.48,19.44-6.62a22.36,22.36,0,0,1,13.85,9.84,7.14,7.14,0,0,0,4.62,2.59c8.2,1,13.77,5.43,17.24,12.7a15.14,15.14,0,0,1-1.5,16.47c-3.95,5.41-9.7,7.33-15.8,6.46-3.86-.56-5.92.38-8.56,2.88a153,153,0,0,0-31.94,43,115.9,115.9,0,0,0-6.23,14.67c-.5,1.46.44,4,1.59,5.32,5.74,6.46,7.53,14.61,4.23,21.1s-11.84,10.43-19,8.6c-6.3-1.59-11.62-4.71-15.33-10.37a7.43,7.43,0,0,0-4.54-2.78c-7.25-1.3-13.17-4.44-17-10.94-3.27-5.54-4.09-11.28-.75-17S800.6,328.2,808,328.39Z"/>
  <path d="M1155.58,363.55c4.34-4.46,1-8.91-1.54-13.39-10.45-18.71-24.65-34.14-41.53-47.21-3-2.33-5.68-3.76-9.92-2.12a15.84,15.84,0,0,1-18-4.81c-4.56-6-4.6-13.82-.57-20.53a22.35,22.35,0,0,1,13.5-10.32,7.13,7.13,0,0,0,3.83-3.64c3.41-7.54,9.27-11.55,17.24-12.71a15.1,15.1,0,0,1,15.28,6.3c4,5.38,4.14,11.43,1.5,17-1.68,3.53-1.39,5.78.22,9a153.08,153.08,0,0,0,31.64,43.23,116.88,116.88,0,0,0,12.17,10.3c1.25.9,4,.76,5.55.05,7.87-3.57,16.19-2.87,21.41,2.21s6.46,14.39,2.58,20.74c-3.39,5.54-7.94,9.7-14.44,11.57a7.45,7.45,0,0,0-4,3.51c-3.39,6.54-8.15,11.27-15.49,13-6.26,1.49-12,.58-16.49-4.32S1153.2,370.57,1155.58,363.55Z"/>
  <path d="M1125.26,105.09c6.22-.38,6.7-6,7.86-11,4.83-20.89,4.69-41.85,1-62.88-.67-3.73-1.68-6.59-5.93-8.23A15.86,15.86,0,0,1,1118,7.34c.65-7.5,5.88-13.33,13.37-15.59a22.35,22.35,0,0,1,16.94,1.43,7.18,7.18,0,0,0,5.29-.12c7.58-3.3,14.62-2.33,21.3,2.16A15.11,15.11,0,0,1,1182,10.16c-.65,6.67-4.61,11.25-10.31,13.6-3.61,1.48-4.91,3.34-5.91,6.84a153.06,153.06,0,0,0-5.61,53.28,116.2,116.2,0,0,0,2.09,15.8c.32,1.51,2.43,3.24,4.08,3.77,8.23,2.65,13.91,8.75,14.37,16s-4.89,15-12,17.09c-6.24,1.83-12.4,1.85-18.47-1.13a7.52,7.52,0,0,0-5.33-.09c-6.9,2.57-13.6,2.88-20.21-.76-5.63-3.11-9.26-7.63-9.31-14.29C1115.32,113.47,1118.79,108.68,1125.26,105.09Z"/>
  <path d="M923.36,19.62s-12.73-14-1.59-21.81,21.46,3.8,21.61,4.59,11,12.58,5.2,20.06a10.8,10.8,0,0,1-3.6,2.9c-4.48,2.73-10,3.54-13.93,1.62a12.57,12.57,0,0,1-2.26-1.48A44.07,44.07,0,0,1,923.36,19.62Z"/>
  <path d="M976,0s-11.36,5.22-15.31,25.1a49.89,49.89,0,0,1-2.25,8.11,25,25,0,0,1-1.28,2.81c-1.55,2.13-10.6,19.28-4.53,25.14.62.59,1.3,1.19,2.06,1.8,12.19,9.72,26.44-4.79,25.3-3.86s17.7-16.59,19.88-16.32,28.26-11.26,27.77-12.15c-.08-.15-.58.58-.36.4,1.57-1.32,10.36-5.34,11.71-20.8.48-5.3-2.33-8-6.39-9.37a21.92,21.92,0,0,0-4.38-.88c-5.82-.61-17.7.53-17.7.53-4.58-4.32-11.53-5-18.68-5.32-.84,0-1.68,0-2.54.11C984.23-4.29,979.34-2.93,976,0Z"/>
  <path d="M134.75,67.93c5.51,2.9,8.81-1.62,12.39-5.29,15-15.35,25.7-33.36,33.42-53.27,1.37-3.54,2-6.51-.81-10.12a15.85,15.85,0,0,1-.53-18.66c4.44-6.08,11.94-8.35,19.52-6.4a22.35,22.35,0,0,1,13.74,10,7.13,7.13,0,0,0,4.58,2.64c8.2,1.11,13.72,5.59,17.1,12.9a15.11,15.11,0,0,1-1.68,16.44c-4,5.37-9.78,7.23-15.88,6.28-3.85-.6-5.92.32-8.59,2.79a153.09,153.09,0,0,0-32.42,42.66,116.67,116.67,0,0,0-6.4,14.59c-.51,1.46.4,4,1.53,5.34,5.67,6.53,7.37,14.7,4,21.15s-12,10.29-19.14,8.39c-6.28-1.67-11.57-4.85-15.21-10.55a7.47,7.47,0,0,0-4.51-2.83c-7.23-1.39-13.12-4.59-16.88-11.13-3.21-5.58-4-11.32-.56-17S127.35,67.65,134.75,67.93Z"/>
  <path d="M360.92,18.42c-19.14-10.59-39-19.94-57-32A33.9,33.9,0,0,1,293.71-60.4a34,34,0,0,1,9.53-9.75,32.58,32.58,0,0,1,38.1,1.33l4.31,4.1A120.29,120.29,0,0,1,363.4-80.95a32.37,32.37,0,0,1,39.91,7.35,35.41,35.41,0,0,1,2,41.78,392.23,392.23,0,0,1-27.67,31C372.39,5.08,366.87,11.67,360.92,18.42Z" style="fill:#f94331"/>
  <path d="M632.89,26s14.29-7,2.48-26.8-22.28-10.61-21.9-10.51-11.37,2.61-2.39,24.5S633.64,26.21,632.89,26Z"/>
  <path d="M605.16,17.49s6.66,16.31-6.41,21.24-18.91-7.28-20-11.22c-.69-2.47-4-11.17-3.32-18.25a12.88,12.88,0,0,1,1-4A9.22,9.22,0,0,1,582.48,0a11.36,11.36,0,0,1,4.67-.33C597.75,1,605.74,16.42,605.16,17.49Z"/>
  <path d="M561.29,28.52s10.64-3.25,9.11-16.68a40.29,40.29,0,0,0-.72-4c-1-8.17-6.28-18.23-17.15-15.7-4.86,1-7.89,5.39-9.06,9.57a15.59,15.59,0,0,0-.55,3.78A21.89,21.89,0,0,0,545,15C551.35,29.53,557,30.23,561.29,28.52Z"/>
  <path d="M493.15,162.45c5.37-3.15,3.28-8.34,2-13.31-5.15-20.81-14.78-39.44-27.62-56.5-2.28-3-4.48-5.12-9-4.65a15.86,15.86,0,0,1-16.14-9.4c-2.81-7-.79-14.54,4.86-20A22.33,22.33,0,0,1,463,52.24a7.14,7.14,0,0,0,4.66-2.51c5.27-6.37,12-8.7,20-7.72a15.13,15.13,0,0,1,13.08,10.11c2.44,6.24,1,12.12-3,16.8-2.54,3-2.86,5.2-2.17,8.77a153.4,153.4,0,0,0,19.14,50.05,115.72,115.72,0,0,0,9,13.13c1,1.2,3.63,1.79,5.34,1.52,8.53-1.37,16.37,1.49,20.07,7.77s2.44,15.58-3,20.68c-4.73,4.46-10.22,7.27-17,7.36a7.46,7.46,0,0,0-4.78,2.33c-5,5.42-10.83,8.73-18.37,8.48-6.43-.22-11.71-2.6-14.77-8.52S489,168.59,493.15,162.45Z"/>
  <path d="M747.75,12.93c5.51,2.9,8.81-1.62,12.39-5.29,15-15.35,25.7-33.36,33.42-53.27,1.37-3.54,2-6.51-.81-10.12a15.85,15.85,0,0,1-.53-18.66c4.44-6.08,11.94-8.35,19.52-6.4a22.35,22.35,0,0,1,13.74,10,7.13,7.13,0,0,0,4.58,2.64c8.2,1.11,13.72,5.59,17.1,12.9a15.11,15.11,0,0,1-1.68,16.44c-4,5.37-9.78,7.23-15.88,6.28-3.85-.6-5.92.32-8.59,2.79a153.09,153.09,0,0,0-32.42,42.66,116.67,116.67,0,0,0-6.4,14.59c-.51,1.46.4,4,1.53,5.34,5.67,6.53,7.37,14.7,4,21.15s-12,10.29-19.14,8.39c-6.28-1.67-11.57-4.85-15.21-10.55A7.47,7.47,0,0,0,748.85,49c-7.23-1.39-13.12-4.59-16.88-11.13-3.21-5.58-4-11.32-.56-17S740.35,12.65,747.75,12.93Z"/>
  <path d="M-2,1259.35s-6.12-16.53,7.1-21,18.66,7.9,19.64,11.88c.61,2.49,3.65,11.29,2.72,18.34a13.19,13.19,0,0,1-1.08,4,9.19,9.19,0,0,1-6.3,5.07,11.29,11.29,0,0,1-4.68.18C4.9,1276-2.58,1260.39-2,1259.35Z"/>
  <path d="M42.24,1249.77s-10.74,2.9-9.66,16.37c.12,1.24.31,2.57.59,4,.69,8.19,5.68,18.42,16.63,16.25,4.88-.81,8.07-5.13,9.36-9.27a14.84,14.84,0,0,0,.68-3.76,21.75,21.75,0,0,0-1.77-9.58C52.21,1249.09,46.62,1248.21,42.24,1249.77Z"/>
  <path d="M4.89,1291.85s-11.76,4.23-17.39,23.71a50.89,50.89,0,0,1-2.92,7.89,25.06,25.06,0,0,1-1.52,2.69c-1.73,2-12.2,18.31-6.65,24.67.58.64,1.21,1.3,1.91,2,11.33,10.72,26.75-2.53,25.54-1.7s19-15,21.19-14.58,29.11-8.82,28.7-9.75c-.07-.15-.63.53-.4.37,1.68-1.19,10.78-4.45,13.44-19.74.92-5.23-1.65-8.21-5.58-9.87a22.11,22.11,0,0,0-4.29-1.25c-5.74-1.1-17.68-1-17.68-1-4.2-4.69-11.07-6-18.16-6.88-.84-.07-1.68-.1-2.54-.1C13.49,1288.24,8.5,1289.19,4.89,1291.85Z"/>
  <path d="M1248.82,1306.91s-11.51-15,.26-21.87,21.06,5.61,21.15,6.4,9.92,13.48,3.48,20.44a10.85,10.85,0,0,1-3.84,2.58c-4.69,2.34-10.28,2.68-14,.44a12.67,12.67,0,0,1-2.12-1.67A42.94,42.94,0,0,1,1248.82,1306.91Z"/>
  <path d="M1268.6,1249.89s-14.52,6.51-3.37,26.7,21.93,11.35,21.55,11.24,11.44-2.24,3.2-24.41S1267.86,1249.68,1268.6,1249.89Z"/>
  <path d="M1296,1259.35s-6.12-16.53,7.1-21,18.66,7.9,19.64,11.88c.61,2.49,3.65,11.29,2.72,18.34a13.19,13.19,0,0,1-1.08,4,9.19,9.19,0,0,1-6.3,5.07,11.29,11.29,0,0,1-4.68.18C1302.9,1276,1295.42,1260.39,1296,1259.35Z"/>
  <path d="M1302.89,1291.85s-11.76,4.23-17.39,23.71a50.89,50.89,0,0,1-2.92,7.89,25.06,25.06,0,0,1-1.52,2.69c-1.73,2-12.2,18.31-6.65,24.67.58.64,1.21,1.3,1.91,2,11.33,10.72,26.75-2.53,25.54-1.7s19-15,21.19-14.58,29.11-8.82,28.7-9.75c-.07-.15-.63.53-.4.37,1.68-1.19,10.78-4.45,13.44-19.74.92-5.23-1.65-8.21-5.58-9.87a22.11,22.11,0,0,0-4.29-1.25c-5.74-1.1-17.68-1-17.68-1-4.2-4.69-11.07-6-18.16-6.88-.84-.07-1.68-.1-2.54-.1C1311.49,1288.24,1306.5,1289.19,1302.89,1291.85Z"/>
  <path d="M1125.26,1398.09c6.22-.38,6.7-5.95,7.86-10.95,4.83-20.89,4.69-41.85,1-62.88-.67-3.73-1.68-6.59-5.93-8.23a15.86,15.86,0,0,1-10.14-15.69c.65-7.5,5.88-13.33,13.37-15.59a22.35,22.35,0,0,1,16.94,1.43,7.18,7.18,0,0,0,5.29-.12c7.58-3.3,14.62-2.33,21.3,2.16a15.11,15.11,0,0,1,7.08,14.94c-.65,6.67-4.61,11.25-10.31,13.6-3.61,1.48-4.91,3.34-5.91,6.84a153.06,153.06,0,0,0-5.61,53.28,116.2,116.2,0,0,0,2.09,15.8c.32,1.51,2.43,3.24,4.08,3.77,8.23,2.65,13.91,8.75,14.37,16s-4.89,15-12,17.09c-6.24,1.83-12.4,1.85-18.47-1.13a7.52,7.52,0,0,0-5.33-.09c-6.9,2.57-13.6,2.88-20.21-.76-5.63-3.11-9.26-7.63-9.31-14.29C1115.32,1406.47,1118.79,1401.68,1125.26,1398.09Z"/>
  <path d="M923.36,1312.62s-12.73-14-1.59-21.81,21.46,3.8,21.61,4.59,11,12.58,5.2,20.06a10.8,10.8,0,0,1-3.6,2.9c-4.48,2.73-10,3.54-13.93,1.62a12.57,12.57,0,0,1-2.26-1.48A44.07,44.07,0,0,1,923.36,1312.62Z"/>
  <path d="M938.24,1254.12s-13.91,7.72-1.09,26.9,22.8,9.44,22.42,9.37,11.21-3.2,1.12-24.59S937.48,1254,938.24,1254.12Z"/>
  <path d="M966.38,1261.23s-7.49-16,5.3-21.55,19.26,6.29,20.58,10.17c.81,2.43,4.59,10.94,4.26,18.05a13.7,13.7,0,0,1-.74,4,9.2,9.2,0,0,1-5.85,5.58,11.24,11.24,0,0,1-4.64.58C974.63,1277.27,965.85,1262.32,966.38,1261.23Z"/>
  <path d="M1009.62,1247.94s-10.46,3.8-8.24,17.13c.22,1.23.53,2.53.93,3.94,1.38,8.11,7.21,17.87,17.94,14.79,4.8-1.22,7.6-5.8,8.55-10a15.06,15.06,0,0,0,.35-3.8,21.8,21.8,0,0,0-2.57-9.4C1019.49,1246.42,1013.84,1246,1009.62,1247.94Z"/>
  <path d="M976,1293s-11.36,5.22-15.31,25.1a49.89,49.89,0,0,1-2.25,8.11,25,25,0,0,1-1.28,2.81c-1.55,2.13-10.6,19.28-4.53,25.14.62.59,1.3,1.19,2.06,1.8,12.19,9.72,26.44-4.79,25.3-3.86s17.7-16.59,19.88-16.32,28.26-11.26,27.77-12.15c-.08-.15-.58.58-.36.4,1.57-1.32,10.36-5.34,11.71-20.8.48-5.3-2.33-8-6.39-9.37a21.92,21.92,0,0,0-4.38-.88c-5.82-.61-17.7.53-17.7.53-4.58-4.32-11.53-5-18.68-5.32-.84,0-1.68,0-2.54.11C984.23,1288.71,979.34,1290.07,976,1293Z"/>
  <path d="M134.75,1360.93c5.51,2.9,8.81-1.62,12.39-5.29,15-15.35,25.7-33.36,33.42-53.27,1.37-3.54,2-6.51-.81-10.12a15.85,15.85,0,0,1-.53-18.66c4.44-6.08,11.94-8.35,19.52-6.4a22.35,22.35,0,0,1,13.74,10,7.13,7.13,0,0,0,4.58,2.64c8.2,1.11,13.72,5.59,17.1,12.9a15.11,15.11,0,0,1-1.68,16.44c-4,5.37-9.78,7.23-15.88,6.28-3.85-.6-5.92.32-8.59,2.79a153.09,153.09,0,0,0-32.42,42.66,116.67,116.67,0,0,0-6.4,14.59c-.51,1.46.4,4,1.53,5.34,5.67,6.53,7.37,14.7,4,21.15s-12,10.29-19.14,8.39c-6.28-1.67-11.57-4.85-15.21-10.55a7.47,7.47,0,0,0-4.51-2.83c-7.23-1.39-13.12-4.59-16.88-11.13-3.21-5.58-4-11.32-.56-17S127.35,1360.65,134.75,1360.93Z"/>
  <path d="M360.92,1311.42c-19.14-10.59-39-19.94-57-32a33.9,33.9,0,0,1-.64-56.59,32.58,32.58,0,0,1,38.1,1.33l4.31,4.1a120.29,120.29,0,0,1,17.75-16.23,32.37,32.37,0,0,1,39.91,7.35,35.41,35.41,0,0,1,2,41.78,392.23,392.23,0,0,1-27.67,31C372.39,1298.08,366.87,1304.67,360.92,1311.42Z" style="fill:#f94331"/>
  <path d="M650.78,1261.39s12,14.63.46,21.86-21.23-4.91-21.35-5.7-10.36-13.13-4.15-20.3a10.7,10.7,0,0,1,3.75-2.72c4.61-2.49,10.18-3,14-.89a12.68,12.68,0,0,1,2.18,1.59A44.15,44.15,0,0,1,650.78,1261.39Z"/>
  <path d="M632.89,1319s14.29-7,2.48-26.8-22.28-10.61-21.9-10.51-11.37,2.61-2.39,24.5S633.64,1319.21,632.89,1319Z"/>
  <path d="M605.16,1310.49s6.66,16.31-6.41,21.24-18.91-7.28-20-11.22c-.69-2.47-4-11.17-3.32-18.25a12.88,12.88,0,0,1,1-4,9.22,9.22,0,0,1,6.12-5.27,11.36,11.36,0,0,1,4.67-.33C597.75,1294,605.74,1309.42,605.16,1310.49Z"/>
  <path d="M561.29,1321.52s10.64-3.25,9.11-16.68a40.29,40.29,0,0,0-.72-4c-1-8.17-6.28-18.23-17.15-15.7-4.86,1-7.89,5.39-9.06,9.57a15.59,15.59,0,0,0-.55,3.78A21.89,21.89,0,0,0,545,1308C551.35,1322.53,557,1323.23,561.29,1321.52Z"/>
  <path d="M597.23,1278.23s11.62-4.62,16.6-24.28a49.85,49.85,0,0,1,2.66-8,24.93,24.93,0,0,1,1.42-2.75c1.67-2,11.59-18.7,5.83-24.87-.59-.62-1.24-1.26-2-1.9-11.67-10.34-26.64,3.41-25.46,2.54s-18.53,15.66-20.7,15.28-28.8,9.78-28.36,10.69c.07.15.61-.55.38-.38-1.63,1.24-10.62,4.8-12.78,20.17-.75,5.26,1.92,8.15,5.91,9.68a22,22,0,0,0,4.32,1.11c5.78.91,17.71.39,17.71.39,4.35,4.55,11.26,5.58,18.37,6.27.84,0,1.68,0,2.55,0C588.75,1282.12,593.71,1281,597.23,1278.23Z"/>
  <path d="M747.75,1305.93c5.51,2.9,8.81-1.62,12.39-5.29,15-15.35,25.7-33.36,33.42-53.27,1.37-3.54,2-6.51-.81-10.12a15.85,15.85,0,0,1-.53-18.66c4.44-6.08,11.94-8.35,19.52-6.4a22.35,22.35,0,0,1,13.74,10,7.13,7.13,0,0,0,4.58,2.64c8.2,1.11,13.72,5.59,17.1,12.9a15.11,15.11,0,0,1-1.68,16.44c-4,5.37-9.78,7.23-15.88,6.28-3.85-.6-5.92.32-8.59,2.79a153.09,153.09,0,0,0-32.42,42.66,116.67,116.67,0,0,0-6.4,14.59c-.51,1.46.4,4,1.53,5.34,5.67,6.53,7.37,14.7,4,21.15s-12,10.29-19.14,8.39c-6.28-1.67-11.57-4.85-15.21-10.55a7.47,7.47,0,0,0-4.51-2.83c-7.23-1.39-13.12-4.59-16.88-11.13-3.21-5.58-4-11.32-.56-17S740.35,1305.65,747.75,1305.93Z"/>
</svg>