<svg version="1.1" xmlns="http://www.w3.org/2000/svg" x="0px" y="0px" viewBox="0 0 1296 1296" xml:space="preserve">
<path d="M563,818.8c0,0-12.5-14.2-1.2-21.8s21.4,4.1,21.5,4.9s10.8,12.8,4.9,20.1c-1,1.2-2.2,2.2-3.7,2.8c-4.5,2.7-10.1,3.4-14,1.4
  c-0.8-0.4-1.6-0.9-2.2-1.5C566.4,823,564.6,821,563,818.8z"/>
<path d="M578.8,760.5c0,0-14,7.5-1.5,26.9s22.7,9.8,22.3,9.7s11.3-3,1.5-24.6S578.1,760.4,578.8,760.5z"/>
<path d="M606.8,768c0,0-7.2-16,5.6-21.5s19.2,6.6,20.4,10.5c0.8,2.5,4.4,11,4,18.1c-0.1,1.4-0.3,2.7-0.8,4c-1,2.7-3.2,4.7-5.9,5.5
  c-1.5,0.5-3.1,0.7-4.7,0.5C614.9,784.2,606.3,769.1,606.8,768z"/>
<path d="M650.3,755.4c0,0-10.5,3.6-8.5,17c0.2,1.3,0.5,2.7,0.9,4c1.3,8.1,7,18,17.7,15.1c4.8-1.2,7.7-5.7,8.7-9.9
  c0.3-1.2,0.4-2.5,0.4-3.8c-0.1-3.3-0.9-6.5-2.4-9.4C660.2,754,654.5,753.6,650.3,755.4z"/>
<path d="M616,800c0,0-11.4,5-15.7,24.9c-0.6,2.7-1.4,5.4-2.4,8.1c-0.4,1-0.8,1.9-1.3,2.8c-1.6,2.1-10.9,19.1-4.9,25.1
  c0.6,0.6,1.3,1.2,2,1.8c12,9.9,26.5-4.4,25.4-3.5s18-16.3,20.1-16s28.4-10.8,28-11.7c-0.1-0.2-0.6,0.6-0.4,0.4
  c1.6-1.3,10.4-5.2,12-20.6c0.6-5.3-2.2-8.1-6.2-9.5c-1.4-0.5-2.9-0.8-4.4-1c-5.8-0.7-17.7,0.3-17.7,0.3c-4.5-4.4-11.5-5.2-18.6-5.6
  c-0.8,0-1.7,0-2.5,0.1C624.3,795.8,619.4,797.1,616,800z"/>
<path d="M564,820.8c0,0-12.5-14.2-1.2-21.8s21.4,4.1,21.5,4.9s10.8,12.8,4.9,20.1c-1,1.2-2.2,2.2-3.7,2.8c-4.5,2.7-10.1,3.4-14,1.4
  c-0.8-0.4-1.6-0.9-2.2-1.5C567.4,825,565.6,823,564,820.8z"/>
<path d="M579.8,762.5c0,0-14,7.5-1.5,26.9s22.7,9.8,22.3,9.7s11.3-3,1.5-24.6S579.1,762.4,579.8,762.5z"/>
<path d="M607.8,770c0,0-7.2-16,5.6-21.5s19.2,6.6,20.4,10.5c0.8,2.5,4.4,11,4,18.1c-0.1,1.4-0.3,2.7-0.8,4c-1,2.7-3.2,4.7-5.9,5.5
  c-1.5,0.5-3.1,0.7-4.7,0.5C615.9,786.2,607.3,771.1,607.8,770z"/>
<path d="M651.3,757.4c0,0-10.5,3.6-8.5,17c0.2,1.3,0.5,2.7,0.9,4c1.3,8.1,7,18,17.7,15.1c4.8-1.2,7.7-5.7,8.7-9.9
  c0.3-1.2,0.4-2.5,0.4-3.8c-0.1-3.3-0.9-6.5-2.4-9.4C661.2,756,655.5,755.6,651.3,757.4z"/>
<path d="M617,802c0,0-11.4,5-15.7,24.9c-0.6,2.7-1.4,5.4-2.4,8.1c-0.4,1-0.8,1.9-1.3,2.8c-1.6,2.1-10.9,19.1-4.9,25.1
  c0.6,0.6,1.3,1.2,2,1.8c12,9.9,26.5-4.4,25.4-3.5s18-16.3,20.1-16s28.4-10.8,28-11.7c-0.1-0.2-0.6,0.6-0.4,0.4
  c1.6-1.3,10.4-5.2,12-20.6c0.6-5.3-2.2-8.1-6.2-9.5c-1.4-0.5-2.9-0.8-4.4-1c-5.8-0.7-17.7,0.3-17.7,0.3c-4.5-4.4-11.5-5.2-18.6-5.6
  c-0.8,0-1.7,0-2.5,0.1C625.3,797.8,620.4,799.1,617,802z"/>
<path d="M779.7,457.1c0,0,6.1-17.9,18.3-11.9s7,20.6,6.4,21.1s-5.7,15.7-15,14.2c-1.5-0.3-3-0.9-4.3-1.8c-4.6-2.6-7.9-7.1-8.2-11.4
  c0-0.9,0-1.8,0.2-2.7C777.8,462.1,778.6,459.6,779.7,457.1z"/>
<path d="M838,441.9c0,0-13.5-8.5-24.1,12s2.8,24.5,2.6,24.2s8.2,8.3,22.1-10.9S837.8,441.1,838,441.9z"/>
<path d="M845.4,469.9c0,0,10.3-14.3,21.4-5.8s3.8,19.9,1,22.9c-1.7,1.9-7.4,9.3-13.7,12.5c-1.2,0.6-2.5,1.1-3.9,1.3
  c-2.8,0.4-5.6-0.5-7.7-2.4c-1.2-1.1-2.1-2.3-2.7-3.8C835.4,484.9,844.2,470,845.4,469.9z"/>
<path d="M878,501.4c0,0-8.4-7.3-19,1.1c-1,0.8-2,1.7-3,2.7c-6.4,5.1-12.2,15-4.3,22.9c3.4,3.6,8.8,3.8,12.9,2.6
  c1.2-0.4,2.4-0.9,3.5-1.5c2.8-1.7,5.2-4,7-6.8C884.1,509.3,881.7,504.1,878,501.4z"/>
<path d="M822.2,493.7c0,0-10.1-7.4-29.4-1.3c-2.7,0.9-5.4,1.5-8.2,2c-1,0.1-2.1,0.2-3.1,0.2c-2.6-0.3-22,0-24.2,8.2
  c-0.2,0.8-0.4,1.7-0.6,2.7c-2.6,15.4,17,20.8,15.6,20.3s23.1,7.5,23.9,9.5s23.5,19.3,24.1,18.4c0.1-0.2-0.8-0.2-0.5-0.1
  c1.9,0.7,9.7,6.5,23.9,0.2c4.9-2.1,5.9-5.9,5.1-10.1c-0.3-1.5-0.7-2.9-1.3-4.3c-2.3-5.4-9-15.2-9-15.2c1.6-6.1-1.2-12.5-4.4-18.9
  c-0.4-0.7-0.8-1.5-1.3-2.2C830,498.8,826.4,495.2,822.2,493.7z"/>
<path d="M1157.5,595c0,0-6.1,18-18.3,12s-7-20.6-6.4-21.1s5.7-15.7,15-14.2c1.5,0.3,3,0.9,4.3,1.8c4.6,2.6,7.9,7.1,8.2,11.4
  c0,0.9,0,1.8-0.2,2.7C1159.4,590.1,1158.6,592.6,1157.5,595z"/>
<path d="M1099.1,610.3c0,0,13.5,8.5,24.1-12s-2.8-24.5-2.6-24.2s-8.2-8.3-22.1,10.9S1099.3,611,1099.1,610.3z"/>
<path d="M1091.7,582.2c0,0-10.3,14.3-21.4,5.8s-3.8-19.9-1-22.9c1.7-1.9,7.4-9.3,13.7-12.5c1.2-0.6,2.5-1.1,3.9-1.3
  c2.8-0.4,5.6,0.5,7.7,2.4c1.2,1.1,2.1,2.3,2.7,3.8C1101.8,567.2,1092.9,582.2,1091.7,582.2z"/>
<path d="M1059.2,550.8c0,0,8.4,7.3,19-1.1c1-0.8,2-1.7,3-2.7c6.4-5.1,12.2-15,4.3-22.9c-3.4-3.6-8.8-3.8-12.9-2.6
  c-1.2,0.3-2.4,0.8-3.6,1.5c-2.8,1.7-5.2,4-7,6.8C1053.1,542.9,1055.5,548,1059.2,550.8z"/>
<path d="M1114.9,558.5c0,0,10.1,7.4,29.4,1.3c2.7-0.9,5.4-1.6,8.2-2c1-0.1,2-0.2,3.1-0.2c2.6,0.3,22,0,24.2-8.2
  c0.2-0.8,0.4-1.7,0.6-2.7c2.6-15.4-17-20.8-15.6-20.3s-23.1-7.5-23.9-9.5s-23.5-19.3-24-18.4c-0.1,0.1,0.8,0.2,0.5,0.1
  c-1.9-0.7-9.7-6.5-23.9-0.2c-4.9,2.1-5.9,5.9-5.1,10.1c0.3,1.5,0.7,2.9,1.3,4.3c2.3,5.4,9,15.2,9,15.2c-1.6,6.1,1.2,12.5,4.4,18.9
  c0.4,0.7,0.8,1.5,1.3,2.2C1107.2,553.3,1110.7,556.9,1114.9,558.5z"/>
<path d="M853.3,974c0,0,3.3,18.6-10.3,19.3s-16.1-14.7-15.8-15.5s-2.6-16.5,6.4-19.7c1.5-0.5,3-0.7,4.6-0.5
  c5.2,0.1,10.3,2.4,12.6,6.1c0.5,0.8,0.8,1.6,1.1,2.5C852.6,968.7,853,971.3,853.3,974z"/>
<path d="M809.4,1015.5c0,0,15.9,0.9,15.3-22.1s-14.2-20.2-13.9-19.9s-11.2-3.3-14.1,20.2S809.9,1016,809.4,1015.5z"/>
<path d="M789.4,994.4c0,0-2.2,17.5-16,15.3s-12.9-15.6-11.9-19.6c0.6-2.5,2-11.7,6.1-17.5c0.8-1.1,1.7-2.2,2.8-3
  c2.3-1.7,5.2-2.3,7.9-1.6c1.5,0.4,3,1,4.2,2C791,976.4,790.5,993.8,789.4,994.4z"/>
<path d="M745.8,982.4c0,0,10.9,2.4,16.1-10c0.5-1.2,0.9-2.4,1.3-3.8c3.2-7.6,3.5-19-7.2-22.1c-4.7-1.5-9.5,0.8-12.6,3.9
  c-0.9,0.9-1.7,1.9-2.3,3c-1.6,2.9-2.6,6-2.9,9.3C736.6,978.4,741.2,981.8,745.8,982.4z"/>
<path d="M798.4,962.4c0,0,12.4,1.7,26.4-13c1.9-2.1,4-3.9,6.2-5.6c0.8-0.6,1.7-1.2,2.6-1.7c2.5-1,19.3-10.6,17.3-18.8
  c-0.2-0.8-0.5-1.7-0.8-2.6c-5.1-14.7-24.9-10.1-23.4-10.3s-23.8,4.5-25.5,3.1s-29.9-5.6-30-4.6c0,0.2,0.8-0.2,0.5-0.1
  c-2,0.3-11.6-1-21,11.3c-3.2,4.2-2.3,8,0.4,11.3c1,1.1,2,2.2,3.2,3.1c4.6,3.6,15.2,9,15.2,9c1.5,6.1,7.1,10.4,12.9,14.5
  c0.7,0.5,1.4,0.9,2.2,1.3C789.1,961.6,793.9,963.1,798.4,962.4z"/>
<path d="M967.7,946.9c0,0-18.9,1.5-18.2-12.1s16.2-14.6,16.9-14.2s16.7-1,19,8.2c0.4,1.5,0.4,3.1,0.1,4.6c-0.6,5.2-3.3,10.1-7.3,12
  c-0.8,0.4-1.7,0.7-2.5,0.9C973.1,946.7,970.4,946.9,967.7,946.9z"/>
<path d="M930.7,899.3c0,0-2.4,15.7,20.6,17.4s21.5-12.2,21.2-12s4.4-10.8-18.7-16S930.1,899.8,930.7,899.3z"/>
<path d="M953.5,881.4c0,0-17.2-3.9-13.8-17.4s16.8-11.4,20.7-10c2.4,0.9,11.5,3.1,16.9,7.7c1.1,0.9,2,1.9,2.7,3.1
  c1.5,2.4,1.8,5.3,0.8,8c-0.5,1.5-1.3,2.8-2.4,4C971.3,884.7,954.1,882.5,953.5,881.4z"/>
<path d="M969.6,839.1c0,0-3.4,10.6,8.5,17c1.1,0.6,2.3,1.1,3.7,1.7c7.2,3.9,18.5,5.3,22.7-5.1c2-4.5,0.1-9.6-2.7-12.9
  c-0.8-1-1.8-1.9-2.8-2.6c-2.7-1.9-5.8-3.2-9-3.7C974.4,830.4,970.6,834.6,969.6,839.1z"/>
<path d="M984.5,893.3c0,0-2.8,12.2,10.5,27.5c1.8,2.1,3.5,4.4,5,6.7c0.5,0.9,1,1.8,1.4,2.8c0.7,2.5,8.7,20.2,17.1,19
  c0.8-0.1,1.7-0.3,2.7-0.5c15.2-3.7,12.4-23.8,12.5-22.3s-2.2-24.2-0.7-25.7s8.4-29.2,7.4-29.4c-0.2,0,0.1,0.8,0.1,0.5
  c-0.1-2,2.1-11.5-9.2-22c-3.9-3.6-7.8-3.1-11.3-0.7c-1.2,0.9-2.4,1.8-3.4,2.9c-4,4.2-10.4,14.3-10.4,14.3c-6.2,1-11,6-15.7,11.5
  c-0.5,0.7-1,1.4-1.5,2.1C986.2,884.2,984.3,888.8,984.5,893.3z"/>
<path d="M283.4,779.6c0,0,13,13.8,2,21.8s-21.5-3.4-21.7-4.2s-11.2-12.4-5.5-20c1-1.2,2.2-2.3,3.6-3c4.4-2.8,10-3.7,13.9-1.9
  c0.8,0.4,1.6,0.9,2.3,1.4C279.9,775.5,281.8,777.5,283.4,779.6z"/>
<path d="M269.6,838.3c0,0,13.8-8,0.6-26.9s-23-9-22.6-9s-11.1,3.4-0.7,24.6S270.3,838.5,269.6,838.3z"/>
<path d="M241.3,831.7c0,0,7.8,15.8-4.9,21.6s-19.4-6-20.8-9.8c-0.9-2.4-4.8-10.9-4.6-18c0-1.4,0.2-2.7,0.7-4
  c0.9-2.7,3.1-4.8,5.7-5.7c1.5-0.5,3.1-0.8,4.6-0.7C232.8,815.8,241.8,830.6,241.3,831.7z"/>
<path d="M198.3,845.8c0,0,10.4-4,7.9-17.3c-0.2-1.2-0.6-2.5-1-3.9c-1.5-8.1-7.5-17.7-18.2-14.5c-4.8,1.3-7.5,5.9-8.4,10.2
  c-0.3,1.2-0.4,2.5-0.3,3.8c0.2,3.3,1.1,6.5,2.7,9.4C188.5,847.5,194.1,847.8,198.3,845.8z"/>
<path d="M231.2,800.1c0,0,11.3-5.4,14.9-25.4c0.5-2.8,1.2-5.5,2.1-8.1c0.4-1,0.8-1.9,1.2-2.8c1.5-2.2,10.3-19.5,4.1-25.2
  c-0.6-0.6-1.3-1.2-2.1-1.8c-12.4-9.5-26.4,5.2-25.2,4.3s-17.4,16.9-19.6,16.7s-28.1,11.8-27.6,12.6c0.1,0.2,0.6-0.6,0.4-0.4
  c-1.6,1.3-10.3,5.5-11.4,21c-0.4,5.3,2.5,8,6.6,9.2c1.4,0.4,2.9,0.7,4.4,0.8c5.8,0.5,17.7-0.8,17.7-0.8c4.6,4.2,11.6,4.8,18.8,5
  c0.8,0,1.7-0.1,2.5-0.2C223,804.5,227.9,803.1,231.2,800.1z"/>
<path d="M555.5,346.2c0,0,7.6,17.4-5.5,21.2s-19.1-10.5-19-11.3s-6.4-15.5,1.5-20.7c1.3-0.8,2.8-1.4,4.3-1.6
  c5.1-1.1,10.6-0.1,13.7,3c0.6,0.6,1.2,1.4,1.7,2.1C553.5,341.2,554.6,343.7,555.5,346.2z"/>
<path d="M522.6,396.8c0,0,15.7-2.8,9.7-25.1s-18.6-16.3-18.2-16.1s-11.6-0.6-9,22.9S523.3,397.2,522.6,396.8z"/>
<path d="M498.2,381c0,0,2,17.5-12,18.7S470,387.6,470,383.5c0-2.6-0.8-11.8,1.8-18.5c0.5-1.3,1.1-2.5,2-3.6
  c1.8-2.2,4.5-3.5,7.3-3.4c1.6,0,3.1,0.3,4.6,1C495.6,363.2,499.1,380.2,498.2,381z"/>
<path d="M453,379.7c0,0,11.1-0.2,13.3-13.6c0.2-1.3,0.3-2.7,0.4-4c1.3-8.1-1.1-19.2-12.2-19.8c-4.9-0.4-9.1,3-11.3,6.8
  c-0.7,1.1-1.2,2.3-1.6,3.5c-0.9,3.2-1.1,6.5-0.6,9.7C443.2,378,448.4,380.2,453,379.7z"/>
<path d="M499.4,347.9c0,0,12.4-1.3,22.6-18.9c1.4-2.4,3-4.8,4.7-7c0.7-0.8,1.4-1.5,2.1-2.2c2.2-1.5,16.2-14.8,12.3-22.3
  c-0.4-0.8-0.9-1.5-1.4-2.4c-8.4-13.1-26.6-4-25.2-4.5s-22.1,10-24.1,9.1s-30.4,1.6-30.2,2.6c0,0.2,0.7-0.4,0.5-0.2
  c-1.9,0.7-11.5,1.7-17.8,15.9c-2.1,4.9-0.4,8.4,3,10.9c1.2,0.9,2.5,1.6,3.9,2.2c5.3,2.5,16.9,5.2,16.9,5.2c3,5.6,9.3,8.4,16,11
  c0.8,0.3,1.6,0.5,2.5,0.7C490.2,349.3,495.2,349.6,499.4,347.9z"/>
<path d="M499.9,628.5c0,0-18.8,2.2-18.6-11.4s15.6-15.2,16.3-14.9s16.6-1.6,19.3,7.5c0.4,1.5,0.5,3.1,0.2,4.6
  c-0.4,5.2-3,10.2-6.8,12.3c-0.8,0.4-1.6,0.8-2.5,1C505.2,628.1,502.5,628.4,499.9,628.5z"/>
<path d="M461,582.3c0,0-1.8,15.8,21.2,16.6s21-13,20.7-12.8s3.9-11-19.3-15.2S460.5,582.8,461,582.3z"/>
<path d="M483.2,563.6c0,0-17.3-3.2-14.4-16.9s16.3-12,20.3-10.8c2.5,0.8,11.6,2.7,17.1,7.1c1.1,0.8,2.1,1.9,2.8,3
  c1.6,2.3,2,5.3,1.1,8c-0.4,1.5-1.2,2.9-2.2,4.1C501,566.2,483.8,564.7,483.2,563.6z"/>
<path d="M497.6,520.7c0,0-3,10.7,9.1,16.7c1.1,0.5,2.4,1,3.7,1.5c7.4,3.6,18.7,4.6,22.5-6c1.8-4.6-0.3-9.6-3.2-12.8
  c-0.9-0.9-1.8-1.8-2.9-2.5c-2.8-1.8-5.9-3-9.1-3.4C502.1,511.8,498.5,516.2,497.6,520.7z"/>
<path d="M514.6,574.3c0,0-2.4,12.3,11.5,27.1c1.9,2,3.7,4.2,5.3,6.5c0.6,0.9,1.1,1.8,1.5,2.7c0.8,2.5,9.5,19.8,17.8,18.3
  c0.8-0.2,1.7-0.4,2.7-0.6c15-4.2,11.5-24.3,11.6-22.8s-3.2-24-1.7-25.7s7.3-29.5,6.3-29.7c-0.2,0,0.1,0.8,0.1,0.5
  c-0.2-2,1.7-11.5-10.1-21.7c-4-3.5-7.9-2.8-11.3-0.3c-1.2,0.9-2.3,1.9-3.3,3c-3.9,4.4-9.9,14.7-9.9,14.7
  c-6.2,1.2-10.8,6.5-15.2,12.1c-0.5,0.7-1,1.4-1.4,2.1C515.9,565.1,514.2,569.9,514.6,574.3z"/>
<path d="M149.7,1127.1c0,0,1.5-18.9,14.9-16.1s11.9,18.3,11.4,18.9s-1.7,16.7-11.1,17.5c-1.6,0.1-3.1-0.1-4.6-0.7
  c-5.1-1.4-9.4-4.9-10.7-9.1c-0.3-0.9-0.4-1.8-0.5-2.7C149.1,1132.4,149.3,1129.8,149.7,1127.1z"/>
<path d="M202.6,1098.1c0,0-15.1-4.9-20.4,17.6s8.7,23.1,8.5,22.8s10,6,18.7-16S202.2,1097.4,202.6,1098.1z"/>
<path d="M216.6,1123.5c0,0,6.5-16.4,19.4-10.8s8.6,18.4,6.6,22c-1.2,2.2-4.9,10.8-10.3,15.4c-1,0.9-2.2,1.7-3.4,2.2
  c-2.6,1.1-5.6,0.9-8.1-0.5c-1.4-0.7-2.6-1.8-3.6-3C210.5,1140.4,215.5,1123.8,216.6,1123.5z"/>
<path d="M255.9,1146c0,0-9.9-5-18.1,5.7c-0.8,1-1.5,2.1-2.2,3.4c-5,6.5-8.1,17.5,1.4,23.2c4.2,2.7,9.4,1.6,13.2-0.6
  c1.1-0.6,2.1-1.4,3-2.3c2.3-2.3,4.1-5.2,5.1-8.3C263.7,1152.2,260.1,1147.8,255.9,1146z"/>
<path d="M199.9,1152.2c0,0-11.6-4.7-28.8,6c-2.4,1.5-4.9,2.8-7.4,3.9c-1,0.4-1.9,0.7-2.9,1c-2.6,0.3-21.3,5.4-21.5,13.9
  c0,0.8,0,1.8,0.1,2.7c1.2,15.6,21.5,16.1,20.1,15.8s24.2,1.6,25.5,3.4s27.5,13,27.8,12c0.1-0.2-0.8,0-0.5,0c2,0.2,11,3.9,23.2-5.6
  c4.2-3.3,4.3-7.2,2.5-11.1c-0.6-1.3-1.4-2.6-2.3-3.8c-3.5-4.7-12.5-12.6-12.5-12.6c0-6.3-4.2-11.8-8.9-17.3
  c-0.6-0.6-1.2-1.2-1.8-1.8C208.7,1155.3,204.4,1152.6,199.9,1152.2z"/>
<path d="M121.4,326.2c0,0,13.5-13.3,21.7-2.5s-3,21.6-3.7,21.8s-12.1,11.5-19.8,6c-1.2-0.9-2.3-2.1-3-3.5
  c-2.9-4.4-3.9-9.9-2.2-13.9c0.4-0.8,0.8-1.6,1.4-2.3C117.5,329.8,119.3,327.9,121.4,326.2z"/>
<path d="M180.4,338.8c0,0-8.3-13.6-26.9,0s-8.5,23.1-8.5,22.8s3.6,11.1,24.6,0.1S180.5,338,180.4,338.8z"/>
<path d="M174.4,367.2c0,0,15.6-8.1,21.7,4.4s-5.5,19.5-9.3,21c-2.4,0.9-10.8,5-17.9,5c-1.4,0-2.7-0.2-4.1-0.6
  c-2.7-0.9-4.8-2.9-5.8-5.6c-0.6-1.5-0.8-3.1-0.8-4.6C158.7,376,173.3,366.7,174.4,367.2z"/>
<path d="M189.4,409.8c0,0-4.2-10.3-17.4-7.5c-1.2,0.3-2.5,0.6-3.9,1.1c-8,1.7-17.6,7.9-14.1,18.5c1.4,4.7,6.1,7.4,10.4,8.1
  c1.3,0.2,2.5,0.3,3.8,0.2c3.3-0.3,6.5-1.3,9.3-3C191.3,419.6,191.5,414,189.4,409.8z"/>
<path d="M143,378c0,0-5.7-11.1-25.7-14.3c-2.8-0.4-5.5-1-8.2-1.9c-1-0.3-1.9-0.7-2.9-1.2c-2.2-1.5-19.7-9.8-25.3-3.5
  c-0.6,0.6-1.1,1.4-1.7,2.1c-9.2,12.6,5.8,26.2,4.9,25.1s17.3,17,17.1,19.2s12.4,27.8,13.2,27.3c0.1-0.1-0.6-0.6-0.4-0.4
  c1.4,1.5,5.8,10.1,21.2,10.9c5.3,0.3,7.9-2.7,9.1-6.8c0.4-1.4,0.6-2.9,0.7-4.4c0.4-5.8-1.2-17.7-1.2-17.7
  c4.1-4.7,4.5-11.7,4.6-18.9c0-0.8-0.1-1.7-0.2-2.5C147.7,386.1,146.1,381.3,143,378z"/>
<path style="fill:#F94331;" d="M607.7,1038.9c-21.3-4.8-43-8.2-63.7-14.6c-18-5.3-28.2-24.1-23-42.1c1.3-4.4,3.5-8.5,6.4-12
  c9-10.8,23.9-14.6,36.9-9.5l5.3,2.7c3.5-7.3,7.6-14.2,12.5-20.6c10.8-10.7,27.6-12.4,40.4-4.2c12.7,8.8,18.2,24.8,13.7,39.5
  c-5.3,12.8-11.2,25.3-17.8,37.5C614.9,1022.9,611.5,1030.8,607.7,1038.9z"/>
<path style="fill:#F94331;" d="M726.2,1088.8c17.2,13.6,35.2,26.1,51,40.9c13.9,12.6,14.9,34,2.3,47.9c-3.1,3.4-6.8,6.1-11,8
  c-12.8,5.8-27.8,2.7-37.4-7.6l-3.6-4.8c-6.3,5-13,9.4-20.2,13.1c-14.4,4.9-30.3-0.8-38.2-13.8c-7.6-13.4-5.7-30.2,4.8-41.6
  c10.3-9.2,21.1-17.9,32.4-26C712.7,1100.1,719.2,1094.5,726.2,1088.8z"/>
<path style="fill:#F94331;" d="M438.4,685.4c9.6,19.7,20.4,38.8,28.3,59c7.1,17.3-1.3,37.1-18.6,44.2c-4.3,1.7-8.8,2.6-13.4,2.5
  c-14-0.3-26.3-9.6-30.4-23l-1.2-5.8c-7.8,1.8-15.8,2.8-23.9,3.1c-15.1-1.8-26.9-13.9-28.4-29c-1-15.4,8-29.7,22.3-35.3
  c13.3-3.8,26.8-7,40.4-9.4C421.4,689.8,429.7,687.5,438.4,685.4z"/>
<path style="fill:#F94331;" d="M368.7,417.7c-7.4,20.6-13.5,41.7-22.5,61.4c-7.5,17.1-27.5,25-44.6,17.5c-4.2-1.8-8-4.5-11.2-7.9
  c-9.6-10.3-11.5-25.5-4.7-37.8l3.4-4.9c-6.8-4.4-13.1-9.4-18.8-15c-9.3-12.1-8.9-28.9,0.9-40.6c10.3-11.5,26.9-15,40.9-8.6
  c12,6.9,23.7,14.4,34.9,22.5C353.7,408.5,361.1,412.9,368.7,417.7z"/>
<path style="fill:#F94331;" d="M246.6,966.2c-5.5,21.2-9.7,42.7-16.9,63.2c-5.9,17.8-25.1,27.4-42.8,21.5c-4.4-1.4-8.4-3.8-11.8-6.8
  c-10.5-9.4-13.7-24.4-8.2-37.2l2.9-5.2c-7.1-3.7-13.9-8.1-20.1-13.2c-10.3-11.2-11.4-28-2.7-40.5c9.2-12.4,25.4-17.4,40-12.3
  c12.6,5.7,24.9,12.1,36.8,19.1C230.9,958.3,238.6,962.1,246.6,966.2z"/>
<path style="fill:#F94331;" d="M730.8,690.2c-21.7-2.8-43.6-4.3-64.8-8.8c-18.4-3.6-30.3-21.5-26.6-39.8c0.9-4.5,2.7-8.8,5.3-12.6
  c8-11.5,22.5-16.7,35.9-12.7l5.5,2.2c2.8-7.5,6.3-14.8,10.6-21.6c9.8-11.6,26.4-14.9,39.8-7.8c13.4,7.6,20.4,23,17.2,38.1
  c-4.1,13.2-8.9,26.3-14.4,39C736.6,673.6,733.9,681.7,730.8,690.2z"/>
<path style="fill:#F94331;" d="M996,332.8c17.4,13.3,35.7,25.4,51.8,40c14.1,12.3,15.5,33.7,3.2,47.8c-3,3.5-6.7,6.3-10.8,8.2
  c-12.7,6-27.8,3.3-37.5-6.9l-3.7-4.7c-6.2,5.1-12.9,9.7-19.9,13.5c-14.3,5.2-30.3-0.2-38.4-13.1c-7.9-13.3-6.2-30.1,4.1-41.6
  c10.2-9.4,20.8-18.3,31.9-26.6C982.7,344.3,989.2,338.6,996,332.8z"/>
<path style="fill:#F94331;" d="M1074,781.9c6.2-21,11.1-42.4,18.9-62.6c6.5-17.6,26-26.5,43.6-20c4.3,1.6,8.2,4,11.6,7.2
  c10.1,9.7,12.9,24.8,6.9,37.5l-3.1,5.1c7,3.9,13.6,8.6,19.7,13.8c9.9,11.5,10.5,28.4,1.4,40.6c-9.6,12.1-25.9,16.5-40.4,11
  c-12.4-6.1-24.5-12.9-36.2-20.3C1089.5,790.2,1081.9,786.2,1074,781.9z"/>
<path style="fill:#F94331;" d="M1098.1,1216.2c-17.3-13.4-35.5-25.6-51.5-40.2c-14-12.4-15.3-33.8-2.9-47.9c3-3.4,6.7-6.2,10.8-8.1
  c12.7-6,27.8-3.1,37.5,7.1l3.6,4.7c6.2-5.1,12.9-9.6,20-13.4c14.3-5.1,30.3,0.4,38.3,13.3c7.8,13.3,6,30.2-4.3,41.6
  c-10.2,9.4-20.9,18.2-32,26.4C1111.4,1204.8,1105,1210.4,1098.1,1216.2z"/>
<path style="fill:#F94331;" d="M641.9,305.8c-6.6-20.9-14.6-41.3-19.5-62.4c-4.5-18.2,6.6-36.5,24.8-41c4.5-1.1,9.1-1.3,13.6-0.5
  c13.8,2.3,24.6,13.3,26.8,27.2l0.3,5.9c8-0.7,16.1-0.5,24.1,0.4c14.7,3.9,24.6,17.6,24,32.8c-1.2,15.4-12.2,28.2-27.2,31.8
  c-13.7,1.9-27.5,3.1-41.4,3.5C659.4,304,650.8,305,641.9,305.8z"/>
<path style="fill:#F94331;" d="M387,152.8c17.4,13.3,35.7,25.4,51.8,39.9c14.1,12.3,15.5,33.7,3.2,47.8c-3,3.5-6.7,6.3-10.8,8.2
  c-12.7,6-27.7,3.3-37.5-6.8l-3.7-4.7c-6.2,5.1-12.9,9.7-19.9,13.5c-14.3,5.2-30.3-0.2-38.4-13.1c-7.9-13.3-6.2-30.1,4.1-41.6
  c10.2-9.4,20.8-18.3,31.9-26.6C373.7,164.3,380.2,158.6,387,152.8z"/>
<path style="fill:#F94331;" d="M951.7,168.4c14.6-16.3,28.2-33.5,44-48.4c13.4-13.1,34.9-12.8,48,0.7c3.2,3.3,5.7,7.2,7.3,11.5
  c5,13.1,1,28-9.9,36.8l-5,3.3c4.6,6.6,8.6,13.6,11.8,21c4,14.7-2.7,30.2-16.1,37.2c-13.9,6.7-30.5,3.7-41.1-7.5
  c-8.6-10.9-16.6-22.2-23.9-33.9C962.1,182.6,956.9,175.8,951.7,168.4z"/>
<path style="fill:#FFFFFF;" d="M640.3,491.7c-6,4.4-8.9,9.5-8,16.3c0.8,6.6,5,10.7,11,13.1c7,2.8,13.6,1.7,20.2-1.7c1.6-0.8,3.5-1,5.3-0.5
  c6.4,2.2,12.5,1.5,18.5-1.1c6.8-2.9,11.2-11.3,9.9-18.4s-7.7-12.5-16.2-14.2c-1.7-0.3-4-1.8-4.5-3.3c-1.7-5-3-10.2-4-15.4
  c-3.4-17.7-3.7-35.8-0.8-53.6c0.6-3.6,1.6-5.6,5-7.5c5.4-3,8.8-8,8.6-14.7c0.1-6-3.4-11.5-8.8-14c-7.2-3.6-14.3-3.8-21.4,0.4
  c-1.6,0.9-3.5,1.2-5.2,0.8c-5.5-2-11.6-1.8-17,0.6c-7.2,3.1-11.7,9.6-11.4,17.1c0.5,6.9,5.3,12.7,12,14.4c4.4,1.1,5.8,3.8,6.9,7.5
  c6.2,20.4,8.9,41.2,6.6,62.5C646.2,484.9,646.4,490.5,640.3,491.7z"/>
<path d="M640.3,491.7c6.1-1.1,5.9-6.7,6.5-11.8c2.3-21.3-0.4-42.1-6.6-62.5c-1.1-3.6-2.5-6.4-6.9-7.5c-6.7-1.7-11.5-7.5-12-14.4
  c-0.2-7.5,4.2-13.9,11.4-17.1c5.4-2.4,11.5-2.7,17-0.6c1.8,0.4,3.7,0.2,5.3-0.8c7.1-4.2,14.2-4.1,21.4-0.4c5.5,2.5,8.9,8,8.8,14
  c0.2,6.7-3.2,11.7-8.6,14.7c-3.4,1.9-4.5,3.9-5,7.5c-2.9,17.8-2.6,35.9,0.8,53.6c1,5.2,2.3,10.4,4,15.4c0.5,1.5,2.8,2.9,4.5,3.3
  c8.5,1.6,14.9,7,16.2,14.2s-3,15.5-9.9,18.4c-6,2.6-12.1,3.3-18.5,1.1c-1.8-0.5-3.7-0.3-5.3,0.5c-6.5,3.4-13.2,4.5-20.2,1.7
  c-6-2.4-10.1-6.5-11-13.1C631.5,501.2,634.3,496,640.3,491.7z"/>
<path style="fill:#FFFFFF;" d="M782.1,795c-7.2,1.7-11.8,5.3-13.7,11.9s0.5,11.8,5,16.3c5.4,5.3,11.9,6.8,19.2,6.3c1.8-0.1,3.6,0.4,5.1,1.5
  c5,4.5,11,6.2,17.5,6.2c7.4-0.1,14.7-6.1,16.2-13.2s-2.3-14.5-9.5-19.3c-1.4-1-3-3.2-2.9-4.8c0.4-5.3,1.2-10.6,2.3-15.8
  c3.7-17.6,10.5-34.5,20-49.7c1.9-3.1,3.7-4.5,7.5-5c6.1-0.7,11.2-4,13.6-10.2c2.4-5.5,1.3-11.8-2.7-16.2c-5.2-6.2-11.7-9-19.9-7.9
  c-1.8,0.2-3.6-0.2-5.1-1.3c-4.3-4-10-6.2-15.9-6c-7.8,0.1-14.5,4.3-17.1,11.3c-2.3,6.5,0,13.7,5.5,17.9c3.6,2.7,3.8,5.8,3.5,9.5
  c-2.2,21.2-7.8,41.5-18.1,60.2C790.2,791.2,788.2,796.4,782.1,795z"/>
<path d="M782.1,795c6.1,1.3,8.1-3.9,10.5-8.4c10.4-18.8,16-39,18.1-60.2c0.4-3.8,0.2-6.8-3.5-9.5c-5.5-4.1-7.7-11.4-5.5-17.9
  c2.7-7,9.3-11.2,17.1-11.3c5.9-0.2,11.6,2,15.9,6c1.5,1.1,3.3,1.6,5.1,1.3c8.2-1.1,14.7,1.8,19.9,7.9c4.1,4.4,5.1,10.8,2.7,16.3
  c-2.5,6.2-7.5,9.5-13.6,10.2c-3.9,0.5-5.6,1.9-7.5,5c-9.5,15.3-16.3,32.1-20,49.7c-1.1,5.2-1.9,10.5-2.3,15.8
  c-0.1,1.5,1.5,3.8,2.9,4.8c7.2,4.8,11,12.2,9.5,19.3s-8.8,13.1-16.2,13.2c-6.5,0-12.4-1.6-17.5-6.2c-1.5-1.1-3.3-1.7-5.1-1.5
  c-7.3,0.6-13.9-1-19.2-6.3c-4.6-4.5-6.8-9.9-5-16.3S774.9,796.7,782.1,795z"/>
<path style="fill:#FFFFFF;" d="M948.6,683.9c-6.2,4.1-9.2,9.2-8.6,16c0.6,6.6,4.6,10.8,10.4,13.5c6.9,3.1,13.5,2.2,20.2-0.9
  c1.7-0.8,3.6-0.9,5.3-0.3c6.3,2.5,12.4,2,18.5-0.3c6.9-2.7,11.7-10.9,10.6-18s-7.2-12.8-15.6-14.8c-1.7-0.4-3.9-2-4.4-3.4
  c-1.5-5.1-2.6-10.3-3.4-15.6c-2.7-17.8-2.3-35.9,1.3-53.6c0.7-3.6,1.9-5.5,5.3-7.3c5.5-2.8,9.1-7.7,9.2-14.4
  c0.3-6-2.9-11.6-8.3-14.3c-7-3.9-14.1-4.3-21.4-0.4c-1.6,0.8-3.5,1-5.3,0.5c-5.4-2.3-11.5-2.3-17,0c-7.3,2.8-12,9.1-12.1,16.6
  c0.2,6.9,4.8,12.9,11.4,14.8c4.4,1.3,5.6,4.1,6.6,7.7c5.4,20.7,7.2,41.5,4.1,62.8C954.8,677.4,954.8,683,948.6,683.9z"/>
<path d="M948.6,683.9c6.2-0.9,6.2-6.5,7-11.5c3.1-21.2,1.3-42.1-4.1-62.8c-1-3.7-2.2-6.4-6.6-7.7c-6.6-2-11.2-7.9-11.4-14.8
  c0-7.5,4.8-13.8,12.1-16.6c5.5-2.2,11.6-2.2,17,0c1.8,0.5,3.6,0.3,5.3-0.5c7.3-3.9,14.4-3.5,21.4,0.4c5.4,2.7,8.6,8.3,8.3,14.3
  c-0.1,6.7-3.7,11.6-9.2,14.4c-3.5,1.8-4.6,3.7-5.3,7.3c-3.6,17.6-4,35.8-1.3,53.6c0.7,5.3,1.8,10.5,3.3,15.6c0.4,1.5,2.7,3,4.4,3.4
  c8.4,2,14.6,7.6,15.6,14.8s-3.7,15.3-10.6,18c-6.1,2.3-12.2,2.8-18.5,0.3c-1.8-0.5-3.6-0.4-5.3,0.3c-6.7,3.1-13.3,4-20.2,0.9
  c-5.9-2.7-9.8-6.9-10.4-13.5C939.4,693,942.4,688,948.6,683.9z"/>
<path style="fill:#FFFFFF;" d="M1105.8,1014.5c-7,2.5-11.2,6.6-12.3,13.3c-1.1,6.6,1.8,11.6,6.8,15.6c5.9,4.7,12.6,5.5,19.8,4.1
  c1.8-0.3,3.7,0,5.2,1c5.5,3.9,11.6,5,18,4.2c7.4-0.9,14-7.7,14.7-14.8s-3.8-14.2-11.5-18.2c-1.5-0.8-3.3-2.9-3.4-4.4
  c-0.2-5.3,0-10.6,0.6-15.9c1.7-17.9,6.6-35.4,14.4-51.6c1.6-3.3,3.2-4.9,7-5.8c6-1.4,10.7-5.2,12.4-11.7c1.8-5.7,0-12-4.5-15.9
  c-5.8-5.5-12.6-7.7-20.6-5.7c-1.8,0.4-3.6,0.1-5.2-0.8c-4.7-3.5-10.6-5-16.5-4.2c-7.8,1-13.9,5.8-15.8,13.1
  c-1.5,6.7,1.4,13.6,7.4,17.2c3.9,2.3,4.4,5.3,4.5,9.1c0.2,21.3-3.2,42-11.5,61.8C1113.4,1009.8,1112,1015.2,1105.8,1014.5z"/>
<path d="M1105.8,1014.5c6.2,0.7,7.6-4.8,9.6-9.5c8.3-19.8,11.6-40.5,11.5-61.8c0-3.8-0.6-6.8-4.5-9.1c-5.9-3.5-8.9-10.4-7.4-17.2
  c1.9-7.3,8-12.2,15.8-13.1c5.8-0.8,11.7,0.7,16.5,4.2c1.6,0.9,3.5,1.2,5.2,0.8c8-2,14.8,0.2,20.6,5.7c4.5,3.9,6.3,10.2,4.5,15.9
  c-1.8,6.5-6.4,10.3-12.4,11.7c-3.8,0.9-5.4,2.5-7,5.8c-7.8,16.2-12.7,33.7-14.4,51.6c-0.6,5.3-0.8,10.6-0.6,15.9
  c0.1,1.5,1.8,3.6,3.4,4.4c7.7,4,12.2,11,11.5,18.2s-7.3,14-14.7,14.8c-6.4,0.8-12.5-0.2-18-4.2c-1.6-1-3.4-1.3-5.2-1
  c-7.2,1.4-13.9,0.6-19.8-4.1c-5-4-7.9-9.1-6.8-15.6C1094.6,1021.2,1098.8,1017,1105.8,1014.5z"/>
<path style="fill:#FFFFFF;" d="M884.1,1125.8c-7.3,1.2-12.2,4.6-14.4,11s-0.3,11.8,4,16.6c5,5.7,11.4,7.6,18.8,7.5c1.8,0,3.6,0.7,5,1.9
  c4.7,4.8,10.5,6.9,17,7.3c7.4,0.4,15.1-5.1,17.1-12.1s-1.3-14.7-8.2-19.9c-1.4-1-2.8-3.4-2.6-4.9c0.8-5.3,1.9-10.5,3.3-15.6
  c4.8-17.3,12.7-33.7,23.2-48.3c2.1-3,4-4.3,7.9-4.5c6.2-0.3,11.4-3.3,14.3-9.3c2.8-5.3,2.1-11.8-1.7-16.4
  c-4.8-6.5-11.1-9.8-19.3-9.2c-1.8,0.1-3.6-0.5-5-1.7c-4-4.3-9.6-6.8-15.5-7c-7.8-0.4-14.7,3.3-17.8,10.2c-2.7,6.3-1,13.7,4.3,18.2
  c3.5,3,3.5,6,2.8,9.7c-3.6,21.1-10.5,40.8-22,58.9C892.4,1122.4,890,1127.5,884.1,1125.8z"/>
<path d="M884.1,1125.8c6,1.7,8.3-3.3,11.1-7.7c11.6-18,18.5-37.8,22-58.9c0.6-3.7,0.6-6.8-2.8-9.7c-5.2-4.5-6.9-11.8-4.3-18.2
  c3.1-6.8,10-10.6,17.8-10.2c5.9,0.2,11.4,2.7,15.5,7c1.4,1.2,3.2,1.8,5,1.7c8.2-0.6,14.5,2.7,19.3,9.2c3.8,4.7,4.4,11.1,1.7,16.4
  c-2.8,6.1-8.1,9-14.3,9.3c-3.9,0.2-5.8,1.5-7.9,4.5c-10.5,14.6-18.4,31-23.2,48.3c-1.5,5.1-2.6,10.3-3.3,15.6
  c-0.2,1.5,1.2,3.9,2.6,4.9c6.9,5.3,10.2,12.9,8.2,19.9s-9.7,12.5-17.1,12.1c-6.5-0.4-12.3-2.4-17-7.3c-1.4-1.2-3.2-1.9-5-1.9
  c-7.4,0.1-13.8-1.9-18.8-7.5c-4.3-4.8-6.2-10.3-4-16.6S876.8,1127,884.1,1125.8z"/>
<path style="fill:#FFFFFF;" d="M357.1,945.8c-7.3,1.2-12.2,4.6-14.4,11s-0.3,11.8,4,16.6c5,5.7,11.4,7.6,18.8,7.5c1.8,0,3.6,0.7,5,1.9
  c4.7,4.8,10.5,6.9,17,7.3c7.4,0.4,15.1-5.1,17.1-12.1s-1.3-14.7-8.2-19.9c-1.4-1-2.8-3.4-2.6-4.9c0.8-5.3,1.9-10.5,3.3-15.6
  c4.8-17.3,12.7-33.7,23.2-48.3c2.1-3,4-4.3,7.9-4.5c6.2-0.3,11.4-3.3,14.3-9.3c2.8-5.3,2.1-11.8-1.7-16.4
  c-4.8-6.5-11.1-9.8-19.3-9.2c-1.8,0.1-3.6-0.5-5-1.7c-4-4.3-9.6-6.8-15.5-7c-7.8-0.4-14.7,3.3-17.8,10.2c-2.7,6.3-1,13.7,4.3,18.2
  c3.5,3,3.5,6,2.8,9.7c-3.6,21.1-10.5,40.8-22,58.9C365.4,942.4,363,947.5,357.1,945.8z"/>
<path d="M357.1,945.8c6,1.7,8.3-3.3,11.1-7.7c11.6-18,18.5-37.8,22-58.9c0.6-3.7,0.6-6.8-2.8-9.7c-5.2-4.5-6.9-11.8-4.3-18.2
  c3.1-6.8,10-10.6,17.8-10.2c5.9,0.2,11.4,2.7,15.5,7c1.4,1.2,3.2,1.8,5,1.7c8.2-0.5,14.5,2.7,19.3,9.2c3.8,4.7,4.4,11.1,1.6,16.5
  c-2.9,6.1-8.1,9-14.3,9.3c-3.9,0.2-5.8,1.5-7.9,4.5c-10.5,14.6-18.4,31-23.2,48.3c-1.5,5.1-2.6,10.3-3.3,15.6
  c-0.2,1.5,1.2,3.9,2.6,4.9c6.9,5.3,10.2,12.9,8.2,19.9s-9.6,12.5-17,12.1c-6.5-0.4-12.3-2.4-17-7.3c-1.4-1.2-3.2-1.9-5-1.9
  c-7.4,0.1-13.8-1.9-18.8-7.5c-4.3-4.8-6.2-10.3-4-16.6S349.8,947,357.1,945.8z"/>
<path style="fill:#FFFFFF;" d="M279.2,566.4c-4.3-6-9.4-9-16.2-8.2s-10.7,4.9-13.2,10.8c-2.9,7-1.9,13.6,1.4,20.2c0.8,1.6,1,3.5,0.5,5.3
  c-2.3,6.4-1.6,12.5,0.9,18.5c2.9,6.9,11.2,11.3,18.3,10.1s12.6-7.5,14.4-16c0.4-1.7,1.8-4,3.3-4.5c5.1-1.6,10.2-2.9,15.5-3.8
  c17.7-3.2,35.8-3.3,53.6-0.2c3.6,0.6,5.6,1.7,7.4,5.1c3,5.4,7.9,8.9,14.6,8.8c6.4-0.1,11.1-3,14.1-8.7c3.8-7.1,4-14.2-0.1-21.4
  c-0.9-1.6-1.1-3.5-0.7-5.2c2.1-5.5,2-11.6-0.4-17c-3.1-7.2-9.4-11.8-17-11.6c-6.9,0.4-12.7,5.1-14.5,11.8c-1.2,4.4-3.9,5.7-7.5,6.8
  c-20.5,6-41.3,8.4-62.6,5.8C285.9,572.5,280.3,572.6,279.2,566.4z"/>
<path d="M279.2,566.4c1,6.1,6.6,6,11.7,6.6c21.3,2.5,42.1,0.1,62.6-5.8c3.6-1.1,6.4-2.4,7.5-6.8c1.8-6.7,7.6-11.4,14.5-11.8
  c7.5-0.2,13.9,4.4,17,11.6c2.4,5.4,2.5,11.5,0.4,17c-0.5,1.8-0.2,3.7,0.7,5.2c4.1,7.2,3.9,14.3,0.1,21.4c-3,5.6-7.6,8.6-14.1,8.7
  c-6.7,0.1-11.7-3.4-14.6-8.8c-1.9-3.4-3.9-4.5-7.4-5.1c-17.7-3.1-35.9-3-53.6,0.2c-5.2,0.9-10.4,2.2-15.5,3.8
  c-1.5,0.5-3,2.8-3.3,4.5c-1.7,8.5-7.2,14.8-14.4,16s-15.4-3.2-18.3-10.1c-2.5-6-3.2-12.1-0.9-18.5c0.5-1.8,0.3-3.7-0.5-5.3
  c-3.3-6.6-4.3-13.2-1.4-20.2c2.5-5.9,6.6-10,13.2-10.8S275,560.4,279.2,566.4z"/>
<path style="fill:#FFFFFF;" d="M152.2,188.4c-4.3-6.1-9.4-9-16.2-8.2c-6.6,0.8-10.7,4.9-13.2,10.8c-2.9,7-1.9,13.6,1.4,20.2
  c0.8,1.6,1,3.5,0.5,5.3c-2.3,6.4-1.6,12.5,0.9,18.5c2.9,6.9,11.2,11.3,18.3,10.1s12.6-7.6,14.4-16c0.4-1.7,1.8-4,3.3-4.5
  c5.1-1.6,10.2-2.9,15.5-3.8c17.7-3.2,35.8-3.3,53.6-0.2c3.6,0.6,5.6,1.7,7.4,5.1c3,5.4,7.9,8.9,14.6,8.8c6.4-0.1,11.1-3,14.1-8.7
  c3.8-7.1,4-14.2-0.1-21.4c-0.9-1.6-1.1-3.5-0.7-5.2c2.1-5.5,2-11.6-0.4-17c-3.1-7.2-9.4-11.8-16.9-11.6
  c-6.9,0.4-12.7,5.1-14.5,11.8c-1.2,4.4-3.9,5.7-7.5,6.8c-20.5,6-41.3,8.4-62.6,5.8C158.9,194.4,153.3,194.6,152.2,188.4z"/>
<path d="M152.2,188.4c1.1,6.1,6.6,6,11.7,6.6c21.3,2.6,42.1,0.1,62.6-5.8c3.6-1.1,6.4-2.4,7.5-6.8c1.8-6.7,7.6-11.4,14.5-11.8
  c7.5-0.2,13.9,4.4,17,11.6c2.4,5.4,2.5,11.5,0.4,17c-0.5,1.8-0.2,3.7,0.7,5.2c4.1,7.2,3.9,14.3,0.1,21.4c-3,5.6-7.6,8.6-14.1,8.7
  c-6.7,0.1-11.7-3.4-14.6-8.8c-1.9-3.4-3.9-4.5-7.4-5.1c-17.7-3.1-35.9-3-53.6,0.2c-5.2,0.9-10.4,2.2-15.5,3.8
  c-1.5,0.5-3,2.8-3.3,4.5c-1.7,8.5-7.2,14.8-14.4,16s-15.4-3.2-18.3-10.1c-2.5-6-3.2-12.1-0.9-18.5c0.5-1.8,0.3-3.7-0.5-5.3
  c-3.3-6.6-4.3-13.2-1.4-20.2c2.5-5.9,6.6-10,13.2-10.8C142.8,179.4,148,182.4,152.2,188.4z"/>
<path style="fill:#FFFFFF;" d="M731.8,133.1c-4.8-5.7-10.1-8.2-16.8-6.8s-10.3,5.8-12.2,11.9c-2.3,7.2-0.7,13.7,3.1,20
  c0.9,1.6,1.3,3.4,0.9,5.2c-1.8,6.5-0.6,12.6,2.4,18.4c3.4,6.6,12.1,10.4,19.1,8.5s12-8.6,13-17.2c0.2-1.7,1.5-4.1,2.9-4.7
  c4.9-2,10-3.7,15.1-5.1c17.4-4.7,35.4-6.3,53.4-4.7c3.6,0.3,5.7,1.2,7.8,4.5c3.4,5.1,8.7,8.2,15.3,7.5c6-0.3,11.2-4.2,13.3-9.8
  c3.1-7.4,2.7-14.5-2-21.3c-1-1.5-1.4-3.4-1.1-5.2c1.6-5.7,1-11.7-1.8-16.9c-3.7-6.9-10.4-10.9-17.9-10.1c-6.8,0.9-12.3,6.2-13.5,13
  c-0.8,4.5-3.4,6-6.9,7.4c-19.9,7.7-40.5,11.8-61.9,11.1C738.9,138.6,733.3,139.1,731.8,133.1z"/>
<path d="M731.8,133.1c1.6,6,7.1,5.4,12.2,5.6c21.4,0.8,42-3.4,61.9-11.1c3.5-1.4,6.2-2.9,6.9-7.4c1.2-6.8,6.6-12.1,13.5-13
  c7.5-0.8,14.2,3.2,17.9,10.1c2.8,5.2,3.5,11.3,1.8,16.9c-0.3,1.8,0.1,3.7,1.1,5.2c4.7,6.8,5.1,13.9,2,21.3
  c-2.1,5.6-7.3,9.5-13.3,9.8c-6.7,0.6-11.9-2.4-15.3-7.5c-2.2-3.3-4.2-4.2-7.8-4.5c-17.9-1.6-36,0-53.4,4.7
  c-5.1,1.3-10.2,3-15.1,5.1c-1.4,0.6-2.7,3-2.9,4.7c-1,8.6-5.9,15.3-13,17.2s-15.7-1.9-19.1-8.5c-3-5.8-4.2-11.8-2.4-18.4
  c0.3-1.8,0-3.7-0.9-5.2c-3.8-6.3-5.4-12.8-3.1-20c2-6.1,5.7-10.6,12.2-11.9S727,127.4,731.8,133.1z"/>
<path style="fill:#FFFFFF;" d="M434.3,1093.3c-2.4-7-6.5-11.2-13.2-12.4s-11.6,1.7-15.7,6.7c-4.7,5.9-5.6,12.5-4.3,19.8c0.3,1.8,0,3.7-1,5.2
  c-4,5.5-5,11.5-4.3,18c0.8,7.4,7.6,14,14.8,14.8s14.2-3.7,18.3-11.4c0.8-1.5,2.9-3.3,4.4-3.4c5.3-0.1,10.6,0.1,15.9,0.7
  c17.9,1.9,35.3,6.9,51.5,14.8c3.3,1.6,4.9,3.2,5.7,7c1.3,6,5.1,10.7,11.6,12.5c5.7,1.8,12,0.1,16-4.4c5.6-5.8,7.8-12.6,5.8-20.6
  c-0.4-1.8-0.1-3.7,0.8-5.2c3.6-4.7,5.1-10.6,4.3-16.4c-0.9-7.8-5.8-13.9-13-15.9c-6.7-1.6-13.7,1.4-17.2,7.3
  c-2.3,3.9-5.3,4.4-9.1,4.4c-21.4,0-42-3.5-61.8-11.9C439,1100.9,433.6,1099.5,434.3,1093.3z"/>
<path d="M434.3,1093.3c-0.7,6.2,4.7,7.6,9.4,9.6c19.7,8.4,40.4,11.9,61.8,11.9c3.8,0,6.8-0.5,9.1-4.4c3.5-5.9,10.5-8.8,17.2-7.3
  c7.3,1.9,12.1,8.1,13,15.9c0.8,5.8-0.8,11.7-4.3,16.4c-0.9,1.6-1.2,3.4-0.8,5.2c1.9,8-0.2,14.8-5.8,20.6c-4,4.5-10.2,6.2-16,4.4
  c-6.5-1.8-10.3-6.5-11.6-12.5c-0.8-3.8-2.4-5.4-5.7-7c-16.2-7.9-33.6-12.9-51.5-14.8c-5.3-0.6-10.6-0.8-15.9-0.7
  c-1.5,0-3.6,1.8-4.4,3.4c-4,7.6-11,12.2-18.3,11.4s-13.9-7.4-14.8-14.8c-0.7-6.5,0.3-12.5,4.3-18c1-1.6,1.3-3.4,1-5.2
  c-1.3-7.2-0.5-13.9,4.3-19.8c4-5,9.1-7.8,15.7-6.7S431.9,1086.3,434.3,1093.3z"/>
<path d="M150.1,668.1c4.7-4.1,1.6-8.8-0.5-13.5c-9-19.4-22-35.9-37.9-50.2c-2.8-2.5-5.4-4.2-9.7-2.8c-6.6,2-13.7-0.5-17.6-6.1
  c-4.1-6.3-3.6-14.1,1-20.5c3.3-4.9,8.4-8.2,14.2-9.3c1.7-0.6,3.2-1.8,4.1-3.3c4-7.3,10.1-10.8,18.1-11.4c6.4-0.4,11.3,2,14.8,7.4
  c3.6,5.7,3.3,11.7,0.2,17.1c-1.9,3.4-1.8,5.7-0.5,9c6.7,16.7,16.3,32.1,28.3,45.5c3.5,4,7.3,7.7,11.4,11.1c1.2,1,3.9,1.1,5.5,0.5
  c8.1-3,16.4-1.7,21.2,3.8s5.4,14.8,1,20.9c-3.8,5.3-8.6,9.1-15.3,10.5c-1.8,0.5-3.3,1.7-4.2,3.2c-3.9,6.3-9,10.6-16.4,11.8
  c-6.4,1-12-0.3-16.1-5.5S147.2,675,150.1,668.1z"/>
<path d="M-11.6,788.1c5.6,2.7,8.8-1.9,12.2-5.6c14.5-15.8,24.7-34.1,31.9-54.2c1.3-3.6,1.8-6.6-1.1-10.1
  c-4.4-5.3-4.8-12.9-1.1-18.6c4.3-6.2,11.7-8.7,19.3-7c5.7,1.2,10.8,4.7,14,9.6c1.2,1.4,2.8,2.3,4.7,2.5c8.2,0.9,13.9,5.2,17.5,12.4
  c2.9,5.2,2.4,11.7-1.2,16.5c-3.8,5.5-9.6,7.5-15.7,6.8c-3.9-0.5-5.9,0.5-8.5,3c-12.9,12.6-23.4,27.3-31.2,43.6
  c-2.3,4.8-4.3,9.7-6,14.8c-0.5,1.5,0.5,4,1.7,5.3c5.9,6.4,7.8,14.5,4.6,21s-11.6,10.6-18.9,8.9c-6.3-1.5-11.7-4.5-15.5-10.1
  c-1.1-1.4-2.8-2.4-4.6-2.7c-7.3-1.2-13.2-4.2-17.2-10.6c-3.4-5.5-4.3-11.2-1.1-17S-19,788.1-11.6,788.1z"/>
<path style="fill:#F94331;" d="M13.9,622.2C-7.2,627.9-28,635-49.3,638.9c-18.3,3.7-36.2-8.2-39.9-26.5c0,0,0,0,0,0
  c-0.9-4.5-0.9-9.1,0.1-13.6c2.9-13.7,14.3-24,28.3-25.6h6c-0.3-8,0.2-16.1,1.5-24c4.6-14.5,18.6-23.9,33.8-22.5
  c15.3,1.9,27.7,13.4,30.5,28.6c1.3,13.8,1.8,27.6,1.7,41.5C12.8,604.6,13.5,613.2,13.9,622.2z"/>
<path style="fill:#F94331;" d="M23.9,1170.9c-21.8-2-43.7-2.6-65.1-6.4c-18.5-3-31.1-20.3-28.1-38.8c0.7-4.5,2.4-8.8,4.8-12.7
  c7.5-11.9,21.8-17.6,35.5-14.1l5.6,2c2.5-7.6,5.8-15,9.7-22c9.4-12,25.8-15.9,39.5-9.3c13.7,7.1,21.3,22.2,18.6,37.4
  c-3.6,13.4-7.9,26.5-12.9,39.5C29.1,1154.1,26.7,1162.3,23.9,1170.9z"/>
<path d="M4.9-1.1c0,0-11.8,4.2-17.4,23.7c-0.8,2.7-1.7,5.3-2.9,7.9c-0.5,0.9-1,1.8-1.5,2.7c-1.7,2-12.2,18.3-6.6,24.7
  c0.6,0.6,1.2,1.3,1.9,2c11.3,10.7,26.8-2.5,25.5-1.7s19-15,21.2-14.6s29.1-8.8,28.7-9.8c-0.1-0.2-0.6,0.5-0.4,0.4
  c1.7-1.2,10.8-4.5,13.4-19.8c0.9-5.2-1.7-8.2-5.6-9.9c-1.4-0.6-2.8-1-4.3-1.2c-5.7-1.1-17.7-1-17.7-1C35-2.4,28.2-3.7,21.1-4.6
  c-0.8-0.1-1.7-0.1-2.5-0.1C13.5-4.8,8.5-3.8,4.9-1.1z"/>
<path d="M56.4,941.6c0,0,13,13.8,2,21.8s-21.5-3.4-21.7-4.2s-11.2-12.4-5.5-20c1-1.2,2.2-2.3,3.6-3c4.4-2.8,10-3.7,13.9-1.9
  c0.8,0.4,1.6,0.9,2.3,1.4C52.9,937.5,54.8,939.5,56.4,941.6z"/>
<path d="M42.6,1000.3c0,0,13.8-8,0.6-26.9s-23-9-22.6-9s-11.1,3.4-0.7,24.6S43.3,1000.5,42.6,1000.3z"/>
<path d="M14.3,993.7c0,0,7.8,15.8-4.9,21.6s-19.4-6-20.8-9.8c-0.9-2.4-4.8-10.9-4.6-18c0-1.4,0.2-2.7,0.7-4
  c0.9-2.7,3.1-4.8,5.7-5.7c1.5-0.5,3.1-0.8,4.6-0.7C5.8,977.8,14.8,992.6,14.3,993.7z"/>
<path d="M4.2,962.1c0,0,11.3-5.4,14.8-25.4c0.5-2.8,1.2-5.5,2.1-8.1c0.4-1,0.8-1.9,1.2-2.8c1.5-2.2,10.3-19.5,4.1-25.2
  c-0.6-0.6-1.3-1.2-2.1-1.8C12,889.2-2,904-0.9,903.1s-17.4,16.9-19.6,16.7s-28,11.8-27.5,12.6c0.1,0.2,0.6-0.6,0.4-0.4
  c-1.5,1.3-10.3,5.5-11.3,21c-0.4,5.3,2.5,8,6.6,9.2c1.4,0.4,2.9,0.7,4.4,0.8c5.8,0.5,17.7-0.8,17.7-0.8c4.6,4.2,11.6,4.8,18.8,5
  c0.8,0,1.7-0.1,2.5-0.2C-4,966.5,0.9,965.1,4.2,962.1z"/>
<path d="M-26.9,430.6c6.2-0.5,6.6-6.1,7.6-11.1c4.4-21,3.8-41.9-0.3-62.9c-0.7-3.7-1.8-6.6-6.1-8.1c-6.5-2.3-10.7-8.6-10.5-15.5
  c0.5-7.5,5.6-13.5,13-15.9c5.6-1.9,11.7-1.5,17,1.1c1.7,0.6,3.6,0.5,5.3-0.2c7.5-3.5,14.6-2.6,21.3,1.7c5.2,3,8.1,8.8,7.4,14.8
  c-0.4,6.2-4.3,11.5-10,13.8c-3.6,1.6-4.8,3.4-5.8,7c-4.6,17.4-6.2,35.5-4.5,53.4C8,414,8.8,419.2,10,424.4c0.4,1.5,2.5,3.2,4.1,3.7
  c8.3,2.5,14.1,8.5,14.7,15.7s-4.6,15.1-11.7,17.3c-6.2,2-12.4,2.1-18.5-0.8c-1.7-0.7-3.6-0.7-5.3,0c-6.9,2.7-13.5,3.2-20.2-0.4
  c-5.7-3-9.4-7.4-9.6-14.1C-36.7,439.2-33.3,434.3-26.9,430.6z"/>
<path style="fill:#F94331;" d="M-39.1,233.3c-10.8-19-22.9-37.3-32-57c-8.2-16.8-1.2-37.1,15.7-45.3c0,0,0,0,0,0c4.1-2,8.6-3.2,13.2-3.4
  c14-0.6,26.9,7.9,31.8,21l1.5,5.7c7.7-2.3,15.6-3.9,23.6-4.6c15.2,0.8,27.8,12,30.2,27c2,15.3-6,30.2-20,36.7
  c-13,4.7-26.3,8.7-39.8,12C-22.4,227.9-30.5,230.6-39.1,233.3z"/>
<path d="M1286.4,788.1c5.6,2.7,8.8-1.9,12.2-5.6c14.5-15.8,24.7-34.1,31.8-54.2c1.3-3.6,1.8-6.6-1.1-10.1
  c-4.4-5.3-4.8-12.9-1.1-18.6c4.3-6.2,11.7-8.7,19.3-7c5.7,1.2,10.8,4.7,14,9.6c1.2,1.4,2.8,2.3,4.7,2.5c8.2,0.9,13.9,5.2,17.5,12.4
  c2.9,5.2,2.4,11.7-1.2,16.5c-3.8,5.5-9.6,7.5-15.7,6.7c-3.9-0.5-5.9,0.5-8.5,3c-12.9,12.6-23.4,27.3-31.2,43.6
  c-2.3,4.8-4.3,9.7-6,14.8c-0.5,1.5,0.5,4,1.7,5.3c5.8,6.4,7.8,14.5,4.6,21s-11.7,10.6-18.9,8.9c-6.3-1.5-11.7-4.5-15.5-10.1
  c-1.1-1.4-2.8-2.4-4.6-2.7c-7.3-1.2-13.2-4.2-17.2-10.6c-3.4-5.5-4.3-11.2-1.1-17S1279,788.1,1286.4,788.1z"/>
<path style="fill:#F94331;" d="M1311.9,622.2c-21.1,5.7-41.9,12.8-63.2,16.7c-18.3,3.7-36.2-8.2-39.9-26.5c-0.9-4.5-0.9-9.2,0.1-13.6
  c2.9-13.7,14.3-24,28.3-25.6h6c-0.3-8,0.2-16.1,1.5-24c4.6-14.5,18.6-23.9,33.8-22.5c15.3,1.9,27.7,13.4,30.5,28.6
  c1.3,13.8,1.8,27.6,1.7,41.5C1310.8,604.6,1311.5,613.2,1311.9,622.2z"/>
<path style="fill:#F94331;" d="M1321.9,1170.9c-21.8-2-43.7-2.6-65.1-6.4c-18.5-3-31.1-20.3-28.1-38.8c0.7-4.5,2.4-8.9,4.8-12.7
  c7.5-11.8,21.8-17.5,35.4-14.1l5.6,2c2.5-7.6,5.8-15,9.7-22c9.4-12,25.8-15.9,39.5-9.3c13.7,7.1,21.3,22.2,18.7,37.4
  c-3.6,13.4-7.9,26.5-12.9,39.5C1327.1,1154.1,1324.7,1162.3,1321.9,1170.9z"/>
<path d="M1248.8,13.9c0,0-11.5-15,0.3-21.9s21.1,5.6,21.2,6.4s9.9,13.5,3.5,20.4c-1.1,1.1-2.4,2-3.8,2.6c-4.7,2.3-10.3,2.7-14,0.4
  c-0.8-0.5-1.5-1-2.1-1.7C1251.9,18.3,1250.3,16.2,1248.8,13.9z"/>
<path d="M1302.9-1.1c0,0-11.8,4.2-17.4,23.7c-0.8,2.7-1.7,5.3-2.9,7.9c-0.5,0.9-1,1.8-1.5,2.7c-1.7,2-12.2,18.3-6.7,24.7
  c0.6,0.6,1.2,1.3,1.9,2c11.3,10.7,26.8-2.5,25.5-1.7s19-15,21.2-14.6s29.1-8.8,28.7-9.8c-0.1-0.2-0.6,0.5-0.4,0.4
  c1.7-1.2,10.8-4.5,13.4-19.7c0.9-5.2-1.7-8.2-5.6-9.9c-1.4-0.6-2.8-1-4.3-1.2c-5.7-1.1-17.7-1-17.7-1c-4.2-4.7-11.1-5.9-18.2-6.9
  c-0.8-0.1-1.7-0.1-2.5-0.1C1311.5-4.8,1306.5-3.8,1302.9-1.1z"/>
<path d="M1312.3,993.7c0,0,7.8,15.8-4.9,21.6s-19.4-6-20.8-9.8c-0.8-2.4-4.8-10.9-4.6-18c0-1.4,0.2-2.7,0.7-4
  c0.9-2.7,3.1-4.8,5.7-5.7c1.5-0.5,3.1-0.8,4.6-0.7C1303.8,977.8,1312.8,992.6,1312.3,993.7z"/>
<path d="M1269.3,1007.8c0,0,10.4-4,7.9-17.3c-0.2-1.2-0.6-2.5-1-3.9c-1.5-8.1-7.5-17.7-18.2-14.5c-4.8,1.3-7.5,5.9-8.4,10.2
  c-0.3,1.2-0.4,2.5-0.3,3.8c0.2,3.3,1.1,6.5,2.7,9.4C1259.5,1009.5,1265.1,1009.8,1269.3,1007.8z"/>
<path d="M1302.2,962.1c0,0,11.3-5.4,14.9-25.4c0.5-2.8,1.2-5.5,2.1-8.1c0.4-1,0.8-1.9,1.2-2.8c1.5-2.2,10.3-19.5,4.1-25.2
  c-0.6-0.6-1.3-1.2-2.1-1.8c-12.4-9.5-26.3,5.2-25.2,4.3s-17.4,16.9-19.6,16.7s-28,11.8-27.6,12.6c0.1,0.2,0.6-0.6,0.4-0.4
  c-1.6,1.3-10.3,5.5-11.3,21c-0.4,5.3,2.5,8,6.6,9.2c1.4,0.4,2.9,0.7,4.4,0.8c5.8,0.5,17.7-0.8,17.7-0.8c4.7,4.2,11.6,4.8,18.8,5
  c0.8,0,1.7-0.1,2.5-0.2C1294,966.5,1298.8,965.1,1302.2,962.1z"/>
<path d="M1271.1,430.6c6.2-0.5,6.6-6.1,7.6-11.1c4.4-21,3.8-41.9-0.3-62.9c-0.7-3.7-1.8-6.6-6.1-8.1c-6.5-2.3-10.7-8.6-10.5-15.5
  c0.5-7.5,5.6-13.5,13.1-15.9c5.6-1.9,11.7-1.5,17,1.1c1.7,0.6,3.6,0.5,5.3-0.2c7.5-3.5,14.6-2.6,21.3,1.7c5.2,3,8.1,8.8,7.4,14.8
  c-0.4,6.2-4.3,11.5-10,13.8c-3.6,1.6-4.8,3.4-5.8,7c-4.6,17.4-6.2,35.5-4.5,53.4c0.4,5.3,1.2,10.5,2.4,15.7
  c0.3,1.5,2.5,3.2,4.2,3.7c8.3,2.5,14.1,8.5,14.7,15.7s-4.6,15.1-11.7,17.3c-6.2,2-12.4,2.1-18.5-0.8c-1.7-0.7-3.6-0.7-5.3,0
  c-6.8,2.7-13.5,3.2-20.2-0.4c-5.7-3-9.4-7.4-9.6-14.1C1261.3,439.2,1264.7,434.3,1271.1,430.6z"/>
<path style="fill:#F94331;" d="M1258.9,233.3c-10.8-19-22.9-37.3-32-57c-8.2-16.8-1.1-37.1,15.7-45.3c4.1-2,8.6-3.1,13.2-3.4
  c14-0.6,26.9,7.9,31.8,21l1.5,5.7c7.7-2.3,15.6-3.9,23.6-4.6c15.2,0.8,27.7,12,30.2,27c2,15.3-6,30.2-20,36.7
  c-13,4.7-26.3,8.7-39.8,12C1275.6,227.9,1267.5,230.6,1258.9,233.3z"/>
<path d="M808,328.4c5.5,2.8,8.8-1.7,12.3-5.4c14.8-15.5,25.3-33.6,32.8-53.6c1.3-3.5,1.9-6.5-0.9-10.1c-4.3-5.4-4.6-12.9-0.7-18.7
  c4.4-6.1,11.8-8.5,19.4-6.6c5.7,1.3,10.7,4.9,13.8,9.8c1.2,1.4,2.8,2.4,4.6,2.6c8.2,1,13.8,5.4,17.2,12.7
  c2.8,5.3,2.2,11.8-1.5,16.5c-4,5.4-9.7,7.3-15.8,6.5c-3.9-0.6-5.9,0.4-8.6,2.9c-13.1,12.3-23.9,26.9-31.9,43
  c-2.4,4.7-4.5,9.6-6.2,14.7c-0.5,1.5,0.4,4,1.6,5.3c5.7,6.5,7.5,14.6,4.2,21.1s-11.8,10.4-19,8.6c-6.3-1.6-11.6-4.7-15.3-10.4
  c-1.1-1.5-2.7-2.4-4.5-2.8c-7.2-1.3-13.2-4.4-17-10.9c-3.3-5.5-4.1-11.3-0.8-17S800.6,328.2,808,328.4z"/>
<path d="M1155.6,363.5c4.3-4.5,1-8.9-1.5-13.4c-10.4-18.7-24.7-34.1-41.5-47.2c-3-2.3-5.7-3.8-9.9-2.1c-6.4,2.5-13.7,0.5-18-4.8
  c-4.6-6-4.6-13.8-0.6-20.5c3-5.1,7.8-8.8,13.5-10.3c1.7-0.7,3.1-2,3.8-3.6c3.4-7.5,9.3-11.6,17.2-12.7c5.9-1.1,11.9,1.4,15.3,6.3
  c4,5.4,4.1,11.4,1.5,17c-1.7,3.5-1.4,5.8,0.2,9c7.9,16.2,18.6,30.8,31.6,43.2c3.8,3.7,7.9,7.1,12.2,10.3c1.2,0.9,4,0.8,5.6,0
  c7.9-3.6,16.2-2.9,21.4,2.2s6.5,14.4,2.6,20.7c-3.4,5.5-7.9,9.7-14.4,11.6c-1.7,0.6-3.1,1.9-4,3.5c-3.4,6.5-8.2,11.3-15.5,13
  c-6.3,1.5-12,0.6-16.5-4.3S1153.2,370.6,1155.6,363.5z"/>
<path d="M1125.3,105.1c6.2-0.4,6.7-6,7.9-11c4.8-20.9,4.7-41.8,1-62.9c-0.7-3.7-1.7-6.6-5.9-8.2c-6.4-2.5-10.5-8.8-10.2-15.6
  c0.7-7.5,5.9-13.3,13.4-15.6c5.6-1.8,11.7-1.3,16.9,1.4c1.7,0.6,3.6,0.6,5.3-0.1c7.6-3.3,14.6-2.3,21.3,2.2c5.1,3.1,7.9,9,7.1,14.9
  c-0.7,6.7-4.6,11.2-10.3,13.6c-3.6,1.5-4.9,3.3-5.9,6.8c-5,17.3-6.9,35.3-5.6,53.3c0.3,5.3,1,10.6,2.1,15.8
  c0.3,1.5,2.4,3.2,4.1,3.8c8.2,2.7,13.9,8.8,14.4,16s-4.9,15-12,17.1c-6.2,1.8-12.4,1.9-18.5-1.1c-1.7-0.7-3.6-0.7-5.3-0.1
  c-6.9,2.6-13.6,2.9-20.2-0.8c-5.6-3.1-9.3-7.6-9.3-14.3C1115.3,113.5,1118.8,108.7,1125.3,105.1z"/>
<path d="M923.4,19.6c0,0-12.7-14-1.6-21.8s21.5,3.8,21.6,4.6s11,12.6,5.2,20.1c-1,1.2-2.2,2.2-3.6,2.9c-4.5,2.7-10,3.5-13.9,1.6
  c-0.8-0.4-1.6-0.9-2.3-1.5C926.8,23.7,925,21.7,923.4,19.6z"/>
<path d="M976,0c0,0-11.4,5.2-15.3,25.1c-0.5,2.8-1.3,5.5-2.2,8.1c-0.4,1-0.8,1.9-1.3,2.8c-1.5,2.1-10.6,19.3-4.5,25.1
  c0.6,0.6,1.3,1.2,2.1,1.8c12.2,9.7,26.4-4.8,25.3-3.9s17.7-16.6,19.9-16.3s28.3-11.3,27.8-12.1c-0.1-0.1-0.6,0.6-0.4,0.4
  c1.6-1.3,10.4-5.3,11.7-20.8c0.5-5.3-2.3-8-6.4-9.4c-1.4-0.4-2.9-0.7-4.4-0.9c-5.8-0.6-17.7,0.5-17.7,0.5c-4.6-4.3-11.5-5-18.7-5.3
  c-0.8,0-1.7,0-2.5,0.1C984.2-4.3,979.3-2.9,976,0z"/>
<path d="M134.8,67.9c5.5,2.9,8.8-1.6,12.4-5.3c15-15.3,25.7-33.4,33.4-53.3c1.4-3.5,2-6.5-0.8-10.1c-4.2-5.4-4.4-13-0.5-18.7
  c4.4-6.1,11.9-8.4,19.5-6.4c5.7,1.4,10.7,5,13.7,10c1.1,1.4,2.8,2.4,4.6,2.6c8.2,1.1,13.7,5.6,17.1,12.9c2.8,5.3,2.1,11.8-1.7,16.4
  c-4,5.4-9.8,7.2-15.9,6.3c-3.9-0.6-5.9,0.3-8.6,2.8c-13.2,12.2-24.2,26.6-32.4,42.7c-2.5,4.7-4.6,9.6-6.4,14.6
  c-0.5,1.5,0.4,4,1.5,5.3c5.7,6.5,7.4,14.7,4,21.2s-12,10.3-19.1,8.4c-6.3-1.7-11.6-4.8-15.2-10.6c-1.1-1.5-2.7-2.5-4.5-2.8
  c-7.2-1.4-13.1-4.6-16.9-11.1c-3.2-5.6-4-11.3-0.6-17S127.3,67.7,134.8,67.9z"/>
<path style="fill:#F94331;" d="M360.9,18.4c-19.1-10.6-39-19.9-57-32c-15.7-10.1-20.3-31.1-10.2-46.8c2.5-3.9,5.7-7.2,9.5-9.8
  c11.7-7.8,27-7.3,38.1,1.3l4.3,4.1c5.4-6,11.3-11.4,17.8-16.2c13.4-7.2,30-4.2,39.9,7.3c9.7,12,10.5,28.9,2,41.8
  c-8.7,10.8-17.9,21.2-27.7,31C372.4,5.1,366.9,11.7,360.9,18.4z"/>
<path d="M632.9,26c0,0,14.3-7,2.5-26.8s-22.3-10.6-21.9-10.5s-11.4,2.6-2.4,24.5S633.6,26.2,632.9,26z"/>
<path d="M605.2,17.5c0,0,6.7,16.3-6.4,21.2s-18.9-7.3-20-11.2c-0.7-2.5-4-11.2-3.3-18.2c0.1-1.4,0.5-2.7,1-4c1.1-2.6,3.3-4.5,6-5.3
  c1.5-0.4,3.1-0.5,4.7-0.3C597.8,1,605.7,16.4,605.2,17.5z"/>
<path d="M561.3,28.5c0,0,10.6-3.2,9.1-16.7c-0.2-1.3-0.4-2.7-0.7-4c-1-8.2-6.3-18.2-17.2-15.7c-4.9,1-7.9,5.4-9.1,9.6
  c-0.3,1.2-0.5,2.5-0.5,3.8c0,3.3,0.7,6.5,2.1,9.5C551.3,29.5,557,30.2,561.3,28.5z"/>
<path d="M493.1,162.4c5.4-3.1,3.3-8.3,2-13.3c-5.1-20.8-14.8-39.4-27.6-56.5c-2.3-3-4.5-5.1-9-4.7c-6.9,0.7-13.4-3.1-16.1-9.4
  c-2.8-7-0.8-14.5,4.9-20c4.2-4.1,9.9-6.4,15.8-6.3c1.8-0.2,3.5-1.1,4.7-2.5c5.3-6.4,12-8.7,20-7.7c6,0.5,11.1,4.4,13.1,10.1
  c2.4,6.2,1,12.1-3,16.8c-2.5,3-2.9,5.2-2.2,8.8c3.4,17.7,9.9,34.6,19.1,50.1c2.7,4.6,5.7,9,9,13.1c1,1.2,3.6,1.8,5.3,1.5
  c8.5-1.4,16.4,1.5,20.1,7.8s2.4,15.6-3,20.7c-4.7,4.5-10.2,7.3-17,7.4c-1.8,0.2-3.5,1-4.8,2.3c-5,5.4-10.8,8.7-18.4,8.5
  c-6.4-0.2-11.7-2.6-14.8-8.5S489,168.6,493.1,162.4z"/>
<path d="M747.8,12.9c5.5,2.9,8.8-1.6,12.4-5.3c15-15.4,25.7-33.4,33.4-53.3c1.4-3.5,2-6.5-0.8-10.1c-4.2-5.4-4.4-13-0.5-18.7
  c4.4-6.1,11.9-8.3,19.5-6.4c5.7,1.4,10.7,5,13.7,10c1.1,1.4,2.8,2.4,4.6,2.6c8.2,1.1,13.7,5.6,17.1,12.9c2.8,5.3,2.1,11.8-1.7,16.4
  c-4,5.4-9.8,7.2-15.9,6.3c-3.8-0.6-5.9,0.3-8.6,2.8c-13.2,12.2-24.2,26.6-32.4,42.7c-2.5,4.7-4.6,9.6-6.4,14.6
  c-0.5,1.5,0.4,4,1.5,5.3c5.7,6.5,7.4,14.7,4,21.1s-12,10.3-19.1,8.4c-6.3-1.7-11.6-4.8-15.2-10.5c-1.1-1.5-2.7-2.5-4.5-2.8
  c-7.2-1.4-13.1-4.6-16.9-11.1c-3.2-5.6-4-11.3-0.6-17S740.3,12.6,747.8,12.9z"/>
<path d="M-2,1259.3c0,0-6.1-16.5,7.1-21s18.7,7.9,19.6,11.9c0.6,2.5,3.6,11.3,2.7,18.3c-0.1,1.4-0.5,2.7-1.1,4
  c-1.2,2.6-3.5,4.4-6.3,5.1c-1.5,0.4-3.1,0.4-4.7,0.2C4.9,1276-2.6,1260.4-2,1259.3z"/>
<path d="M42.2,1249.8c0,0-10.7,2.9-9.7,16.4c0.1,1.2,0.3,2.6,0.6,4c0.7,8.2,5.7,18.4,16.6,16.2c4.9-0.8,8.1-5.1,9.4-9.3
  c0.4-1.2,0.6-2.5,0.7-3.8c0.1-3.3-0.5-6.6-1.8-9.6C52.2,1249.1,46.6,1248.2,42.2,1249.8z"/>
<path d="M4.9,1291.8c0,0-11.8,4.2-17.4,23.7c-0.8,2.7-1.7,5.3-2.9,7.9c-0.5,0.9-1,1.8-1.5,2.7c-1.7,2-12.2,18.3-6.6,24.7
  c0.6,0.6,1.2,1.3,1.9,2c11.3,10.7,26.8-2.5,25.5-1.7s19-15,21.2-14.6s29.1-8.8,28.7-9.8c-0.1-0.2-0.6,0.5-0.4,0.4
  c1.7-1.2,10.8-4.4,13.4-19.7c0.9-5.2-1.7-8.2-5.6-9.9c-1.4-0.6-2.8-1-4.3-1.2c-5.7-1.1-17.7-1-17.7-1c-4.2-4.7-11.1-6-18.2-6.9
  c-0.8-0.1-1.7-0.1-2.5-0.1C13.5,1288.2,8.5,1289.2,4.9,1291.8z"/>
<path d="M1248.8,1306.9c0,0-11.5-15,0.3-21.9s21.1,5.6,21.2,6.4s9.9,13.5,3.5,20.4c-1.1,1.1-2.4,2-3.8,2.6
  c-4.7,2.3-10.3,2.7-14,0.4c-0.8-0.5-1.5-1-2.1-1.7C1251.9,1311.3,1250.3,1309.2,1248.8,1306.9z"/>
<path d="M1268.6,1249.9c0,0-14.5,6.5-3.4,26.7s21.9,11.3,21.6,11.2s11.4-2.2,3.2-24.4S1267.9,1249.7,1268.6,1249.9z"/>
<path d="M1296,1259.3c0,0-6.1-16.5,7.1-21s18.7,7.9,19.6,11.9c0.6,2.5,3.7,11.3,2.7,18.3c-0.1,1.4-0.5,2.7-1.1,4
  c-1.2,2.6-3.5,4.4-6.3,5.1c-1.5,0.4-3.1,0.4-4.7,0.2C1302.9,1276,1295.4,1260.4,1296,1259.3z"/>
<path d="M1302.9,1291.8c0,0-11.8,4.2-17.4,23.7c-0.8,2.7-1.7,5.3-2.9,7.9c-0.5,0.9-1,1.8-1.5,2.7c-1.7,2-12.2,18.3-6.7,24.7
  c0.6,0.6,1.2,1.3,1.9,2c11.3,10.7,26.8-2.5,25.5-1.7s19-15,21.2-14.6s29.1-8.8,28.7-9.8c-0.1-0.2-0.6,0.5-0.4,0.4
  c1.7-1.2,10.8-4.4,13.4-19.7c0.9-5.2-1.7-8.2-5.6-9.9c-1.4-0.6-2.8-1-4.3-1.2c-5.7-1.1-17.7-1-17.7-1c-4.2-4.7-11.1-6-18.2-6.9
  c-0.8-0.1-1.7-0.1-2.5-0.1C1311.5,1288.2,1306.5,1289.2,1302.9,1291.8z"/>
<path d="M1125.3,1398.1c6.2-0.4,6.7-5.9,7.9-10.9c4.8-20.9,4.7-41.8,1-62.9c-0.7-3.7-1.7-6.6-5.9-8.2c-6.4-2.5-10.5-8.8-10.1-15.7
  c0.7-7.5,5.9-13.3,13.4-15.6c5.6-1.8,11.7-1.3,16.9,1.4c1.7,0.6,3.6,0.6,5.3-0.1c7.6-3.3,14.6-2.3,21.3,2.2c5.1,3.1,7.9,9,7.1,14.9
  c-0.7,6.7-4.6,11.2-10.3,13.6c-3.6,1.5-4.9,3.3-5.9,6.8c-5,17.3-6.9,35.3-5.6,53.3c0.3,5.3,1,10.6,2.1,15.8
  c0.3,1.5,2.4,3.2,4.1,3.8c8.2,2.7,13.9,8.8,14.4,16s-4.9,15-12,17.1c-6.2,1.8-12.4,1.8-18.5-1.1c-1.7-0.7-3.6-0.7-5.3-0.1
  c-6.9,2.6-13.6,2.9-20.2-0.8c-5.6-3.1-9.3-7.6-9.3-14.3C1115.3,1406.5,1118.8,1401.7,1125.3,1398.1z"/>
<path d="M923.4,1312.6c0,0-12.7-14-1.6-21.8s21.5,3.8,21.6,4.6s11,12.6,5.2,20.1c-1,1.2-2.2,2.2-3.6,2.9c-4.5,2.7-10,3.5-13.9,1.6
  c-0.8-0.4-1.6-0.9-2.3-1.5C926.8,1316.7,925,1314.7,923.4,1312.6z"/>
<path d="M938.2,1254.1c0,0-13.9,7.7-1.1,26.9s22.8,9.4,22.4,9.4s11.2-3.2,1.1-24.6S937.5,1254,938.2,1254.1z"/>
<path d="M966.4,1261.2c0,0-7.5-16,5.3-21.6s19.3,6.3,20.6,10.2c0.8,2.4,4.6,10.9,4.3,18.1c0,1.4-0.3,2.7-0.7,4
  c-1,2.7-3.1,4.7-5.8,5.6c-1.5,0.5-3.1,0.7-4.6,0.6C974.6,1277.3,965.8,1262.3,966.4,1261.2z"/>
<path d="M1009.6,1247.9c0,0-10.5,3.8-8.2,17.1c0.2,1.2,0.5,2.5,0.9,3.9c1.4,8.1,7.2,17.9,17.9,14.8c4.8-1.2,7.6-5.8,8.6-10
  c0.3-1.2,0.4-2.5,0.3-3.8c-0.1-3.3-1-6.5-2.6-9.4C1019.5,1246.4,1013.8,1246,1009.6,1247.9z"/>
<path d="M976,1293c0,0-11.4,5.2-15.3,25.1c-0.5,2.8-1.3,5.5-2.2,8.1c-0.4,1-0.8,1.9-1.3,2.8c-1.5,2.1-10.6,19.3-4.5,25.1
  c0.6,0.6,1.3,1.2,2.1,1.8c12.2,9.7,26.4-4.8,25.3-3.9s17.7-16.6,19.9-16.3s28.3-11.3,27.8-12.2c-0.1-0.2-0.6,0.6-0.4,0.4
  c1.6-1.3,10.4-5.3,11.7-20.8c0.5-5.3-2.3-8-6.4-9.4c-1.4-0.4-2.9-0.7-4.4-0.9c-5.8-0.6-17.7,0.5-17.7,0.5c-4.6-4.3-11.5-5-18.7-5.3
  c-0.8,0-1.7,0-2.5,0.1C984.2,1288.7,979.3,1290.1,976,1293z"/>
<path d="M134.8,1360.9c5.5,2.9,8.8-1.6,12.4-5.3c15-15.3,25.7-33.4,33.4-53.3c1.4-3.5,2-6.5-0.8-10.1c-4.2-5.4-4.4-13-0.5-18.7
  c4.4-6.1,11.9-8.3,19.5-6.4c5.7,1.4,10.7,5,13.7,10c1.1,1.4,2.8,2.4,4.6,2.6c8.2,1.1,13.7,5.6,17.1,12.9c2.8,5.3,2.1,11.8-1.7,16.4
  c-4,5.4-9.8,7.2-15.9,6.3c-3.9-0.6-5.9,0.3-8.6,2.8c-13.2,12.2-24.2,26.6-32.4,42.7c-2.5,4.7-4.6,9.6-6.4,14.6
  c-0.5,1.5,0.4,4,1.5,5.3c5.7,6.5,7.4,14.7,4,21.2s-12,10.3-19.1,8.4c-6.3-1.7-11.6-4.8-15.2-10.6c-1.1-1.5-2.7-2.5-4.5-2.8
  c-7.2-1.4-13.1-4.6-16.9-11.1c-3.2-5.6-4-11.3-0.6-17S127.3,1360.7,134.8,1360.9z"/>
<path style="fill:#F94331;" d="M360.9,1311.4c-19.1-10.6-39-19.9-57-32c-15.7-10.1-20.3-31.1-10.2-46.9c2.5-3.9,5.7-7.2,9.5-9.7
  c11.7-7.8,27-7.3,38.1,1.3l4.3,4.1c5.4-6,11.3-11.4,17.8-16.2c13.4-7.2,30-4.2,39.9,7.3c9.7,12,10.5,28.9,2,41.8
  c-8.7,10.8-17.9,21.2-27.7,31C372.4,1298.1,366.9,1304.7,360.9,1311.4z"/>
<path d="M650.8,1261.4c0,0,12,14.6,0.5,21.9s-21.2-4.9-21.3-5.7s-10.4-13.1-4.2-20.3c1-1.2,2.3-2.1,3.8-2.7c4.6-2.5,10.2-3,14-0.9
  c0.8,0.5,1.5,1,2.2,1.6C647.6,1257.1,649.3,1259.2,650.8,1261.4z"/>
<path d="M632.9,1319c0,0,14.3-7,2.5-26.8s-22.3-10.6-21.9-10.5s-11.4,2.6-2.4,24.5S633.6,1319.2,632.9,1319z"/>
<path d="M605.2,1310.5c0,0,6.7,16.3-6.4,21.2s-18.9-7.3-20-11.2c-0.7-2.5-4-11.2-3.3-18.2c0.1-1.4,0.5-2.7,1-4
  c1.1-2.6,3.4-4.5,6.1-5.3c1.5-0.4,3.1-0.5,4.7-0.3C597.8,1294,605.7,1309.4,605.2,1310.5z"/>
<path d="M561.3,1321.5c0,0,10.6-3.2,9.1-16.7c-0.2-1.3-0.4-2.7-0.7-4c-1-8.2-6.3-18.2-17.2-15.7c-4.9,1-7.9,5.4-9.1,9.6
  c-0.3,1.2-0.5,2.5-0.5,3.8c0,3.3,0.7,6.5,2.1,9.5C551.3,1322.5,557,1323.2,561.3,1321.5z"/>
<path d="M597.2,1278.2c0,0,11.6-4.6,16.6-24.3c0.7-2.7,1.5-5.4,2.7-8c0.4-0.9,0.9-1.9,1.4-2.8c1.7-2,11.6-18.7,5.8-24.9
  c-0.6-0.6-1.2-1.3-2-1.9c-11.7-10.3-26.6,3.4-25.5,2.5s-18.5,15.7-20.7,15.3s-28.8,9.8-28.4,10.7c0.1,0.2,0.6-0.6,0.4-0.4
  c-1.6,1.2-10.6,4.8-12.8,20.2c-0.8,5.3,1.9,8.2,5.9,9.7c1.4,0.5,2.8,0.9,4.3,1.1c5.8,0.9,17.7,0.4,17.7,0.4
  c4.3,4.6,11.3,5.6,18.4,6.3c0.8,0,1.7,0,2.5,0C588.8,1282.1,593.7,1281,597.2,1278.2z"/>
<path d="M747.8,1305.9c5.5,2.9,8.8-1.6,12.4-5.3c15-15.3,25.7-33.4,33.4-53.3c1.4-3.5,2-6.5-0.8-10.1c-4.2-5.4-4.4-13-0.5-18.7
  c4.4-6.1,11.9-8.3,19.5-6.4c5.7,1.4,10.7,5,13.7,10c1.1,1.4,2.8,2.4,4.6,2.6c8.2,1.1,13.7,5.6,17.1,12.9c2.8,5.3,2.1,11.8-1.7,16.4
  c-4,5.4-9.8,7.2-15.9,6.3c-3.8-0.6-5.9,0.3-8.6,2.8c-13.2,12.2-24.2,26.6-32.4,42.7c-2.5,4.7-4.6,9.6-6.4,14.6
  c-0.5,1.5,0.4,4,1.5,5.3c5.7,6.5,7.4,14.7,4,21.2s-12,10.3-19.1,8.4c-6.3-1.7-11.6-4.8-15.2-10.6c-1.1-1.5-2.7-2.5-4.5-2.8
  c-7.2-1.4-13.1-4.6-16.9-11.1c-3.2-5.6-4-11.3-0.6-17S740.3,1305.7,747.8,1305.9z"/>
  <rect x="-59" y="-57.1" style="opacity:0.99;fill:#0585C3;" width="1408.9" height="1409.3"/>
</svg>
