<svg xmlns="http://www.w3.org/2000/svg" viewBox="0 0 130.89 44.05">
  <path d="M42.41,9.55A8.79,8.79,0,0,1,41,12.1a7.14,7.14,0,0,1-2.16,1.82,5.54,5.54,0,0,1-2.72.7,5.91,5.91,0,0,1-1.81-.27.27.27,0,0,1-.2-.19.76.76,0,0,1,0-.34.69.69,0,0,1,.13-.3.29.29,0,0,1,.25-.12,1.63,1.63,0,0,0,.31,0h.31a4.71,4.71,0,0,0,3.61-1.38A5.39,5.39,0,0,0,40,8.2,8.21,8.21,0,0,0,39.69,6a6.83,6.83,0,0,0-.91-2,5.19,5.19,0,0,0-1.45-1.43,3.56,3.56,0,0,0-2-.56,4,4,0,0,0-1,.14q-.5.14-.93.3V21.84a4.24,4.24,0,0,0,.06.52c0,.26.09.54.14.83s.11.56.17.81a1.14,1.14,0,0,0,.16.44.83.83,0,0,0,.47.22l.56.08a6.44,6.44,0,0,1,.75.09.61.61,0,0,1,.47.42.22.22,0,0,1,0,.28.42.42,0,0,1-.33.12c-1.25,0-2.5,0-3.76,0s-2.53,0-3.8-.07c-.21,0-.32-.12-.33-.29s.09-.27.3-.32a5.45,5.45,0,0,0,1-.3,1.21,1.21,0,0,0,.56-.48,1.66,1.66,0,0,0,.22-.81q0-.5,0-1.35V3.24A2.51,2.51,0,0,0,30,2.43,1.09,1.09,0,0,0,29.7,2a.91.91,0,0,0-.39-.2l-.44-.08-.73-.15a.75.75,0,0,1-.52-.46.27.27,0,0,1,0-.3A.4.4,0,0,1,28,.64h1.65c.34,0,.68,0,1,0a7.84,7.84,0,0,0,1,0c.32,0,.63,0,.94,0h2.53a24.5,24.5,0,0,1,2.85.17,6.67,6.67,0,0,1,2.5.78,4.6,4.6,0,0,1,1.78,1.8,6.55,6.55,0,0,1,.69,3.26A8.71,8.71,0,0,1,42.41,9.55Z"/>
  <path d="M61,25.7H59.16l-1.66,0a13.64,13.64,0,0,1-1.62,0,.48.48,0,0,1-.34-.17c-.07-.09,0-.19.09-.31l1.09-.6c-.5-1.42-1-2.84-1.51-4.26s-1-2.83-1.49-4.25H47.56c-.16.41-.38,1-.64,1.77s-.51,1.58-.76,2.4-.47,1.6-.64,2.33a7.6,7.6,0,0,0-.27,1.53.72.72,0,0,0,.49.76,4.35,4.35,0,0,0,.95.26c.21,0,.31.15.3.32s-.12.25-.33.25l-6.5,0a.71.71,0,0,1-.16-.21.24.24,0,0,1,.06-.27.21.21,0,0,1,.21-.08l.17,0a1.49,1.49,0,0,0,.8-.26,4,4,0,0,0,.75-.64,5.69,5.69,0,0,0,.62-.84,5.61,5.61,0,0,0,.42-.86c.54-1.49,1.06-3,1.55-4.58s1-3.08,1.48-4.57q1.09-3.27,2.22-6.51C49,4.73,49.79,2.55,50.57.37a.51.51,0,0,1,.21-.23.2.2,0,0,1,.29.06,6.38,6.38,0,0,1,1,1.86c.3.81.56,1.56.79,2.26a1.43,1.43,0,0,1,.17.41,1.28,1.28,0,0,0,.11.33c.25.72.52,1.45.83,2.2s.58,1.5.86,2.29c.37,1.08.76,2.21,1.17,3.38s.83,2.35,1.26,3.54.88,2.36,1.33,3.49.89,2.22,1.33,3.23a2.71,2.71,0,0,0,1.23,1.38,4.41,4.41,0,0,0,1.71.47v.61C62.21,25.7,61.61,25.71,61,25.7ZM50.53,6.18c-.41,1.41-.81,2.77-1.2,4.06s-.81,2.65-1.27,4.07h5Z"/>
  <path d="M89.45,1.42a1.62,1.62,0,0,0-.38,0l-.34,0a.81.81,0,0,0-.55.17,2,2,0,0,0-.39.5,12.76,12.76,0,0,0-.86,2.18c-.3,1-.6,2-.9,3.16s-.6,2.31-.88,3.49-.53,2.24-.73,3.19q-.14.51-.21,1c0,.3-.11.58-.17.83q-.63,2.46-1.3,5a46.45,46.45,0,0,1-1.64,5,.28.28,0,0,1-.31.2.35.35,0,0,1-.34-.17,53,53,0,0,1-2.57-6.24Q76.72,16.31,75.73,13c-.36-1.1-.66-2.11-.93-3s-.57-1.89-1-3c-.52,1.35-1,2.76-1.56,4.21s-1,2.86-1.5,4.23c-.25.75-.54,1.57-.86,2.47l-1,2.76c-.33,1-.66,1.87-1,2.77S67.3,25.2,67,25.92a.32.32,0,0,1-.33.19.46.46,0,0,1-.36-.19q-1-3.44-1.74-6.29T63.35,14c-.33-1.82-.68-3.64-1-5.45A38,38,0,0,0,61,3.44a1.53,1.53,0,0,0-.06-.22c0-.12-.09-.26-.16-.42s-.12-.31-.18-.45l-.13-.29.06,0A1.48,1.48,0,0,0,60,1.7a3.65,3.65,0,0,0-.56-.18,2.71,2.71,0,0,1-1.16-.47C58.09,1,58,.85,58.1.73a.37.37,0,0,1,.37-.19l3.82,0c1.27,0,2.54.06,3.81.11.21,0,.32.11.34.27s-.06.25-.25.3a2,2,0,0,1-.39.13l-.29.07L65,1.6a1.23,1.23,0,0,0-.42.26c.1,1,.25,2.15.44,3.42s.38,2.57.58,3.88.4,2.6.6,3.85.41,2.36.58,3.34.37,2.07.58,3.26c.46-1.28.87-2.44,1.24-3.48l1.25-3.56c.46-1.34.95-2.7,1.45-4.08L72.79,4.4c.48-1.33.91-2.52,1.28-3.56a.33.33,0,0,1,.31-.2.43.43,0,0,1,.35.17,65.27,65.27,0,0,1,2.5,6.51q1.15,3.56,2.25,7.09l.44,1.47c.12.44.25.86.37,1.27s.25.81.39,1.21l.45,1.35c.36-1.24.74-2.63,1.15-4.17s.78-3.11,1.12-4.72.63-3.17.86-4.68a26.74,26.74,0,0,0,.34-4,.53.53,0,0,0-.42-.56,8.23,8.23,0,0,0-.86-.19,1,1,0,0,0-.25,0,.33.33,0,0,1-.15,0c-.19-.05-.28-.16-.27-.32A.29.29,0,0,1,83,.71a7.83,7.83,0,0,1,1.81,0,15.69,15.69,0,0,0,1.81.1A8.93,8.93,0,0,0,88.12.68,2.76,2.76,0,0,1,89.6.81Z"/>
  <path d="M101.53,21.91a8.21,8.21,0,0,1-2,2.26,9.72,9.72,0,0,1-2.68,1.47,8.62,8.62,0,0,1-2.82.52A6.67,6.67,0,0,1,92.64,26a4.22,4.22,0,0,1-1.32-.51,3.09,3.09,0,0,1-1-1A2.71,2.71,0,0,1,90,23.05,5.42,5.42,0,0,1,90,22c.06-.31.14-.63.22-.94s.08-.48.13-.7.08-.41.12-.59a.24.24,0,0,1,.14-.18.47.47,0,0,1,.24-.05.49.49,0,0,1,.25.06.26.26,0,0,1,.09.21l0,.54a3.33,3.33,0,0,0,1.19,2.87,4.34,4.34,0,0,0,1.34.77,4.57,4.57,0,0,0,1.56.27A4.32,4.32,0,0,0,96.76,24a4.56,4.56,0,0,0,1.36-.77,4.22,4.22,0,0,0,1-1.22,3.23,3.23,0,0,0,.39-1.59,4.08,4.08,0,0,0-.37-1.68,8.52,8.52,0,0,0-1-1.67,17.07,17.07,0,0,0-1.39-1.67L95.17,13.7v0q-.92-.95-1.8-1.89a17.36,17.36,0,0,1-1.58-1.93,10.56,10.56,0,0,1-1.11-2,5.21,5.21,0,0,1-.42-2,4.35,4.35,0,0,1,.83-2.67,7,7,0,0,1,2-1.84A9.24,9.24,0,0,1,95.76.34,10.93,10.93,0,0,1,98.36,0a10.63,10.63,0,0,1,3.09.44.29.29,0,0,1,.25.3V2c0,.61,0,1.23-.06,1.87a3.12,3.12,0,0,1-.5,1.6.38.38,0,0,1-.41.11.31.31,0,0,1-.25-.31,4.29,4.29,0,0,0-.26-1.52,3.15,3.15,0,0,0-.77-1.14,3.42,3.42,0,0,0-1.14-.73,3.73,3.73,0,0,0-1.39-.25,3.45,3.45,0,0,0-2.49,1,3.9,3.9,0,0,0-.76,1.2,4,4,0,0,0-.28,1.54A4,4,0,0,0,93.73,7a7,7,0,0,0,.92,1.5A12.33,12.33,0,0,0,96,9.92c.49.45,1,.91,1.48,1.39s1.2,1.09,1.78,1.65a13.55,13.55,0,0,1,1.56,1.77,8.79,8.79,0,0,1,1.11,2,5.83,5.83,0,0,1,.43,2.26A5.59,5.59,0,0,1,101.53,21.91Z"/>
  <path d="M.1,10.54s-.78-3.82,2-4,3.39,3,3.34,3.1.62,3.4-1.21,4.11a2.25,2.25,0,0,1-.94.13A3.15,3.15,0,0,1,.68,12.66a2.55,2.55,0,0,1-.24-.5A8.5,8.5,0,0,1,.1,10.54Z"/>
  <path d="M8.92,1.76s-3.28-.11-3,4.65,3,4.08,3,4,2.33.62,2.8-4.24S8.8,1.65,8.92,1.76Z"/>
  <path d="M13.16,6s.36-3.61,3.22-3.25,2.74,3.15,2.56,4a10.47,10.47,0,0,1-1.15,3.64,2.89,2.89,0,0,1-.56.64,1.89,1.89,0,0,1-1.62.37,2.32,2.32,0,0,1-.89-.39C12.92,9.71,13,6.13,13.16,6Z"/>
  <path d="M22.22,8.22A3,3,0,0,0,19,10.38a6.7,6.7,0,0,0-.25.79c-.62,1.59-.62,3.93,1.61,4.52a2.62,2.62,0,0,0,2.57-.87,2.86,2.86,0,0,0,.47-.64,4.51,4.51,0,0,0,.54-1.93C24.13,9,23.17,8.32,22.22,8.22Z"/>
  <path d="M11.49,12.64s-2.57-.28-5.37,2.83a10.88,10.88,0,0,1-1.26,1.19,4.65,4.65,0,0,1-.52.37c-.5.21-3.92,2.29-3.46,4a4.72,4.72,0,0,0,.17.54c1.13,3,5.19,1.95,4.89,2s4.89-1.07,5.25-.79a29.56,29.56,0,0,0,6.2.79s-.16,0-.1,0a5.06,5.06,0,0,0,4.27-2.44,1.71,1.71,0,0,0-.14-2.34,4.52,4.52,0,0,0-.68-.62,26.81,26.81,0,0,0-3.19-1.78c-.36-1.25-1.52-2.1-2.75-2.92-.15-.08-.3-.17-.46-.24A4.64,4.64,0,0,0,11.49,12.64Z"/>
  <path d="M107.06,10.54s-.77-3.82,2-4,3.4,3,3.34,3.1.63,3.4-1.2,4.11a2.25,2.25,0,0,1-.94.13,3.14,3.14,0,0,1-2.64-1.19,3.33,3.33,0,0,1-.25-.5A9.35,9.35,0,0,1,107.06,10.54Z"/>
  <path d="M115.89,1.76s-3.28-.11-3,4.65,3,4.08,3,4,2.33.62,2.8-4.24S115.77,1.65,115.89,1.76Z"/>
  <path d="M120.12,6s.36-3.61,3.22-3.25,2.75,3.15,2.57,4a10.54,10.54,0,0,1-1.16,3.64,2.62,2.62,0,0,1-.55.64,1.91,1.91,0,0,1-1.63.37,2.28,2.28,0,0,1-.88-.39C119.89,9.71,119.91,6.13,120.12,6Z"/>
  <path d="M129.19,8.22a3,3,0,0,0-3.27,2.16c-.09.24-.18.5-.26.79-.61,1.59-.61,3.93,1.62,4.52a2.63,2.63,0,0,0,2.57-.87,3.21,3.21,0,0,0,.47-.64,4.51,4.51,0,0,0,.54-1.93C131.1,9,130.14,8.32,129.19,8.22Z"/>
  <path d="M118.45,12.64s-2.56-.28-5.36,2.83a10.88,10.88,0,0,1-1.26,1.19,4.65,4.65,0,0,1-.52.37c-.5.21-3.92,2.29-3.47,4q.07.26.18.54c1.13,3,5.19,1.95,4.89,2s4.89-1.07,5.25-.79a29.4,29.4,0,0,0,6.2.79s-.17,0-.11,0a5.07,5.07,0,0,0,4.28-2.44,1.72,1.72,0,0,0-.14-2.34,4.52,4.52,0,0,0-.68-.62,26.67,26.67,0,0,0-3.2-1.78c-.35-1.25-1.51-2.1-2.74-2.92-.15-.08-.3-.17-.46-.24A4.65,4.65,0,0,0,118.45,12.64Z"/>
  <path d="M14.38,31.88s0,.08,0,.14a1.49,1.49,0,0,0,0,.21,1.16,1.16,0,0,0,0,.17,4.12,4.12,0,0,1,0,.48c0,.18-.05.34-.08.49a1.73,1.73,0,0,1-.15.42.75.75,0,0,1-.21.27.26.26,0,0,1-.24,0,.2.2,0,0,1-.12-.19,1,1,0,0,0-.42-.92,2,2,0,0,0-1-.23l-.58,0-.61.08-.42.07-.41,0v4H13a.73.73,0,0,0,.3-.14,3.26,3.26,0,0,0,.3-.25.25.25,0,0,1,.26,0,.17.17,0,0,1,.14.18v.26c0,.16,0,.35,0,.56a4.46,4.46,0,0,1,0,.63,2.81,2.81,0,0,1-.13.59.73.73,0,0,1-.25.38.23.23,0,0,1-.24,0,.2.2,0,0,1-.12-.19.92.92,0,0,0-.37-.9,2,2,0,0,0-1-.23H11.5l-.35,0-.32,0h-.54l-.19,0v4A1.85,1.85,0,0,0,10.36,43a1.18,1.18,0,0,0,1,.26.2.2,0,0,1,.23.18c0,.13,0,.19-.18.21-.34,0-.68,0-1,0H8.36l-1,0a.18.18,0,0,1-.2-.18.18.18,0,0,1,.16-.21,3.27,3.27,0,0,0,.52-.11.69.69,0,0,0,.29-.2.7.7,0,0,0,.13-.37,5.55,5.55,0,0,0,0-.65V33.1c0-.27-.06-.46-.19-.54a1.14,1.14,0,0,0-.41-.18l-.32-.09L7,32.14c-.11,0-.15-.09-.13-.19a.18.18,0,0,1,.21-.15c.65,0,1.28,0,1.9,0h4.19a3.25,3.25,0,0,0,.44,0,1.48,1.48,0,0,0,.42-.14l.33.19Z"/>
  <path d="M27.83,40.66a5.66,5.66,0,0,1-1.55,1.84,6.52,6.52,0,0,1-2.16,1.11,8,8,0,0,1-2.41.37,6,6,0,0,1-2.37-.49,6.65,6.65,0,0,1-3.47-3.35,5.87,5.87,0,0,1-.55-2.51,5.64,5.64,0,0,1,.6-2.64,6.13,6.13,0,0,1,1.55-1.94,6.64,6.64,0,0,1,2.18-1.21,7.56,7.56,0,0,1,2.49-.41,5.45,5.45,0,0,1,2.38.54,6.74,6.74,0,0,1,2,1.46,7,7,0,0,1,1.38,2.13,6.58,6.58,0,0,1,.51,2.57A5.17,5.17,0,0,1,27.83,40.66Zm-1.55-4.74a6,6,0,0,0-1-1.82,4.73,4.73,0,0,0-1.53-1.24,4.38,4.38,0,0,0-2-.46,4.93,4.93,0,0,0-1.86.35,4.43,4.43,0,0,0-1.47,1,4.61,4.61,0,0,0-1,1.55,5.65,5.65,0,0,0-.34,2,6.68,6.68,0,0,0,.36,2.2,5.78,5.78,0,0,0,1,1.84,5,5,0,0,0,1.56,1.26,4.27,4.27,0,0,0,2,.47A4.67,4.67,0,0,0,24,42.73a4,4,0,0,0,1.43-1,4.62,4.62,0,0,0,.92-1.59,6.26,6.26,0,0,0,.32-2A6.8,6.8,0,0,0,26.28,35.92Z"/>
  <path d="M40.25,44A3.23,3.23,0,0,1,39,43.79a4.13,4.13,0,0,1-1-.63,6.21,6.21,0,0,1-.87-.9c-.27-.33-.53-.67-.79-1s-.45-.62-.68-.91a6.9,6.9,0,0,0-.73-.79,1.57,1.57,0,0,0-.87-.4,7.29,7.29,0,0,0-1-.08h-.42v2.88a1.8,1.8,0,0,0,0,.27c0,.12,0,.25.07.39a1.82,1.82,0,0,0,.09.37.36.36,0,0,0,.09.19.3.3,0,0,0,.18,0l.24,0c.12,0,.25,0,.37.06a.73.73,0,0,1,.36.16c.1.06.14.13.1.22a.25.25,0,0,1-.24.13h-2c-.68,0-1.36,0-2.05-.08a.19.19,0,0,1-.19-.18.2.2,0,0,1,.17-.21,3.44,3.44,0,0,0,.52-.1A.6.6,0,0,0,30.6,43a.78.78,0,0,0,.13-.39,5.62,5.62,0,0,0,0-.66V33.15c0-.35-.07-.56-.21-.64a1.41,1.41,0,0,0-.43-.13,2,2,0,0,1-.39-.06.45.45,0,0,1-.26-.22.17.17,0,0,1,0-.2.28.28,0,0,1,.22-.08h.77a3.85,3.85,0,0,1,.48,0l.61,0h1.83a14.14,14.14,0,0,1,1.56.09,4.42,4.42,0,0,1,1.49.39,2.77,2.77,0,0,1,1.09.89,2.61,2.61,0,0,1,.44,1.59,3.18,3.18,0,0,1-.17,1,6,6,0,0,1-.45,1,7.34,7.34,0,0,1-.6.86,8,8,0,0,1-.68.73c.2.21.4.44.6.68l.59.75c.32.42.67.85,1,1.29a11.44,11.44,0,0,0,1.13,1.17,5.63,5.63,0,0,0,1.19.84,1.94,1.94,0,0,0,1.21.23l.12.37A4,4,0,0,1,40.25,44Zm-4.38-9.59a2.88,2.88,0,0,0-.5-1,2.55,2.55,0,0,0-.8-.66,2.09,2.09,0,0,0-1-.25,3.1,3.1,0,0,0-.92.13v5.24l.71.07.72,0a1.78,1.78,0,0,0,1.49-.65A2.88,2.88,0,0,0,36,35.6,4.07,4.07,0,0,0,35.87,34.44Z"/>
  <path d="M48.33,37.69a9.66,9.66,0,0,1-1.12.29L46,38.19l-1.41.29a7.65,7.65,0,0,0-1.33.41.41.41,0,0,1-.25,0,.16.16,0,0,1-.08-.17c0-.21.07-.43.11-.66a5.69,5.69,0,0,1,.18-.71s0,0,.09-.07a.33.33,0,0,1,.13,0h1.33l1.11,0,1.1,0c.34,0,.63,0,.88,0a3.91,3.91,0,0,1,.46,0Z"/>
  <path d="M61.68,43.7l-1,0H60l-.7,0a.21.21,0,0,1-.21-.11c0-.07,0-.15.07-.22l.18-.24c-.27-.68-.53-1.33-.79-2s-.52-1.27-.8-1.95H54.48c-.11.23-.23.53-.36.89s-.27.72-.4,1.09-.25.7-.34,1a3.3,3.3,0,0,0-.13.66.32.32,0,0,0,.26.32l.47.12c.13,0,.2.08.19.2a.18.18,0,0,1-.21.19l-3.55-.07.08-.39a.64.64,0,0,0,.43,0,1.65,1.65,0,0,0,.42-.27,3.09,3.09,0,0,0,.37-.43,3.24,3.24,0,0,0,.27-.43l.84-2.15c.29-.73.57-1.44.84-2.14.38-1,.78-2.05,1.17-3.07l1.2-3c.06-.11.16-.14.31-.09a.82.82,0,0,1,.28.28c.09.15.19.31.28.49a6.29,6.29,0,0,1,.26.58c.08.2.16.38.22.54v0a2.33,2.33,0,0,1,.1.27,1.14,1.14,0,0,0,.09.19v0l.88,2.25c.42,1,.84,2.1,1.26,3.16s.89,2.1,1.4,3.1a1.2,1.2,0,0,0,.67.66,3.68,3.68,0,0,0,.86.19v.39C62.32,43.66,62,43.69,61.68,43.7Zm-5.61-9.1c-.22.64-.43,1.25-.61,1.82s-.4,1.19-.66,1.84h2.56Z"/>
  <path d="M69.13,37.69A9.66,9.66,0,0,1,68,38l-1.17.21-1.41.29a7.65,7.65,0,0,0-1.33.41.41.41,0,0,1-.25,0,.16.16,0,0,1-.08-.17c0-.21.06-.43.1-.66a4.44,4.44,0,0,1,.19-.71s0,0,.09-.07a.33.33,0,0,1,.13,0h1.33l1.11,0,1.09,0c.35,0,.64,0,.89,0a3.43,3.43,0,0,1,.45,0Z"/>
  <path d="M82.14,41.87a7.82,7.82,0,0,1-.33,1,.3.3,0,0,1-.12.13,20.22,20.22,0,0,1-2.31.62A10.78,10.78,0,0,1,77,43.9a6.23,6.23,0,0,1-2.27-.43,5.78,5.78,0,0,1-1.93-1.21,5.91,5.91,0,0,1-1.34-1.87A5.74,5.74,0,0,1,71,38a6.6,6.6,0,0,1,.61-2.77,7.42,7.42,0,0,1,1.58-2.28,3.53,3.53,0,0,1,1-.66,7.54,7.54,0,0,1,1.27-.41,12.53,12.53,0,0,1,1.32-.22c.44,0,.82-.06,1.16-.06a12.16,12.16,0,0,1,1.22.06l1.18.16.89.12.86.09c.15,0,.22.06.22.18a12.3,12.3,0,0,1-.12,1.5c-.06.49-.14,1-.22,1.46a.22.22,0,0,1-.24.15.2.2,0,0,1-.22-.15A2.94,2.94,0,0,0,81,33.88a3.27,3.27,0,0,0-.85-.85,3.31,3.31,0,0,0-1.1-.49,4.61,4.61,0,0,0-1.23-.16,5.79,5.79,0,0,0-1.93.31,4.6,4.6,0,0,0-1.6.91,4.54,4.54,0,0,0-1.09,1.51,5.31,5.31,0,0,0-.4,2.1,6,6,0,0,0,.44,2.3,6.05,6.05,0,0,0,1.2,1.83,5.85,5.85,0,0,0,1.76,1.22,5.17,5.17,0,0,0,2.1.44,3.9,3.9,0,0,0,2.07-.56,4,4,0,0,0,1.5-1.7l.46.09A4.59,4.59,0,0,1,82.14,41.87Z"/>
  <path d="M94.81,43.7l-1,0h-.7l-.71,0a.21.21,0,0,1-.21-.11.19.19,0,0,1,.07-.22l.18-.24-.78-2-.81-1.95H87.61c-.1.23-.22.53-.36.89s-.27.72-.4,1.09a9.06,9.06,0,0,0-.33,1,2.7,2.7,0,0,0-.13.66.31.31,0,0,0,.26.32l.46.12c.14,0,.2.08.19.2a.18.18,0,0,1-.21.19l-3.55-.07.08-.39a.64.64,0,0,0,.43,0,1.37,1.37,0,0,0,.42-.27,3.09,3.09,0,0,0,.37-.43,3.42,3.42,0,0,0,.28-.43c.26-.7.54-1.41.83-2.15s.57-1.44.84-2.14c.39-1,.78-2.05,1.18-3.07s.79-2,1.2-3q.08-.17.3-.09a.74.74,0,0,1,.28.28c.09.15.19.31.28.49a4.42,4.42,0,0,1,.26.58c.09.2.16.38.23.54v0l.1.27a.68.68,0,0,0,.08.19v0l.88,2.25c.42,1,.84,2.1,1.26,3.16s.89,2.1,1.41,3.1a1.18,1.18,0,0,0,.66.66,3.65,3.65,0,0,0,.87.19v.39C95.46,43.66,95.13,43.69,94.81,43.7Zm-5.6-9.1c-.23.64-.44,1.25-.62,1.82s-.4,1.19-.65,1.84H90.5Z"/>
  <path d="M106.35,32.51a.64.64,0,0,0-.31.61v6a5,5,0,0,1-.39,2,4.67,4.67,0,0,1-1,1.55,4.57,4.57,0,0,1-1.55,1,5.09,5.09,0,0,1-1.87.35,6.93,6.93,0,0,1-1.7-.23,5.68,5.68,0,0,1-1.66-.7,4.14,4.14,0,0,1-1.25-1.18,2.93,2.93,0,0,1-.49-1.7v0a2.22,2.22,0,0,0,0-.37,1.78,1.78,0,0,1,0-.3V33.15c0-.37-.08-.59-.25-.66a1.85,1.85,0,0,0-.5-.13l-.41-.06c-.11,0-.18-.11-.21-.26s0-.22.24-.22h.63c1.1,0,2.21,0,3.32.13a.18.18,0,0,1,.18.19c0,.11-.06.16-.18.18a2,2,0,0,0-.68.18.63.63,0,0,0-.29.62v3.42c0,.58,0,1.16,0,1.73s0,1.14,0,1.71a3,3,0,0,0,.29,1.34,3,3,0,0,0,.74,1,3.12,3.12,0,0,0,1.06.58,4,4,0,0,0,1.24.2,3.87,3.87,0,0,0,1.26-.21,3.33,3.33,0,0,0,1.09-.61,3,3,0,0,0,1-2.36V38.22c0-.57,0-1.14,0-1.7s0-1.11,0-1.68V33.15a1,1,0,0,0-.07-.42.51.51,0,0,0-.17-.23.54.54,0,0,0-.23-.1l-.25,0-.41,0a.3.3,0,0,1-.24-.27c0-.15.06-.22.25-.22.6,0,1.2,0,1.79,0s1.18,0,1.77.09l0,.37A1.91,1.91,0,0,0,106.35,32.51Z"/>
  <path d="M114.42,42a4.06,4.06,0,0,1-1.15,1.07,5.63,5.63,0,0,1-1.48.66,5,5,0,0,1-1.44.23,4.64,4.64,0,0,1-.71-.06,2.83,2.83,0,0,1-.71-.24,1.84,1.84,0,0,1-.57-.47,1.22,1.22,0,0,1-.23-.75,2.38,2.38,0,0,1,.05-.45c0-.15.08-.3.13-.46a1.74,1.74,0,0,0,.12-.61.12.12,0,0,1,.09-.12.29.29,0,0,1,.16,0,.3.3,0,0,1,.15,0,.16.16,0,0,1,.07.13v.26a1.28,1.28,0,0,0,.15.79,1.75,1.75,0,0,0,.51.57,2.64,2.64,0,0,0,.72.34,3,3,0,0,0,.77.11,2.46,2.46,0,0,0,.72-.12,3.31,3.31,0,0,0,.74-.34,2.09,2.09,0,0,0,.56-.55,1.28,1.28,0,0,0,.22-.76,1.63,1.63,0,0,0-.21-.78,5.69,5.69,0,0,0-.54-.81,9.26,9.26,0,0,0-.75-.8l-.84-.78c-.32-.3-.64-.59-1-.9a9.13,9.13,0,0,1-.86-.92,4.55,4.55,0,0,1-.61-.94,2.08,2.08,0,0,1-.24-1,2,2,0,0,1,.48-1.35,3.51,3.51,0,0,1,1.16-.87,5.77,5.77,0,0,1,1.44-.46,6.73,6.73,0,0,1,1.3-.15,7.37,7.37,0,0,1,1.69.2c.15,0,.21.1.18.22v.61c0,.29,0,.58,0,.88a1.22,1.22,0,0,1-.27.73.27.27,0,0,1-.27.06.18.18,0,0,1-.15-.19,1.37,1.37,0,0,0-.18-.72,1.69,1.69,0,0,0-.44-.52,1.77,1.77,0,0,0-.6-.33,2.3,2.3,0,0,0-.68-.11,1.93,1.93,0,0,0-.67.12,1.87,1.87,0,0,0-.6.34,1.74,1.74,0,0,0-.42.54,1.64,1.64,0,0,0-.16.74,1.54,1.54,0,0,0,.19.74,3.65,3.65,0,0,0,.5.73,6.53,6.53,0,0,0,.7.69l.74.63,1,.79a7.86,7.86,0,0,1,.87.86,5,5,0,0,1,.62,1,2.43,2.43,0,0,1,.24,1.07A2.37,2.37,0,0,1,114.42,42Z"/>
  <path d="M123,43.59l-.17.09a1.57,1.57,0,0,1-.46,0h-.74l-.74,0H117.6c-.48,0-1,0-1.43,0a.18.18,0,0,1-.17-.21.17.17,0,0,1,.19-.18.8.8,0,0,0,.75-.38,2.14,2.14,0,0,0,.18-.95V33c0-.25-.06-.41-.19-.49a1.32,1.32,0,0,0-.41-.17l-.34-.08a1,1,0,0,1-.33-.16c-.11,0-.14-.13-.1-.21a.23.23,0,0,1,.24-.13h1.13l1.27,0h1.39c.67,0,1.28,0,1.84,0a4.33,4.33,0,0,0,1.1-.15.25.25,0,0,1,.24,0,.16.16,0,0,1,.09.17,5.21,5.21,0,0,1-.13.76c0,.23-.1.47-.16.7s0,.2-.06.28a1.1,1.1,0,0,1-.06.26c0,.1-.1.16-.24.16s-.21-.06-.22-.18a1.21,1.21,0,0,0-.16-.59,1.13,1.13,0,0,0-.36-.33,1.61,1.61,0,0,0-.51-.17,3.52,3.52,0,0,0-.56,0H119v4.16h2.42a.72.72,0,0,0,.27-.08l.34-.14h0a1.28,1.28,0,0,0,.29-.24.66.66,0,0,1,.25-.19.23.23,0,0,1,.23,0,.17.17,0,0,1,.07.18c0,.19,0,.42-.07.68s0,.49-.07.67-.05.35-.08.53,0,.36-.08.56a.18.18,0,0,1-.14.15.2.2,0,0,1-.22,0c-.16-.1-.24-.17-.23-.21a1.1,1.1,0,0,0,0-.16c0-.13-.09-.25-.13-.37a.65.65,0,0,0-.13-.22,1.17,1.17,0,0,0-.41-.14,6,6,0,0,0-.67-.07l-.74,0H119v4.23a1.81,1.81,0,0,0,.91.69A3.08,3.08,0,0,0,121,43a2.17,2.17,0,0,0,1.19-.34,1.66,1.66,0,0,0,.72-1.1.17.17,0,0,1,.11-.09.29.29,0,0,1,.16,0,.34.34,0,0,1,.15.07.11.11,0,0,1,.05.12Z"/>
  <path d="M125.25,31.53h-.54v-.28h1.41v.28h-.53v1.54h-.34Z"/>
  <path d="M127.92,32.33c0-.24,0-.52,0-.77h0c-.07.23-.14.47-.23.7l-.27.79h-.26l-.25-.78a6.22,6.22,0,0,1-.19-.71h0c0,.24,0,.53,0,.78l0,.73h-.32l.12-1.82h.45l.25.73c.06.22.12.43.17.63h0c0-.19.11-.42.18-.63l.26-.73h.45l.11,1.82H128Z"/>
  <path d="M125.25,31.53h-.54v-.28h1.41v.28h-.53v1.54h-.34Z"/>
  <path d="M127.92,32.33c0-.24,0-.52,0-.77h0c-.07.23-.14.47-.23.7l-.27.79h-.26l-.25-.78a6.22,6.22,0,0,1-.19-.71h0c0,.24,0,.53,0,.78l0,.73h-.32l.12-1.82h.45l.25.73c.06.22.12.43.17.63h0c0-.19.11-.42.18-.63l.26-.73h.45l.11,1.82H128Z"/>
</svg>